<?xml version="1.0" encoding="UTF-8"?>
<svg xmlns="http://www.w3.org/2000/svg" id="Layer_1" data-name="Layer 1" viewBox="0 0 283.47 100.39">
  <defs>
    <style>.cls-1{fill:#1c1c24;}.cls-2{fill:#e7295d;}</style>
  </defs>
  <path class="cls-1" d="M103.74,99.05H84.35V33.4h19.39Z"></path>
  <path class="cls-1" d="M209.17,64.33V99.05H189.63V63.63c-.14-8.3-5.2-12.65-10.82-12.65-5.9,0-11.39,3.37-11.39,13.35V99.05H147.88V33.4h19.54V43a18.8,18.8,0,0,1,17.15-10.82c10.41,0,17.43,3.94,21.09,11.53C212,33.4,220.7,32,225.34,32c15.6,0,25.3,10,25.3,29.8V99.05h-19.4v-35c0-8.57-5.06-13.07-10.82-13.07C214.23,51,209.17,54.77,209.17,64.33Z"></path>
  <path class="cls-1" d="M135.43,99.05H116V33.4h19.4Z"></path>
  <path class="cls-1" d="M281.76,99.05h-19.4V33.4h19.4Z"></path>
  <path class="cls-2" d="M272.14,0a11.25,11.25,0,0,1,11.33,11.39,11.36,11.36,0,0,1-11.33,11.52,11.58,11.58,0,0,1-11.59-11.52A11.47,11.47,0,0,1,272.14,0Z"></path>
  <path class="cls-2" d="M125.81,0a11.24,11.24,0,0,1,11.32,11.39,11.35,11.35,0,0,1-11.32,11.52,11.58,11.58,0,0,1-11.59-11.52A11.47,11.47,0,0,1,125.81,0Z"></path>
  <path class="cls-2" d="M94.13,0a11.24,11.24,0,0,1,11.32,11.39A11.35,11.35,0,0,1,94.13,22.91,11.58,11.58,0,0,1,82.54,11.39,11.47,11.47,0,0,1,94.13,0Z"></path>
  <path class="cls-1" d="M52.58,33.48v7.31c-5.07-7.31-14.91-8.72-19.12-8.72C16.73,32.07,0,45.14,0,66.23s16.73,34.16,33.46,34.16c5.06,0,14.9-2.39,19.12-8.72v7.45H72V33.48ZM35,82.4c-8.16,0-16.45-6.41-16.45-16.17S26.86,50.06,35,50.06A15.7,15.7,0,0,1,50.9,66.23,15.7,15.7,0,0,1,35,82.4Z"></path>
</svg>
