<?xml version="1.0" encoding="UTF-8"?>
<svg xmlns="http://www.w3.org/2000/svg" id="Guru" viewBox="0 0 400 111">
  <title>guru-colour</title>
  <path id="Guru-2" d="M49,108.3c-9.4,0-17.2-.9-23.5-2.6s-11.3-4.4-15.1-8.2a29.92,29.92,0,0,1-8-14.4A82,82,0,0,1,0,61.7v-15A75.49,75.49,0,0,1,2.5,25.9,32,32,0,0,1,11,11.4,37.88,37.88,0,0,1,26.9,2.8C33.5.9,41.8,0,51.7,0H68.9c2.7,0,5.4,0,8.1.1s5.7.1,8.9.2L82,21.2c-4.8-.1-8.8-.2-12.2-.2s-6.3-.1-8.7-.1H50.2A56.06,56.06,0,0,0,38.1,22a14.26,14.26,0,0,0-7.4,3.9A15,15,0,0,0,27,33.8a68.56,68.56,0,0,0-1,13.3V61.4A69.38,69.38,0,0,0,27.1,75a17.45,17.45,0,0,0,3.6,8,12.3,12.3,0,0,0,7,3.8,56.36,56.36,0,0,0,11.1.9H64.3V67.8h-17l4.2-20.6H89.4V92.3a28.44,28.44,0,0,1-.8,6.9,10.35,10.35,0,0,1-2.8,5,12.8,12.8,0,0,1-5.5,3.1,31.23,31.23,0,0,1-8.9,1.1H49ZM103.4.3h25V65.5a77.58,77.58,0,0,0,.8,11.9,17.1,17.1,0,0,0,3.1,7.6,11.56,11.56,0,0,0,6.1,3.9A35.27,35.27,0,0,0,148.5,90a39.52,39.52,0,0,0,10-1.1,12.74,12.74,0,0,0,6.2-3.9,17.14,17.14,0,0,0,3.2-7.6,66.31,66.31,0,0,0,.9-11.9V.3h24.9V65.4a86.47,86.47,0,0,1-2.1,20.4,29.54,29.54,0,0,1-21.3,22.5c-5.8,1.8-13,2.7-21.8,2.7s-16.1-.9-21.8-2.7a31.55,31.55,0,0,1-13.9-8.3,32.14,32.14,0,0,1-7.4-14.2,86.47,86.47,0,0,1-2.1-20.4V.3ZM295.2,37.5c0,7.9-1.6,14.2-4.9,18.9A28.62,28.62,0,0,1,276,66.8l24.4,41.6H272.9L252.3,70.5H235.2v37.9H210.8V.3h43.5A84,84,0,0,1,273,2.1a30.47,30.47,0,0,1,12.7,5.8A23.09,23.09,0,0,1,293,18.1a42.91,42.91,0,0,1,2.4,15.2v4.2Zm-24.6-2.6a24.06,24.06,0,0,0-.9-7.1,9.21,9.21,0,0,0-2.9-4.4,11.25,11.25,0,0,0-5.2-2.2,46.23,46.23,0,0,0-8.1-.6H235.1v30h18.4a46.23,46.23,0,0,0,8.1-.6,10.87,10.87,0,0,0,5.2-2.3,9.53,9.53,0,0,0,2.9-4.5,24.31,24.31,0,0,0,.9-7.2ZM309.6.3h25V65.5a77.58,77.58,0,0,0,.8,11.9,17.1,17.1,0,0,0,3.1,7.6,11.56,11.56,0,0,0,6.1,3.9A35.27,35.27,0,0,0,354.7,90a39.52,39.52,0,0,0,10-1.1,12.74,12.74,0,0,0,6.2-3.9,17.14,17.14,0,0,0,3.2-7.6,66.31,66.31,0,0,0,.9-11.9V.3h25V65.4a86.47,86.47,0,0,1-2.1,20.4,29.54,29.54,0,0,1-21.3,22.5c-5.8,1.8-13,2.7-21.8,2.7s-16.1-.9-21.8-2.7a32.13,32.13,0,0,1-13.9-8.3,32.14,32.14,0,0,1-7.4-14.2,86.47,86.47,0,0,1-2.1-20.4V.3Z" fill="#1e9fb5"></path>
</svg>
