<?xml version="1.0" encoding="UTF-8"?>
<svg xmlns="http://www.w3.org/2000/svg" id="Pixel_Creation" data-name="Pixel Creation" viewBox="0 0 185.83 53.16">
  <title>PixelCreation.2018.colour</title>
  <path id="creation" d="M63,44H67A9.2,9.2,0,1,1,48.6,44a9,9,0,0,1,9.22-9.22,8.82,8.82,0,0,1,6.58,2.74L61.49,40.1a4.83,4.83,0,0,0-3.67-1.62c-3.1,0-5.19,2.23-5.19,5.47s2.09,5.47,5.19,5.47A5.11,5.11,0,0,0,63,44Zm11.3-7.13V35h-4V53h4V43a4.17,4.17,0,0,1,4.28-4.46H79V34.73A5.21,5.21,0,0,0,74.34,36.82Zm21.53,8h4A9.21,9.21,0,1,1,99.47,41l-12.17,7a5,5,0,0,0,3.42,1.37C93.71,49.42,95.44,47.62,95.87,44.81Zm-10.26,0,8.56-4.93a4.64,4.64,0,0,0-3.45-1.44A5.18,5.18,0,0,0,85.54,44,3.78,3.78,0,0,0,85.61,44.85ZM117.07,35h4V53h-4V51.08a6.89,6.89,0,0,1-5.15,2.08,8.84,8.84,0,0,1-9-9.21,8.85,8.85,0,0,1,9-9.22,7,7,0,0,1,5.15,2.09Zm.14,9a5.25,5.25,0,0,0-5.14-5.4,5.4,5.4,0,0,0,0,10.8A5.25,5.25,0,0,0,117.21,44Zm14.3-16.63-4,.43V35h-3.64v3.74h3.64V53h4V38.69h5.4V35h-5.4Zm10.69.22a2.7,2.7,0,1,0,2.66,2.7A2.66,2.66,0,0,0,142.2,27.54Zm-2,25.41h4V35h-4ZM166,44a9.21,9.21,0,0,1-18.42,0A9.21,9.21,0,1,1,166,44Zm-4,0a5.18,5.18,0,1,0-10.36,0A5.18,5.18,0,1,0,162,44Zm17-9.22A6.08,6.08,0,0,0,174,37V35h-4V53h4V43c0-2.66,1.37-4.53,4-4.53s3.92,1.37,3.92,4.53V53h4V42.15C185.83,37.36,183.38,34.73,178.92,34.73Z" transform="translate(0 0)" fill="#af479f"></path>
  <path id="pixel" d="M9.25,7.41A7.5,7.5,0,0,0,4,9.5V7.63H0V35.06l4-.43V23.76a7.24,7.24,0,0,0,5.29,2.08c5.36,0,8.93-3.6,8.93-9.21S14.61,7.41,9.25,7.41ZM9.07,22a5.07,5.07,0,0,1-5.18-5.4,5.06,5.06,0,0,1,5.18-5.4,5.09,5.09,0,0,1,5.22,5.4A5.1,5.1,0,0,1,9.07,22ZM26.21,2.92a2.67,2.67,0,1,1-5.33,0,2.67,2.67,0,1,1,5.33,0ZM21.56,7.63h4v18h-4ZM39.24,15,46,25.63H41.36L37,18.57l-4.32,7.06h-4.6L34.85,15,30.17,7.63h4.61L37,11.37l2.27-3.74h4.61ZM56.92,22.1a5,5,0,0,1-3.42-1.37l12.16-7a9.22,9.22,0,0,0-18,2.92,9.22,9.22,0,0,0,18.39.86h-4C61.63,20.3,59.9,22.1,56.92,22.1Zm-5.19-5.47a5.19,5.19,0,0,1,5.19-5.47,4.64,4.64,0,0,1,3.45,1.44L51.8,17.53A3.78,3.78,0,0,1,51.73,16.63ZM74.34,0V25.63h-4V.43Z" transform="translate(0 0)" fill="#068caf"></path>
</svg>
