<?xml version="1.0" encoding="UTF-8"?>
<svg xmlns="http://www.w3.org/2000/svg" id="Protospace" data-name="Protospace" viewBox="0 0 384.47 78.7">
  <title>Protospace</title>
  <defs>
    <style>.cls-1{fill:#1d1d1b;}</style>
  </defs>
  <g id="protospace">
    <path id="text" class="cls-1" d="M97.31,49.76V67h-3.9v-.24a20.49,20.49,0,0,0,.12-3.06V24.38h3.72A11.57,11.57,0,0,1,97.49,27a6.3,6.3,0,0,1-1.08,3.54l.48.18c1.2-2.52,4.8-6.9,10.56-6.9,8.21,0,13.85,7.26,13.85,16.14S115.66,56,107.45,56C103,56,99.59,53.9,97.31,49.76ZM117.4,40c0-7.56-4-13.08-10.43-13.08S96.89,33,96.89,40s3.6,13,10.08,13S117.4,47.54,117.4,40ZM126,24.38h3.72a14,14,0,0,1,.18,2.28,16.21,16.21,0,0,1-.66,4.62l.42.18c1.44-5.22,5.28-7.68,9.36-7.68a7.31,7.31,0,0,1,3.54.66v4.38a5.27,5.27,0,0,0-4.2-1.56c-5.16,0-8.82,4.68-8.64,13.32v15H126Zm17.4,15.54c0-9.66,6.18-16.14,14.7-16.14,8.34,0,14.58,6.48,14.58,16.14,0,10-6.24,16.26-14.58,16.26C149.57,56.18,143.39,49.94,143.39,39.92Zm25.44,0c0-7.62-4.56-12.9-10.74-12.9-6.36,0-10.86,4.92-10.86,12.9s4.5,13,10.86,13C164.27,52.94,168.83,47.84,168.83,39.92Zm10.5,8.22V27.44h-5.46V24.38h.6c4.8,0,6.78-5.34,6.78-8.1h4.08c0,2.58-1.32,7.56-5,7.56v.54h11.4v3.06h-8.7v20.4c0,4.14.78,5.46,3.06,5.46a5.84,5.84,0,0,0,3.36-.84l1.68,2.7a8.56,8.56,0,0,1-4.62,1.32C180.23,56.48,179.33,52,179.33,48.14Zm14.16-8.22c0-9.66,6.18-16.14,14.7-16.14,8.34,0,14.58,6.48,14.58,16.14,0,10-6.24,16.26-14.58,16.26C199.67,56.18,193.49,49.94,193.49,39.92Zm25.44,0c0-7.62-4.56-12.9-10.74-12.9-6.36,0-10.86,4.92-10.86,12.9s4.5,13,10.86,13C214.37,52.94,218.93,47.84,218.93,39.92Zm33.77-4.68-6.47-.66c0-3.36-2.28-5.76-6.42-5.76-3.6,0-6.24,1.14-6.24,3.6,0,2,1,3.18,4.79,4l3,.48c7.09,1.32,11.22,4,11.22,9.9,0,6.24-6,9.42-12.59,9.42-7.08,0-12.84-4.2-12.84-12.12l6.6.84c0,4.62,3.72,5.76,6.24,5.76,3.41,0,6.12-1.32,6.12-4,0-2.4-2.34-3.06-6.54-4l-2.16-.3c-9.78-2.16-10.32-6.9-10.32-10.26,0-5.4,4.8-8.88,12.72-8.88C248,23.3,252.7,28.52,252.7,35.24Zm10.81,14.52V67h-6.6v-.36a12.56,12.56,0,0,0,.18-2.94V24.38h6.12a9.33,9.33,0,0,1,.3,2.58,6.86,6.86,0,0,1-1.26,3.72l.78.18c.9-2.1,4.2-7.08,10.32-7.08C281.2,23.78,287,31,287,39.92S281.2,56,273.35,56C268.13,56,265.49,53.42,263.51,49.76ZM280.19,40c0-6.12-2.88-10.38-8.22-10.38-5.94,0-9.18,4.86-9.18,10.38S266,50.3,272,50.3C277.31,50.3,280.19,46.1,280.19,40Zm10.86,6.48c0-7,4.26-8.64,13.14-9.6,6.66-.72,6.9-2.46,6.9-2.7v-.24c0-1.5-.72-4.86-6.54-4.86-4.62,0-7.26,2.28-7.26,5.1l-6.84,1.44c0-6.36,4.74-12.48,13.5-12.48,12.48,0,14.1,8.1,14.1,12.12V52.52a8.76,8.76,0,0,0,.36,2.58v.48h-7a4.82,4.82,0,0,1-.36-2.28,5.69,5.69,0,0,1,1.14-3.54l-.78-.18c-1.38,4.8-5.16,6.66-9.48,6.66C296.15,56.24,291.05,52.52,291.05,46.46Zm20.1-1.8v-6.3c-.12,1-.48,3-6.84,3.72-5.1.48-6.48,1.32-6.48,3.9,0,3.3,3.18,4.2,5.1,4.2C306.71,50.18,311.15,49,311.15,44.66Zm26.28-21.24c9.18,0,13.61,5,14.39,10.44l-6.71,1.32c-.48-3.18-3.36-5.58-7.68-5.58-5.28,0-8.16,4.2-8.16,10,0,6.42,2.58,10.44,8.94,10.44,4.8,0,7.14-2.7,7.68-6.24l6.72,1.38c-.84,6-5.46,11-14.4,11-12,0-15.78-7.38-15.78-16.62C322.43,31.4,326.21,23.42,337.43,23.42ZM378.17,44.9l6.3,1.62c-1,5-5.88,9.66-13.5,9.66-8.7,0-15.42-5.88-15.42-16.62,0-8.46,3.66-16.2,14.64-16.2,11.22,0,14.1,7.68,14.28,13.56,0,1.32-.06,3.66-.54,4.56l-21.54.18c.66,5.94,4.38,8.88,8.46,8.88A7.08,7.08,0,0,0,378.17,44.9Zm-15.66-8.7,15.66-.12c0-3.42-2.88-7.14-7.92-7.14C365.51,28.94,363.17,31.46,362.51,36.2Z" transform="translate(0)"></path>
    <g id="logomark">
      <path class="cls-1" d="M39.27,18.18a19.66,19.66,0,1,0-21.1,21.09V18.18Z" transform="translate(0)"></path>
      <path class="cls-1" d="M39.27,21.18H21.17V39.27A19.64,19.64,0,0,0,39.27,21.18Z" transform="translate(0)"></path>
      <path class="cls-1" d="M60.53,39.27a19.66,19.66,0,1,0-21.1-21.09h21.1Z" transform="translate(0)"></path>
      <path class="cls-1" d="M57.53,39.27V21.18H39.43A19.64,19.64,0,0,0,57.53,39.27Z" transform="translate(0)"></path>
      <path class="cls-1" d="M18.17,39.43a19.66,19.66,0,1,0,21.1,21.1H18.17Z" transform="translate(0)"></path>
      <path class="cls-1" d="M21.17,39.43v18.1h18.1A19.65,19.65,0,0,0,21.17,39.43Z" transform="translate(0)"></path>
      <path class="cls-1" d="M60.53,39.43v21.1H39.43a19.66,19.66,0,1,0,21.1-21.1Z" transform="translate(0)"></path>
      <path class="cls-1" d="M39.43,57.53h18.1V39.43A19.65,19.65,0,0,0,39.43,57.53Z" transform="translate(0)"></path>
    </g>
  </g>
</svg>
