<?xml version="1.0" encoding="UTF-8"?>
<svg xmlns="http://www.w3.org/2000/svg" viewBox="0 0 696.44 132.56">
  <title>SP_Landscape Long Logo_CMYK</title>
  <path fill="#ed1c24" d="M163.25 0l-90.45 107.73.02-80.41h-72.82v10.85h36.58l.03 94.39h27.53l88.39-105.24h62.85l22.99-27.32h-75.12z"></path>
  <path d="M414.39 424.66a15.67 15.67 0 0 0-6.18-1.31c-2.09 0-4.79.92-4.79 4.23 0 5.27 13.32 3 13.32 13.24 0 6.66-5.27 9.18-11.41 9.18a26.73 26.73 0 0 1-7.79-1.17l.57-5.49a14.68 14.68 0 0 0 6.88 1.87c2.3 0 5.4-1.17 5.4-3.92 0-5.79-13.33-3.39-13.33-13.45 0-6.8 5.27-9.28 10.63-9.28a22.94 22.94 0 0 1 7.27 1.09zm19.61-5.58h6.1v30.4h-6.1zm24.83 0h6.09v25.61h11.8v4.79h-17.94zm26.88 0h6.53l7.76 23.92h.08l7.71-23.87h6.05l-10.23 30.4h-7.49zm44.34 0h17.94v4.79h-11.9v7.49h10.85v4.79h-10.85v8.54h11.91v4.79h-18zm35.88 0h6.58c6.53 0 14.33-.21 14.33 8.24a7 7 0 0 1-6.27 7.05v.09c1.65.13 2.61 1.78 3.22 3.13l4.88 11.89h-6.8l-3.71-9.48c-.87-2.27-1.65-3.14-4.22-3.14h-2v12.63h-6.1zm6.1 13h2c3 0 6.45-.43 6.45-4.22s-3.4-4-6.45-4h-2zm49.56-7.4a15.67 15.67 0 0 0-6.18-1.31c-2.09 0-4.79.92-4.79 4.23 0 5.27 13.33 3 13.33 13.24 0 6.66-5.27 9.18-11.41 9.18a26.85 26.85 0 0 1-7.8-1.17l.57-5.49a14.68 14.68 0 0 0 6.88 1.87c2.31 0 5.4-1.17 5.4-3.92 0-5.79-13.33-3.39-13.33-13.45 0-6.8 5.27-9.28 10.63-9.28a22.94 22.94 0 0 1 7.27 1.09zm25.61-.79h-8.71v-4.79h23.51v4.79h-8.71v25.61h-6.1zm44.3-5.31c9.53 0 14.89 6.45 14.89 15.64s-5.32 15.78-14.94 15.78-14.9-6.48-14.9-15.8 5.23-15.64 14.9-15.64zm0 26.65c6.23 0 8.53-5.53 8.53-11s-2.48-10.85-8.53-10.85-8.54 5.49-8.54 10.85 2.26 10.98 8.49 10.98zm32.36-26.13h7.49l11.58 22.74h.07v-22.76h5.84v30.4h-7.45l-11.63-22.73h-.08v22.73h-5.84zm44 0h17.84v4.79h-11.85v7.49h10.85v4.79h-10.85v8.54h11.94v4.79h-18zm36.62 0h7.5c5.7 0 9.4 2.88 9.4 8.63s-4.27 8.62-9.71 8.62h-4.18v13.15h-3zm3 14.64h2.09c4.53 0 8.8-.53 8.8-6 0-3.84-2.18-6-6-6h-4.88zm37-14.64h3.4l12.06 30.4h-3.13l-3.27-8.14h-15.4l-3.27 8.14h-2.87zm1.48 2.88l-6.62 16.76h13.2zm30.58-2.88h7.84c5.4 0 8.92 2.31 8.92 7.89 0 3.92-3 6.53-6.75 7v.09c2.44.3 3 1.61 3.92 3.65l5.19 11.76h-3.31l-4.4-10.28c-1.75-3.92-3-4.05-5.93-4.05h-2.48v14.33h-3zm3 13.46h3.18c3.53 0 7.58-1.35 7.58-5.57 0-5-3.53-5.27-7.67-5.27h-3.09zm33.71-13.46h3v13.63l13.67-13.63h3.92l-14.72 14.33 16 16.07h-4.13l-14.72-15.2v15.2h-3zm28 .7h-1.76v-.71h4.32v.71h-1.81v4.93h-.81zm3.38-.71h1.34l1.77 4.69 1.74-4.69h1.33v5.64h-.81v-4.88l-1.87 4.88h-.79l-1.87-4.88v4.88h-.81z" transform="translate(-254.34 -354.81)" fill="#797c82"></path>
</svg>
