<?xml version="1.0" encoding="UTF-8"?>
<svg width="1440px" height="893px" viewBox="0 0 1440 893" version="1.1" xmlns="http://www.w3.org/2000/svg" xmlns:xlink="http://www.w3.org/1999/xlink">
    <!-- Generator: Sketch 42 (36781) - http://www.bohemiancoding.com/sketch -->
    <title>banner</title>
    <desc>Created with Sketch.</desc>
    <defs></defs>
    <g id="3.6.2" stroke="none" stroke-width="1" fill="none" fill-rule="evenodd">
        <g id="Home---Desktop-HD">
            <g id="Group" transform="translate(-80.000000, -83.000000)">
                <g id="banner">
                    <rect id="Mask" fill="#34232D" x="0" y="62" width="1600" height="750"></rect>
                    <path d="M34,906.257812 C104.976562,846.347656 865.816406,0 865.816406,0 L1635.08984,71.046875 C1635.08984,71.046875 1658.95312,526.464844 1658.95312,535.300781 C1658.95312,544.136719 1712.05859,983.496094 1703.99609,983.496094 C1695.93359,983.496094 34,906.257812 34,906.257812 Z" id="Path-2" fill="#A61547"></path>
                    <path d="M667.5,906.257812 C738.476562,846.347656 1499.31641,0 1499.31641,0 L2268.58984,71.046875 C2268.58984,71.046875 2292.45312,526.464844 2292.45312,535.300781 C2292.45312,544.136719 2345.55859,983.496094 2337.49609,983.496094 C2329.43359,983.496094 667.5,906.257812 667.5,906.257812 Z" id="Path-2-Copy" fill="#8F1F45"></path>
                    <path d="M845,906.257812 C915.976562,846.347656 1676.81641,0 1676.81641,0 L2446.08984,71.046875 C2446.08984,71.046875 2469.95312,526.464844 2469.95312,535.300781 C2469.95312,544.136719 2523.05859,983.496094 2514.99609,983.496094 C2506.93359,983.496094 845,906.257812 845,906.257812 Z" id="Path-2-Copy-2" fill="#522037"></path>
                    <g id="MKGN-V2-primary" transform="translate(28.000000, 199.000000)" stroke-width="1">
                        <g>
                            <polyline id="Fill-1" fill="#8F1E45" points="181.795255 239.588058 83.5628009 131.525854 83.5628009 8.80605385 181.795255 117.002927 181.795255 239.588058"></polyline>
                            <polygon id="Fill-2" fill="#DE406F" points="280.027709 418.147962 362.727589 418.147962 362.727589 8.80605385 280.027709 8.80605385"></polygon>
                            <polyline id="Fill-3" fill="#DE406F" points="83.5628009 8.80605385 0.862920771 8.80605385 0.862920771 316.604077 83.5628009 225.539758 83.5628009 8.80605385"></polyline>
                            <polyline id="Fill-4" fill="#8E1E45" points="0.862920771 316.604077 0.862920771 418.147962 83.5628009 418.147962 83.5628009 225.539758 0.862920771 316.604077"></polyline>
                            <polyline id="Fill-5" fill="#522036" points="181.795255 239.588058 280.027709 131.525854 280.027709 8.80605385 181.795255 117.002927 181.795255 239.588058"></polyline>
                            <polyline id="Fill-6" fill="#8F1E45" points="415.76746 8.80605385 415.76746 267.201819 498.46734 176.104654 498.46734 8.80605385 415.76746 8.80605385"></polyline>
                            <polyline id="Fill-7" fill="#34232C" points="415.76746 418.147962 498.46734 418.147962 498.46734 176.104654 415.76746 267.201819 415.76746 418.147962"></polyline>
                            <polyline id="Fill-8" fill="#DE406F" points="415.76746 389.635858 762.345867 8.37741154 650.552994 8.63853846 415.76746 267.170615 415.76746 389.635858"></polyline>
                            <polyline id="Fill-9" fill="#DE406F" points="1461.16457 418.147962 1264.698 131.525854 1264.698 8.80605385 1461.16457 295.564473 1461.16457 418.147962"></polyline>
                            <polyline id="Fill-10" fill="#522036" points="1181.99812 8.80605385 1181.99812 316.604077 1264.698 225.539758 1264.698 8.80605385 1181.99812 8.80605385"></polyline>
                            <polyline id="Fill-11" fill="#8E1E45" points="1181.99812 418.147962 1181.99812 316.604077 1181.99812 418.147962"></polyline>
                            <polyline id="Fill-12" fill="#8F1E45" points="1181.99812 418.147962 1264.698 418.147962 1264.698 225.539758 1181.99812 316.604077 1181.99812 418.147962"></polyline>
                            <polyline id="Fill-13" fill="#1A1918" points="1461.16291 418.147962 1543.86445 418.147962 1543.86445 109.921296 1461.16291 200.985615 1461.16291 418.147962"></polyline>
                            <polyline id="Fill-14" fill="#34232C" points="1461.16291 8.37741154 1461.16291 200.985615 1461.16291 8.80605385 1543.86445 8.80605385 1543.86445 8.37741154 1461.16291 8.37741154"></polyline>
                            <polyline id="Fill-15" fill="#34232C" points="1461.16291 200.985615 1543.86445 109.921296 1543.86445 8.80605385 1461.16291 8.80605385 1461.16291 200.985615"></polyline>
                            <path d="M1054.58176,38.3331038 C1019.94921,15.1355077 978.105816,1.57333077 933.042176,1.57333077 C813.651632,1.57333077 716.867298,96.7598423 716.867298,214.178273 C716.867298,331.595062 813.651632,426.781573 933.042176,426.781573 C1038.37802,426.781573 1125.89009,352.644519 1145.08594,254.557692 L1145.04462,172.407819 L1060.01221,172.489935 C1064.4574,185.590623 1066.86433,199.607719 1066.86433,214.178273 C1066.86433,286.865169 1006.94919,345.789527 933.042176,345.789527 C859.133507,345.789527 799.220026,286.865169 799.220026,214.178273 C799.220026,141.489735 859.133507,82.5653769 933.042176,82.5653769 C956.927889,82.5653769 979.35391,88.7223885 998.766321,99.5057808 L1054.58176,38.3331038" id="Fill-16" fill="#34232C"></path>
                            <path d="M933.042176,82.5653769 C956.927889,82.5653769 979.352257,88.7223885 998.766321,99.5057808 L1054.58176,38.3331038 C1019.94921,15.1355077 978.105816,1.57333077 933.042176,1.57333077 C813.651632,1.57333077 716.867298,96.7598423 716.867298,214.178273 C716.867298,236.071877 720.236325,257.191954 726.486715,277.068804 L800.588797,195.470746 C809.828,131.647385 865.593842,82.5653769 933.042176,82.5653769" id="Fill-17" fill="#522036"></path>
                            <path d="M933.042176,1.57333077 C904.020266,1.57333077 876.34233,7.21301538 851.059743,17.4133885 C790.124642,41.99545 743.131829,93.1451231 725.000574,156.221235 C719.704026,174.646285 716.867298,194.086281 716.867298,214.178273 C716.867298,236.073519 720.236325,257.191954 726.486715,277.068804 L800.588797,195.470746 C808.241019,142.606504 847.829576,99.8851538 899.52382,86.7631154 L973.564737,5.31450769 C960.43743,2.86582692 946.893542,1.57333077 933.042176,1.57333077" id="Fill-18" fill="#8F1E45"></path>
                            <path d="M799.220026,214.178273 C799.220026,207.824185 799.704385,201.583415 800.588797,195.470746 L726.486715,277.068804 C735.340745,305.229454 749.987255,330.885585 769.054167,352.697073 L824.7357,291.443923 C808.702236,269.742469 799.220026,243.054969 799.220026,214.178273" id="Fill-19" fill="#DE406F"></path>
                            <polyline id="Fill-20" fill="#8F1E45" points="1067.54045 172.397965 957.18412 172.397965 957.18412 254.557692 992.853165 254.557692 1067.54045 172.397965"></polyline>
                            <polyline id="Fill-21" fill="#DE406F" points="1135.72937 172.397965 1067.54045 172.397965 992.853165 254.557692 1061.04209 254.557692 1135.72937 172.397965"></polyline>
                            <polyline id="Fill-22" fill="#522036" points="576.05582 213.30785 520.400737 274.531438 650.552994 417.886835 762.345867 418.147962 576.097148 213.261865 576.05582 213.30785"></polyline>
                        </g>
                    </g>
                </g>
            </g>
        </g>
    </g>
</svg>