<svg viewBox="0 0 1440 680" xmlns="http://www.w3.org/2000/svg"><title>bg-home</title><desc>Created with Sketch.</desc><defs><path d="M0 0h1440v680h-1440z"/></defs><g fill="none"><path fill="#34232D" d="M-80-22h1600v750h-1600z"/><path d="M-46 822.258c70.977-59.91 831.816-906.258 831.816-906.258l769.273 71.047s23.863 455.418 23.863 464.254c0 8.836 53.105 448.195 45.043 448.195-8.063 0-1669.996-77.238-1669.996-77.238z" fill="#A61547"/><path d="M587.5 822.258c70.977-59.91 831.816-906.258 831.816-906.258l769.273 71.047s23.863 455.418 23.863 464.254c0 8.836 53.105 448.195 45.043 448.195-8.063 0-1669.996-77.238-1669.996-77.238z" fill="#8F1F45"/><path d="M765 822.258c70.977-59.91 831.816-906.258 831.816-906.258l769.273 71.047s23.863 455.418 23.863 464.254c0 8.836 53.105 448.195 45.043 448.195-8.063 0-1669.996-77.238-1669.996-77.238z" fill="#522037"/><g><path fill="#8F1E45" d="M129.795 354.588l-98.232-108.062v-122.72l98.232 108.197v122.585"/><path fill="#DE406F" d="M228.028 533.148h82.7v-409.342h-82.7z"/><path fill="#DE406F" d="M31.563 123.806h-82.7v307.798l82.7-91.064v-216.734"/><path fill="#8E1E45" d="M-51.137 431.604v101.544h82.7v-192.608l-82.7 91.064"/><path fill="#522036" d="M129.795 354.588l98.232-108.062v-122.72l-98.232 108.197v122.585"/><path fill="#8F1E45" d="M363.767 123.806v258.396l82.7-91.097v-167.299h-82.7"/><path fill="#34232C" d="M363.767 533.148h82.7v-242.043l-82.7 91.097v150.946"/><path fill="#DE406F" d="M363.767 504.636l346.578-381.258-111.793.261-234.786 258.532v122.465"/><path fill="#DE406F" d="M1409.165 533.148l-196.467-286.622v-122.72l196.467 286.758v122.583"/><path fill="#522036" d="M1129.998 123.806v307.798l82.7-91.064v-216.734h-82.7"/><path fill="#8E1E45" d="M1129.998 533.148v-101.544 101.544"/><path fill="#8F1E45" d="M1129.998 533.148h82.7v-192.608l-82.7 91.064v101.544"/><path fill="#1A1918" d="M1409.163 533.148h82.702v-308.227l-82.702 91.064v217.162"/><path fill="#34232C" d="M1409.163 123.377v192.608-192.18h82.702v-.429h-82.702"/><path fill="#34232C" d="M1409.163 315.986l82.702-91.064v-101.115h-82.702v192.18"/><path d="M1002.582 153.333c-34.633-23.198-76.476-36.76-121.54-36.76-119.391 0-216.175 95.187-216.175 212.605 0 117.417 96.784 212.603 216.175 212.603 105.336 0 192.848-74.137 212.044-172.224l-.041-82.15-85.032.082c4.445 13.101 6.852 27.118 6.852 41.688 0 72.687-59.915 131.611-133.822 131.611-73.909 0-133.822-58.924-133.822-131.611 0-72.689 59.913-131.613 133.822-131.613 23.886 0 46.312 6.157 65.724 16.94l55.815-61.173" fill="#34232C"/><path d="M881.042 197.565c23.886 0 46.31 6.157 65.724 16.94l55.815-61.173c-34.633-23.198-76.476-36.76-121.54-36.76-119.391 0-216.175 95.187-216.175 212.605 0 21.894 3.369 43.014 9.619 62.891l74.102-81.598c9.239-63.823 65.005-112.905 132.453-112.905" fill="#522036"/><path d="M881.042 116.573c-29.022 0-56.7 5.64-81.982 15.84-60.935 24.582-107.928 75.732-126.059 138.808-5.297 18.425-8.133 37.865-8.133 57.957 0 21.895 3.369 43.014 9.619 62.891l74.102-81.598c7.652-52.864 47.241-95.586 98.935-108.708l74.041-81.449c-13.127-2.449-26.671-3.741-40.523-3.741" fill="#8F1E45"/><path d="M747.22 329.178c0-6.354.484-12.595 1.369-18.708l-74.102 81.598c8.854 28.161 23.501 53.817 42.567 75.628l55.682-61.253c-16.033-21.701-25.516-48.389-25.516-77.266" fill="#DE406F"/><path fill="#8F1E45" d="M1015.54 287.398h-110.356v82.16h35.669l74.687-82.16"/><path fill="#DE406F" d="M1083.729 287.398h-68.189l-74.687 82.16h68.189l74.687-82.16"/><path fill="#522036" d="M524.056 328.308l-55.655 61.224 130.152 143.355 111.793.261-186.249-204.886-.041.046"/></g></g></svg>