<svg xmlns="http://www.w3.org/2000/svg" viewBox="0 0 246.24 187.65"><defs><linearGradient id="a" x1="94.42" y1="51.89" x2="255.83" y2="51.89" gradientTransform="translate(-9.06 16.77) rotate(-3.7)" gradientUnits="userSpaceOnUse"><stop offset=".16" stop-color="#ffce3d"/><stop offset=".25" stop-color="#fec53b"/><stop offset=".41" stop-color="#faad35"/><stop offset=".6" stop-color="#f5852c"/><stop offset=".74" stop-color="#f06424"/></linearGradient><linearGradient id="b" x1="6.41" y1="91.41" x2="204.48" y2="91.41" gradientTransform="translate(-9.06 16.77) rotate(-3.7)" gradientUnits="userSpaceOnUse"><stop offset=".16" stop-color="#ffd777"/><stop offset=".74" stop-color="#f06424"/></linearGradient></defs><title>BIW</title><path d="M33.39 145.79h12.37a5.37 5.37 0 0 1 4.07 1.21 4.8 4.8 0 0 1 1.5 3.58 5 5 0 0 1-.78 2.72 3.87 3.87 0 0 1-2.21 1.48 4.42 4.42 0 0 1 1.38.35 4.79 4.79 0 0 1 2.47 4.5 5.37 5.37 0 0 1-1.58 4 6 6 0 0 1-3.91 1.15h-13.31zm1.67 8.27h10.45a4.23 4.23 0 0 0 3.2-1 3.29 3.29 0 0 0 .87-2.34 3.41 3.41 0 0 0-1.26-2.8 4.7 4.7 0 0 0-2.55-.57h-10.71zm0 9.16h11.62a3.75 3.75 0 0 0 3-1.1 3.87 3.87 0 0 0 .82-2.48 3.81 3.81 0 0 0-1-2.75c-1-1.19-3.25-1.21-4.15-1.21h-10.29z" transform="translate(-4.21 -2.84)" fill="#414042"/><path d="M56.37 142.95h1.62v19h-1.62z" fill="#414042"/><path d="M34.61 170.58l4.45 15.25c.15.52.37 1.26.62 2.22.74-2.69.91-3.24 1.58-5.32l3.8-12.15h1.8l4.76 15c.27.88.42 1.37.72 2.5.35-1.4.45-1.79.89-3.32l4-14.15h1.67l-5.53 19.39h-2l-4.86-15.55a11.3 11.3 0 0 1-.51-1.95c-.27.93-.32 1-.59 2l-4.83 15.5h-2l-5.78-19.39zM84.93 180.23a10 10 0 0 1-10.42 10.26c-6.1 0-10.17-4.36-10.17-10.23a9.9 9.9 0 0 1 10.35-10.26c6.91.06 10.24 5.27 10.24 10.23zm-18.76.11c0 5.32 3.7 8.5 8.49 8.5 4.62 0 8.37-3.1 8.37-8.73a8.47 8.47 0 0 0-3.06-6.8 9.37 9.37 0 0 0-5.83-1.64c-5.57.33-7.97 4.64-7.97 8.68zM104.84 170.61a7.14 7.14 0 0 1 3.83.74 5.85 5.85 0 0 1 .52 8.67 7.15 7.15 0 0 1-4.52 1.32l7 8.64h-2.34l-6.89-8.64h-8v8.66h-1.65v-19.39zm-10.37 9.08h9.35c1.78 0 3.36-.05 4.37-1.26a4.17 4.17 0 0 0 .84-2.6 3.71 3.71 0 0 0-1.19-2.85 4.23 4.23 0 0 0-3-.77h-10.37z" transform="translate(-4.21 -2.84)" fill="#808083"/><path d="M116.43 167.77v17.74h12.69v1.65h-14.4v-19.39z" fill="#808083"/><path d="M140.41 170.61h8.71a8.86 8.86 0 0 1 4.64.93c3.23 1.75 4.5 5.43 4.5 8.8 0 3.73-1.46 6.55-3.53 8.06a10.45 10.45 0 0 1-6.42 1.56h-7.9zm1.73 17.74h5.55c2.32 0 4.86 0 6.74-1.89a8.32 8.32 0 0 0 2-6 9.76 9.76 0 0 0-1.53-5.54 6.45 6.45 0 0 0-5.8-2.69h-7zM165.52 170.58l4.48 15.25c.15.52.37 1.26.62 2.22.74-2.69.91-3.24 1.58-5.32l3.8-12.15h1.8l4.76 15c.27.88.42 1.37.72 2.5.35-1.4.44-1.79.89-3.32l4-14.15h1.65l-5.53 19.39h-2l-4.86-15.55a11.78 11.78 0 0 1-.52-1.92c-.27.93-.32 1-.59 2l-4.82 15.47h-2l-5.77-19.39z" transform="translate(-4.21 -2.84)" fill="#808083"/><path d="M192.5 167.77h1.65v19.39h-1.65z" fill="#808083"/><path d="M207.17 170.61h8.72a8.87 8.87 0 0 1 4.64.93c3.23 1.75 4.49 5.43 4.49 8.8 0 3.73-1.46 6.55-3.53 8.06a10.45 10.45 0 0 1-6.42 1.56h-7.9zm1.73 17.74h5.55c2.32 0 4.86 0 6.74-1.89a8.31 8.31 0 0 0 2-6 9.75 9.75 0 0 0-1.53-5.54 6.45 6.45 0 0 0-5.8-2.69h-7z" transform="translate(-4.21 -2.84)" fill="#808083"/><path d="M228.84 167.77h16.69v1.62h-15v6.77h13.86v1.62h-13.85v7.73h15.7v1.65h-17.4z" fill="#808083"/><path fill="url(#a)" d="M151.24 94.94l50.47 12.47 44.51-107.41-94.98 94.94z"/><path fill="url(#b)" d="M0 57.61l94.26 94.27.05-.02 56.93-56.92-151.24-37.33z"/><path fill="#f06424" d="M94.31 151.86l107.4-44.45-50.47-12.47-56.93 56.92z"/></svg>