<svg xmlns="http://www.w3.org/2000/svg" viewBox="0 0 933.4 258.91"><title>MKGN-V2-primary</title><path fill="#a61547" d="M109.45 144.93l-59.42-65.8v-74.73l59.42 65.88v74.65z"/><path d="M168.88 4.4h50v249.25h-50zM50.03 4.4h-50.03v187.42l50.03-55.45v-131.97z" fill="#e83973"/><path fill="#a61547" d="M0 191.82v61.83h50.03v-117.28l-50.03 55.45z"/><path fill="#6d2442" d="M109.45 144.93l59.42-65.8v-74.73l-59.42 65.88v74.65z"/><path fill="#a61547" d="M250.99 4.4v157.34l50.02-55.47v-101.87h-50.02z"/><path fill="#482a39" d="M250.99 253.65h50.02v-147.38l-50.02 55.47v91.91z"/><path fill="#e83973" d="M250.99 236.29l96.96-107.36 112.69-124.79-67.63.16-142.02 157.42v74.57zM883.37 253.65l-118.85-174.52v-74.73l118.85 174.61v74.64z"/><path fill="#6d2442" d="M714.5 4.4v187.42l50.02-55.45v-131.97h-50.02z"/><rect x="714.5" y="191.82" height="61.83" fill="#a61547"/><path fill="#a61547" d="M714.5 253.65h50.02v-117.28l-50.02 55.45v61.83z"/><path fill="#1d1d1b" d="M883.37 253.65h50.03v-187.68l-50.03 55.45v132.23z"/><path fill="#492a39" d="M883.37 4.14v117.28-117.02h50.03v-.26h-50.03z"/><path fill="#482a39" d="M883.37 121.42l50.03-55.45v-61.57h-50.03v117.02z"/><path d="M612.18 64.84a81.22 81.22 0 0 0-39.76-10.31c-44.71 0-81 35.88-81 80.14s36.24 80.14 81 80.14 81-35.88 81-80.14a79.32 79.32 0 0 0-4.14-25.38" transform="translate(-8.52 -5.21)" fill="none"/><path d="M645.94 27.59a131.09 131.09 0 0 0-73.52-22.38c-72.22 0-130.77 58-130.77 129.45s58.55 129.46 130.77 129.46c63.72 0 116.66-45.14 128.27-104.87v-50l-51.44.05a79.32 79.32 0 0 1 4.14 25.38c0 44.26-36.24 80.14-81 80.14s-81-35.88-81-80.14 36.24-80.14 81-80.14a81.22 81.22 0 0 1 39.76 10.31z" transform="translate(-8.52 -5.21)" fill="#482a39"/><path d="M572.42 54.52a81.22 81.22 0 0 1 39.76 10.31l33.76-37.25a131.09 131.09 0 0 0-73.52-22.37c-72.22 0-130.77 58-130.77 129.45a128.22 128.22 0 0 0 5.82 38.34l44.83-49.68c5.58-38.91 39.32-68.8 80.12-68.8z" transform="translate(-8.52 -5.21)" fill="#6d2442"/><path d="M572.42 5.21a130.77 130.77 0 0 0-125.85 94.16 129 129 0 0 0 .9 73.58l44.83-49.68a80.5 80.5 0 0 1 59.85-66.19l44.78-49.59a132.74 132.74 0 0 0-24.51-2.28z" transform="translate(-8.52 -5.21)" fill="#a61547"/><path d="M491.47 134.66a80 80 0 0 1 .83-11.39l-44.83 49.73a128.85 128.85 0 0 0 25.75 46l33.68-37.3a79.22 79.22 0 0 1-15.43-47.04z" transform="translate(-8.52 -5.21)" fill="#e83973"/><path fill="#a61547" d="M645.26 104.02h-66.76v50.02h21.58l22.68-25.11 22.5-24.91z"/><path fill="#e83973" d="M686.51 104.02h-41.25l-22.5 24.91-22.68 25.11h41.25l22.68-25.11 22.5-24.91z"/><path fill="#6d2442" d="M347.95 128.93l-33.67 37.27 78.73 87.29 67.63.16-112.67-124.75-.02.03z"/></svg>