<svg id="MKGN" xmlns="http://www.w3.org/2000/svg" viewBox="0 0 932.56 258.67"><title>MKGN-V2-white</title><path d="M178.08,9.73h50v249h-50V84.38l-59.37,65.74L59.34,84.38v57.19L9.36,197V9.73h50l59.37,65.82Zm269.83,163.2,44.79-49.64C498.28,84.46,532,54.6,572.75,54.6a81.14,81.14,0,0,1,39.72,10.31l33.73-37.21A131,131,0,0,0,572.75,5.33c-72.16,0-130.65,57.91-130.65,129.34A128.1,128.1,0,0,0,447.91,172.93Zm139.43-13.7H608.9l22.66-25.09L654,109.25h-66.7ZM891.94,9.47V184.18L773.2,9.73h-50V197l50-55.4V84.38L891.94,258.75h50V9.47Zm-196.7,99.79-22.47,24.88-22.66,25.09h-.38a81.22,81.22,0,0,1-142.45,22.44h0l-33.65,37.26A130.9,130.9,0,0,0,572.75,264c63.66,0,116.55-45.1,128.16-104.77l0-50ZM469.59,9.47,402,9.63l-92,102,.07-.07V9.73h-50V241.41L357,134.14ZM357,134.14l-33.64,37.25L402,258.59l67.56.16L357,134.11Z" transform="translate(-9.36 -5.33)" fill="#fff"/></svg>