<svg xmlns="http://www.w3.org/2000/svg" viewBox="0 0 120.19 82.2"><title>ou_cmyk_masterlogo_29mm</title><path d="M95.63 26.74c-1.78 0-3.32.3-3.32 2.25a5.11 5.11 0 0 0 .48 2.26h5.71a5.69 5.69 0 0 0 .45-2.25c0-2-1.53-2.26-3.32-2.26zm-4.94 5.19l.55-.2a6.16 6.16 0 0 1-.81-2.89c0-3.37 2.1-4.17 5.2-4.17s5.2 1 5.2 4.33a5.3 5.3 0 0 1-.54 2.26h3.4v2h-13z" transform="translate(-4.91 -2.77)" fill="#1d1d1b"/><path fill="#1d1d1b" d="M95.65 76.07v2.1h-11.37v3.69h-1.91v-9.51h1.91v3.72h11.37z"/><path d="M93.54 67.12c-.93 0-1.23.74-1.23 1.67a5.74 5.74 0 0 0 .48 2.38h7.79v2h-13.29v-2h3.78a6.72 6.72 0 0 1-.63-2.62c0-2.47 1.18-3.47 3.18-3.47h7v2z" transform="translate(-4.91 -2.77)" fill="#1d1d1b"/><path d="M89.01 41.35c2.77 0 5-.46 5-3.23s-2.22-3.19-5-3.19-5 .45-5 3.22 2.22 3.21 5 3.21zm0 2.2c-3.61 0-6.91-1.06-6.91-5.42s3.31-5.4 6.91-5.4 6.9 1 6.91 5.4-3.31 5.41-6.91 5.41z" fill="#1d1d1b"/><path d="M92.3 7.69c0-.23 0-1.62 1.27-1.62h7v-2.07h-7c-2 0-3.18 1-3.18 3.47a6.12 6.12 0 0 0 .81 3l-.55.2v1.37h9.88v-2.04h-7.75a5.44 5.44 0 0 1-.48-2.31zM94.82 20.72v-4.3c-1.31 0-2.7.34-2.7 2s1.13 2.22 2.7 2.31zm1.68 0c1.72-.15 2.41-.91 2.41-2.89a9.47 9.47 0 0 0-.56-3h1.8a9.17 9.17 0 0 1 .66 3.52c0 3.41-2.08 4.5-5.2 4.5s-5.2-1.2-5.2-4.5c0-3.49 2.55-4 5.29-4h.79v6.39zM94.91 61v-4.3c-1.32 0-2.7.34-2.7 2s1.13 2.3 2.7 2.3zm1.59 0c1.72-.16 2.41-.92 2.41-2.89a9.47 9.47 0 0 0-.56-3h1.8a9.2 9.2 0 0 1 .66 3.52c0 3.41-2.08 4.5-5.2 4.5s-5.2-1.2-5.2-4.5c0-3.49 2.55-4 5.29-4h.79v6.4z" transform="translate(-4.91 -2.77)" fill="#1d1d1b"/><path d="M103.75 73.75h8.42c3 0 3.21 1.78 3.21 2.89s-.23 2.88-3.21 2.87h-8.42v2h8.68c4.27 0 4.94-3.05 4.94-4.91s-.67-4.92-4.94-4.92h-8.68z" fill="#1d1d1b"/><path d="M109.22 60.37a1.34 1.34 0 1 1-1.35 1.34 1.33 1.33 0 0 1 1.35-1.34zM120.08 62.72h-8v-2h7.79c.35 0 .51 0 .51-.56v-.35h1.79a7.51 7.51 0 0 1 0 .95c.07 1.15-.51 1.96-2.09 1.96zM120.08 23.35h-8v-2h7.79c.35 0 .51 0 .51-.56v-.34h1.79a6.87 6.87 0 0 1 0 .94c.07 1.14-.51 1.96-2.09 1.96z" transform="translate(-4.91 -2.77)" fill="#1d1d1b"/><path fill="#1d1d1b" d="M107.2 48.9l-.01-2.2 10.14 3.84v1.66l-10.14 3.86v-2.22l7.7-2.46-7.69-2.48z"/><path d="M116.24 42.52c-1.31 0-2.7.33-2.7 2s1.13 2.2 2.7 2.29zm1.69 4.23c1.73-.16 2.41-.9 2.41-2.83a9 9 0 0 0-.55-2.94h1.8a8.75 8.75 0 0 1 .66 3.44c0 3.33-2.08 4.38-5.19 4.38s-5.2-1.17-5.2-4.38c0-3.4 2.55-3.92 5.29-3.91h.79zM113.88 33.38a7.59 7.59 0 0 0-.1 1.36 4.45 4.45 0 0 0 .41 1.92h7.81v2h-9.91v-1.33l.55-.2a4.63 4.63 0 0 1-.78-2.44 6.52 6.52 0 0 1 .08-1.31zM119 25c1.58 0 3.23 1 3.23 4a10 10 0 0 1-.55 3.09h-1.92a9.34 9.34 0 0 0 .59-3.12c0-1.58-.67-2-1.34-2s-1.09.23-1.23 1.76c-.26 2.89-1.35 3.48-2.81 3.48s-3.14-.91-3.14-3.75a7.37 7.37 0 0 1 .58-3h1.87a9.05 9.05 0 0 0-.57 3c0 1.5.56 1.82 1.26 1.82s.87-.29 1-1.78c.29-2.85 1.3-3.5 3.03-3.5zM122.11 13.15a10.32 10.32 0 0 1 .13 1.87 2.56 2.56 0 0 1-2.77 2.84h-5.63v1.71h-1.63l-.11-1.71h-2.49l-.28-2h2.77v-2.7h1.74v2.71h5.39c.83 0 1.14-.45 1.14-1.47a11 11 0 0 0-.07-1.25z" transform="translate(-4.91 -2.77)" fill="#1d1d1b"/><path fill="#1d1d1b" d="M114.33 4.56l-7.14-2.46v-2.1l13 5.01v1.91l-3.59-1.39-9.41 3.42v-2.25l7.14-2.14z"/><path d="M113.74 68.17c0-.23 0-1.58 1.26-1.58h7v-2h-7c-2 0-3.18 1-3.18 3.39a5.86 5.86 0 0 0 .81 2.93l-.55.19v1.34h9.92v-2h-7.79a5.23 5.23 0 0 1-.47-2.27zM109.22 20.83a1.34 1.34 0 1 1-1.35 1.34 1.33 1.33 0 0 1 1.35-1.34z" transform="translate(-4.91 -2.77)" fill="#1d1d1b"/><path d="M70.53 3.3h-61.45c-1.91 0-4.17 1.86-4.17 3.81v44.51c0 19.55 15.57 33.38 34.76 33.38 19.8 0 34.76-14.36 34.76-33.35v-44.1a4.08 4.08 0 0 0-3.9-4.25zm-25.92 31.44a14.86 14.86 0 0 1-8.46 7.7 15.82 15.82 0 0 1-1.9.54 15 15 0 1 1 10.36-8.25z" transform="translate(-4.91 -2.77)" fill="#58a0d3"/></svg>