<?xml version="1.0" standalone="no"?>
<!DOCTYPE svg PUBLIC "-//W3C//DTD SVG 20010904//EN"
 "http://www.w3.org/TR/2001/REC-SVG-20010904/DTD/svg10.dtd">
<svg version="1.0" xmlns="http://www.w3.org/2000/svg"
 width="3200.000000pt" height="1600.000000pt" viewBox="0 0 3200.000000 1600.000000"
 preserveAspectRatio="xMidYMid meet">
<metadata>
Created by potrace 1.14, written by Peter Selinger 2001-2017
</metadata>
<g transform="translate(0.000000,1600.000000) scale(0.100000,-0.100000)"
fill="#000000" stroke="none">
<path d="M31080 11164 c-79 -20 -187 -76 -244 -126 -64 -55 -122 -145 -148
-231 -26 -86 -21 -213 10 -294 61 -160 213 -285 396 -328 274 -63 561 61 671
289 61 128 60 286 -3 416 -59 123 -214 239 -363 275 -80 19 -246 18 -319 -1z
m253 -68 c296 -57 452 -337 333 -599 -52 -111 -181 -210 -314 -238 -76 -15
-224 -6 -282 18 -124 51 -211 129 -258 230 -23 51 -26 71 -26 168 -1 99 2 116
26 167 65 140 179 224 349 257 65 13 90 12 172 -3z"/>
<path d="M31020 10674 l0 -295 53 3 52 3 2 120 1 120 54 3 53 2 88 -125 88
-125 54 0 c30 0 55 3 55 6 0 3 -38 59 -85 124 -47 65 -85 121 -85 124 0 3 18
10 40 16 84 23 125 84 118 175 -4 46 -10 62 -37 89 -47 48 -86 56 -280 56
l-171 0 0 -296z m336 204 c36 -17 53 -51 45 -90 -11 -53 -43 -68 -164 -75 -77
-4 -107 -3 -107 5 -1 7 -1 48 -1 92 0 44 0 83 1 86 0 12 197 -4 226 -18z"/>
<path d="M10150 10350 c-155 -13 -406 -61 -520 -100 -99 -34 -212 -75 -247
-91 -23 -11 -44 -19 -48 -19 -16 0 -362 -176 -480 -244 -22 -13 -56 -33 -75
-44 -19 -11 -87 -49 -150 -86 -63 -36 -118 -66 -122 -66 -7 0 -25 75 -65 269
-14 69 -34 167 -44 216 -11 50 -22 105 -26 123 -3 19 -13 36 -21 39 -8 4 -49
1 -91 -5 -100 -16 -350 -51 -756 -107 -464 -64 -447 -62 -673 -96 l-73 -11 3
-111 3 -111 35 -7 c19 -4 89 -12 155 -19 400 -37 479 -68 522 -208 17 -54 18
-205 18 -2677 0 -2133 -2 -2632 -13 -2685 -32 -157 -127 -213 -417 -245 -71
-7 -181 -17 -243 -21 l-113 -7 3 -131 3 -131 1365 0 1365 0 3 133 3 132 -43 0
c-120 2 -456 29 -558 46 -137 23 -206 50 -260 103 -87 84 -89 104 -90 1005 0
699 1 738 18 731 199 -78 498 -143 822 -177 240 -25 750 -13 975 22 351 55
487 89 720 178 303 115 516 252 735 472 322 322 503 730 576 1295 21 165 24
659 5 815 -55 447 -162 765 -356 1055 -285 427 -741 682 -1343 749 -168 19
-384 26 -502 16z m-96 -495 c107 -14 257 -52 326 -82 174 -75 290 -152 411
-273 332 -330 490 -857 465 -1550 -12 -316 -36 -508 -91 -735 -163 -672 -544
-1047 -1165 -1146 -112 -18 -441 -18 -540 -1 -235 43 -410 114 -569 232 -175
130 -308 330 -354 535 -33 146 -38 321 -35 1200 4 853 4 861 26 945 23 84 81
211 140 304 164 258 454 453 787 531 39 9 81 19 95 22 43 10 252 30 325 32 39
0 119 -6 179 -14z"/>
<path d="M16120 10354 c-309 -32 -553 -154 -1104 -550 -98 -71 -184 -133 -192
-139 -7 -5 -16 -6 -19 -3 -7 6 -22 82 -50 238 -9 52 -20 115 -25 140 -5 25
-14 77 -21 115 -7 39 -17 97 -24 130 l-11 60 -45 -1 c-24 0 -82 -6 -129 -12
-47 -7 -116 -16 -155 -22 -166 -23 -455 -62 -515 -70 -105 -14 -426 -58 -540
-75 -58 -8 -132 -18 -165 -22 l-60 -8 0 -115 0 -115 25 -1 c133 -8 462 -52
529 -71 61 -17 125 -70 146 -120 8 -18 19 -67 24 -109 14 -100 15 -3020 1
-3152 -25 -236 -102 -286 -501 -327 -79 -8 -172 -15 -205 -15 -40 0 -66 -5
-73 -14 -8 -9 -11 -52 -9 -127 l3 -114 1398 -3 1397 -2 0 130 0 130 -37 0
c-100 0 -431 22 -534 35 -206 27 -295 59 -354 127 -74 87 -70 6 -70 1398 0
1157 1 1252 18 1337 56 287 185 490 370 581 93 45 121 52 223 52 144 0 285
-38 519 -140 191 -83 334 -101 469 -58 275 87 425 404 308 651 -41 87 -109
152 -207 197 -44 20 -105 42 -135 48 -64 13 -199 21 -250 16z"/>
<path d="M19265 10354 c-211 -10 -510 -51 -655 -91 -30 -8 -68 -18 -85 -23
-79 -21 -175 -55 -272 -96 -97 -40 -139 -61 -268 -134 -153 -86 -389 -290
-518 -450 -255 -316 -403 -697 -468 -1205 -17 -129 -17 -565 -1 -715 24 -217
82 -486 132 -615 106 -273 198 -434 345 -605 165 -194 416 -371 680 -482 577
-241 1515 -276 2115 -78 426 140 759 390 998 750 55 83 202 363 202 385 0 6
-28 24 -62 40 -35 16 -104 48 -154 72 -51 24 -94 43 -97 43 -4 0 -34 -46 -69
-102 -314 -511 -697 -774 -1223 -837 -113 -14 -368 -14 -472 -1 -364 46 -638
176 -847 402 -290 312 -437 760 -453 1386 l-6 212 1569 0 c1616 1 1623 1 1716
38 47 19 110 85 135 140 21 48 23 66 23 210 0 180 -23 340 -71 506 -198 686
-729 1104 -1544 1216 -107 14 -466 40 -535 38 -30 -1 -82 -3 -115 -4z m327
-340 c488 -90 774 -452 829 -1049 24 -263 -25 -364 -199 -403 -40 -9 -321 -12
-1088 -12 l-1034 0 0 48 c0 75 29 288 51 382 44 181 79 278 151 420 129 255
302 427 540 538 91 42 206 70 393 96 56 8 274 -4 357 -20z"/>
<path d="M24090 10354 c-667 -35 -1130 -196 -1435 -499 -166 -165 -261 -343
-311 -583 -22 -106 -22 -352 0 -445 72 -295 244 -515 551 -705 77 -47 262
-140 355 -177 25 -10 59 -23 75 -30 67 -29 311 -105 475 -150 599 -162 843
-275 1031 -472 85 -91 129 -161 167 -265 34 -96 43 -297 17 -397 -98 -378
-501 -603 -1035 -577 -145 7 -261 24 -379 57 -76 22 -95 28 -168 60 -24 11
-46 19 -49 19 -3 0 -47 24 -98 54 -197 116 -343 259 -479 466 -96 148 -158
282 -232 500 l-43 125 -153 0 c-110 0 -153 -3 -152 -11 1 -7 7 -67 13 -135 6
-68 12 -144 15 -169 2 -25 9 -99 14 -165 29 -333 42 -470 53 -577 l12 -118 57
-40 c107 -75 289 -161 489 -230 134 -47 435 -109 645 -135 203 -24 616 -27
810 -6 525 56 918 205 1210 458 190 165 314 369 366 603 26 120 27 407 0 535
-69 334 -269 584 -630 788 -195 110 -480 224 -756 304 -27 8 -63 18 -80 23
-42 13 -88 25 -180 50 -174 46 -408 121 -515 165 -522 215 -699 525 -523 914
103 227 326 373 663 432 94 17 341 17 440 0 41 -7 125 -28 187 -47 189 -58
314 -135 450 -277 127 -133 214 -282 266 -457 22 -74 31 -110 53 -217 4 -23 7
-23 159 -23 l155 0 -2 528 -3 527 -114 57 c-184 92 -431 162 -726 207 -163 25
-511 43 -665 35z"/>
<path d="M28500 10350 c-379 -24 -707 -94 -935 -199 -138 -64 -159 -76 -243
-132 -198 -132 -328 -278 -422 -474 -77 -158 -110 -313 -110 -510 0 -106 5
-148 25 -229 68 -267 234 -481 510 -661 204 -132 564 -281 895 -369 30 -8 91
-24 135 -36 488 -129 743 -249 931 -435 90 -89 142 -170 182 -284 24 -68 26
-90 27 -221 0 -161 -9 -203 -72 -319 -46 -85 -85 -133 -166 -201 -158 -134
-397 -215 -667 -227 -431 -19 -798 108 -1081 375 -212 200 -352 431 -465 772
l-47 140 -148 0 c-81 0 -150 -4 -153 -8 -3 -5 -1 -38 4 -73 5 -35 14 -131 20
-214 6 -82 18 -217 25 -300 7 -82 21 -240 30 -350 9 -110 21 -210 26 -223 15
-37 197 -146 354 -211 362 -151 773 -224 1265 -225 260 -1 376 7 580 40 776
125 1288 524 1386 1079 8 44 14 140 14 213 0 220 -31 366 -110 527 -120 241
-315 421 -632 583 -243 125 -424 190 -908 327 -353 100 -419 122 -575 189
-212 92 -366 201 -448 319 -67 95 -88 157 -94 268 -17 315 179 577 516 689
141 46 249 63 416 64 185 0 299 -18 465 -74 359 -120 623 -445 708 -868 l18
-87 157 -3 157 -3 -2 528 -3 528 -111 55 c-348 174 -942 272 -1454 240z"/>
<path d="M3257 10283 c-3 -5 -95 -170 -206 -368 -111 -198 -206 -367 -211
-375 -5 -8 -24 -42 -43 -75 -19 -33 -44 -78 -57 -100 -13 -22 -36 -65 -53 -95
-16 -30 -44 -80 -62 -110 -18 -30 -144 -253 -280 -495 -136 -242 -255 -453
-265 -470 -9 -16 -136 -241 -282 -500 -602 -1068 -774 -1351 -882 -1461 -107
-107 -211 -139 -501 -155 -93 -5 -173 -13 -177 -17 -5 -5 -7 -56 -6 -113 l3
-104 1100 0 1100 0 3 104 c1 57 -2 109 -7 114 -5 5 -51 11 -103 13 -268 12
-488 27 -532 36 -27 6 -61 22 -80 38 -27 25 -31 34 -29 75 1 45 30 131 83 250
14 33 39 90 56 127 16 37 119 246 230 465 l200 398 1071 3 1070 2 28 -52 c15
-29 40 -75 55 -103 15 -27 49 -90 75 -140 26 -49 51 -94 55 -100 4 -5 28 -48
53 -95 25 -47 107 -200 182 -340 185 -342 188 -348 193 -402 4 -42 1 -50 -25
-77 -51 -50 -143 -65 -473 -76 -102 -3 -213 -8 -247 -11 l-63 -6 0 -114 0
-114 1393 2 1392 3 3 104 c1 57 -1 108 -5 112 -5 5 -67 11 -138 14 -272 11
-393 31 -486 82 -103 55 -152 127 -379 548 -23 44 -46 85 -50 90 -4 6 -29 51
-55 100 -81 152 -117 219 -135 250 -10 17 -34 62 -55 100 -21 39 -88 162 -150
275 -62 113 -129 237 -150 275 -21 39 -45 84 -55 100 -10 17 -34 62 -55 100
-21 39 -51 95 -68 125 -16 30 -44 82 -62 115 -18 33 -82 150 -142 260 -61 110
-128 234 -150 275 -80 148 -106 195 -118 215 -6 11 -33 61 -60 110 -26 50 -94
173 -150 275 -56 102 -119 217 -140 255 -21 39 -45 84 -55 100 -10 17 -37 66
-60 110 -24 44 -55 103 -70 130 -15 28 -49 91 -75 140 -27 50 -61 110 -75 135
l-26 45 -397 3 c-217 1 -398 -1 -400 -5z m142 -888 c26 -50 94 -180 151 -290
56 -110 124 -240 150 -290 26 -49 87 -166 135 -260 48 -93 111 -215 140 -270
171 -329 235 -454 235 -459 0 -3 -394 -6 -875 -6 -607 0 -875 3 -875 11 0 5
13 33 29 62 15 29 63 120 106 202 43 83 101 195 130 250 29 55 83 159 120 230
37 72 89 171 115 220 26 50 84 162 130 250 46 88 95 183 110 210 15 28 46 86
70 130 50 93 60 107 72 103 6 -2 31 -44 57 -93z"/>
</g>
</svg>
