<?xml version="1.0" encoding="UTF-8"?>
<svg xmlns="http://www.w3.org/2000/svg" viewBox="0 0 511.92 129.84">
  <title>CityFibre</title>
  <path d="M42.24 409.89a14.33 14.33 0 0 0 .33-1.71c1.13-14.61 6-27.56 16.88-37.78 6.84-6.42 15.07-10.08 24.24-11.78a67.56 67.56 0 0 1 15-.92 49.26 49.26 0 0 1 27.74 9.94 8 8 0 0 1 3.28 7c-.06 3.28 0 6.56 0 9.84a8 8 0 0 1-.37 2.22 2.71 2.71 0 0 1-2.35 2 2.38 2.38 0 0 1-2.5-1.33c-1-1.78-1.83-3.64-2.79-5.43a37.76 37.76 0 0 0-9.08-11.65 26 26 0 0 0-14.79-5.85c-9.15-.75-17.54 1.2-25 6.66a38.79 38.79 0 0 0-12.94 17.08 52.81 52.81 0 0 0-3.89 17.13c-.52 8.7.49 17.16 4 25.17 5.34 12.28 14.6 19.84 27.91 21.91a35.49 35.49 0 0 0 29.76-8.45c2.09-1.79 4-3.79 6-5.7 1-1 2-2.1 3.63-2.09a2.81 2.81 0 0 1 2.77 3.56 11.56 11.56 0 0 1-2.14 4c-7.33 8.15-16.07 14-27.08 15.82-12.56 2-24.56.24-35.55-6.37-12.41-7.49-19.9-18.41-22.3-32.73-.22-1.37-.3-2.77-.47-4.15a7.37 7.37 0 0 0-.32-1.11zm350.16-53.76a3.78 3.78 0 0 1-.51.3c-3.06 1.13-6.15 2.21-9.19 3.4a13.84 13.84 0 0 0-3 1.7 1.72 1.72 0 0 0 .32 3.15c.64.31 1.34.5 2 .75 3.08 1.15 4 2.49 4 5.74 0 20.52 0 41 .06 61.55a50.77 50.77 0 0 0 1.21 10.42c1.56 7.19 5.5 12.64 12.63 15.27a33.46 33.46 0 0 0 17.35 1.29 30.23 30.23 0 0 0 18.88-10.7 33.93 33.93 0 0 0 7.52-18.84 43.45 43.45 0 0 0-2.17-19.94c-4.91-13.06-16-17.86-27.73-16.21-6.57.92-12 4.22-16.48 9.06-.33.36-.71.67-1.07 1l-.32-.12v-43.37c0-1.9-.36-3.57-2.3-4.44zm3.52 57.24a3.54 3.54 0 0 1 .55-1.89c3.95-5.53 9.07-9.39 15.81-10.88a13.22 13.22 0 0 1 12.27 3.48c4.25 3.85 6.61 8.79 7.86 14.27 2 8.74 1.57 17.3-2.51 25.44-2.49 5-6.32 8.51-11.86 9.87-9.61 2.35-17.92-2.46-20.87-12.25a35.44 35.44 0 0 1-1.22-7.88c-.21-3.11-.05-6.24-.05-9.36 0-3.6-.03-7.17.02-10.8zm-175.6 72.63a2.12 2.12 0 0 1 .62-.31 26.25 26.25 0 0 0 10.43-4.34c7.24-4.8 12.69-11.3 17.26-18.58 10.61-16.92 15.78-35.73 18.85-55.24.5-3.17.95-6.32 2.73-9.09a4.31 4.31 0 0 0 .45-1.23c.41-1.51-.2-2.48-1.79-2.51-4.59-.06-9.19-.05-13.79 0-1.25 0-1.75.7-1.78 1.94-.05 1.7 1 2.55 2.4 3.06 3 1.12 4.21 3.38 4.07 6.45-.12 2.63-.19 5.27-.53 7.88a112.65 112.65 0 0 1-5.71 23.8 23.17 23.17 0 0 1-4 7.61 8.29 8.29 0 0 1-8.3 2.8c-3.32-.61-5.67-2.66-7.65-5.2-3.19-4.12-4.94-8.92-6.48-13.81a81.51 81.51 0 0 1-4.1-21.67c-.13-3.74.56-6.79 4.05-8.74a2.27 2.27 0 0 0 1-2.84c-.36-1.13-1.44-1.29-2.46-1.3h-15.48c-1.91 0-2.87 1.12-2.36 2.84a3.53 3.53 0 0 0 1.52 1.71 6.54 6.54 0 0 1 3.28 4.89c.3 2.26.6 4.5.88 6.76a114.79 114.79 0 0 0 3.85 19.08c2.07 6.85 4.78 13.4 9.23 19.09 4.07 5.2 10.3 8.64 18 5.6a3.56 3.56 0 0 1 .92-.08 20 20 0 0 1-.94 2.38c-1.15 2.1-2.25 4.24-3.59 6.22-3.32 4.86-7.2 9.19-12.43 12.1a10.79 10.79 0 0 1-7.59 1.46c-1.44-.29-2.89-.58-4.34-.83a4.37 4.37 0 0 0-4.53 1.8 4.68 4.68 0 0 0 1.73 7.2c.88.45 1.83.74 2.74 1.1zm333.84-42.72c-1.89-2.26-2.92-2.32-5.2-.27-.93.82-1.84 1.66-2.74 2.51a24.67 24.67 0 0 1-19.45 7.25 22.54 22.54 0 0 1-16.87-8.58 19.81 19.81 0 0 1-4-9.28 12.55 12.55 0 0 1 1.36-.33l6.89-.75a99.26 99.26 0 0 0 17.27-3.18c5.67-1.67 11.13-3.86 15.46-8.07 4.64-4.5 6.58-9.91 4.53-16.24-1.58-4.88-5.17-8.1-9.73-10.21a28 28 0 0 0-14.84-2.24 33 33 0 0 0-14.78 4.8c-12.55 8-18.35 19.48-17.28 34.34a27 27 0 0 0 6.07 15.37c7.54 9.26 17.52 13 29.16 11.51 10.31-1.31 19.07-5.69 24.2-15.43zm-37.72-39.58a21.62 21.62 0 0 1 10.42-3.53 18.81 18.81 0 0 1 8.14.77c4.29 1.49 6.47 4.73 6.58 9.26.12 4.89-2.25 8.37-6 11.07a34.09 34.09 0 0 1-13.58 5.44c-5.27 1-10.62 1.65-15.93 2.44a5.71 5.71 0 0 1-1.07-.06c.2-10.22 2.61-19.27 11.44-25.42zm-234.51-44.09a26.6 26.6 0 0 0-3.09.23 2.5 2.5 0 0 0-2.47 2.06 2.76 2.76 0 0 0 1.62 3.15 21.48 21.48 0 0 0 2.36.87c3.27 1.07 4.15 2.25 4.15 5.67v74.21c-.16 4-1 5.07-4.75 6.33-.53.17-1.06.36-1.57.58a2.68 2.68 0 0 0 .24 5.14 12.78 12.78 0 0 0 3.07.44h18a15.71 15.71 0 0 0 2.37-.22 2.64 2.64 0 0 0 2.59-2.52 2.74 2.74 0 0 0-2.11-3c-1.17-.41-2.38-.69-3.55-1.08-1.95-.66-2.47-1.42-2.47-3.44v-35.28c0-1.72 0-1.73 1.72-1.73h26.28a28.72 28.72 0 0 1 3.58.25 8.93 8.93 0 0 1 4.92 2.53 5.55 5.55 0 0 0 2.42 1.42c1.76.4 3-1 3.07-3.35.05-2.92 0-5.84 0-8.76a5.69 5.69 0 0 0-.25-1.53 2.21 2.21 0 0 0-3.33-1.39 5.62 5.62 0 0 0-1.31 1 9 9 0 0 1-5.42 2.81 47 47 0 0 1-4.88.4h-25.68c-.8 0-1.16-.29-1.12-1.13.05-1.2 0-2.4 0-3.6v-28c0-2.6 1-4 3.56-4.71a16.08 16.08 0 0 1 4.24-.65c8.27.07 16.55-.48 24.8.45 4.27.49 8.31 1.71 11.59 4.67 1.27 1.15 2.37 2.48 3.53 3.74a2.71 2.71 0 0 0 3.16.75 2.08 2.08 0 0 0 1.14-2.3c-.37-2.72-.75-5.45-1.16-8.17-.48-3.19-2-5-4.77-5.6a14.13 14.13 0 0 0-3-.31h-29.16zm-91.38 41.28c3.95-.07 7.9-.12 11.85-.23 1.86-.05 2.87-1 3-2.63.1-2.08-.46-2.81-2.55-3.18a11.32 11.32 0 0 0-2-.2h-10.44c-1.59 0-1.59 0-1.59-1.65v-18.47a13.12 13.12 0 0 0-.3-2.73 2.38 2.38 0 0 0-1.92-2.07 2.54 2.54 0 0 0-2.77 1.23 5.65 5.65 0 0 0-.77 1.74 28.62 28.62 0 0 0-.7 4 62 62 0 0 1-2.59 13.23c-1.09 3.55-2.69 4.67-6.4 4.73a11.61 11.61 0 0 0-3.19.29 3.36 3.36 0 0 0-1.89 1.57 2.32 2.32 0 0 0 .76 2.82 5.58 5.58 0 0 0 2.36 1.05c2 .29 4 .4 5.95.5 1.6.08 1.61 0 1.61 1.68v50.739999999999995s1.54 4.93 4.8 4.95c6 0 11.92.05 17.88 0a6.1 6.1 0 0 0 2.9-.91 2.71 2.71 0 0 0 1.16-3 2.37 2.37 0 0 0-2.2-2 15.26 15.26 0 0 0-2.13-.24c-2.16-.1-4.31-.13-6.46-.25a5.79 5.79 0 0 1-5.79-4.94 16 16 0 0 1-.3-3.09v-42.93zm275.91 8.29c-.76-3.46-1.37-7-2.33-10.37a13 13 0 0 0-2.38-4.09 2.52 2.52 0 0 0-3-.88 25.52 25.52 0 0 0-9.13 6c-1.69 1.76-1.25 3.66 1 4.54 4.73 1.85 6.82 5.55 6.87 10.28.1 10.95-.08 21.9-.2 32.85a4.25 4.25 0 0 1-3.11 4.47 11.43 11.43 0 0 0-2.33 1.2 2.28 2.28 0 0 0-1.2 2.53 2.52 2.52 0 0 0 2 2.24 12.21 12.21 0 0 0 2.25.25h14.4a14.43 14.43 0 0 0 2.26-.23 2.49 2.49 0 0 0 2.23-2.44 2.37 2.37 0 0 0-1.41-2.54 10.5 10.5 0 0 0-1.75-.78 4.08 4.08 0 0 1-2.93-3.45 20.41 20.41 0 0 1-.31-3.22v-13.55a76.3 76.3 0 0 1 .3-9.93 25.77 25.77 0 0 1 9.2-16.59 6.29 6.29 0 0 1 7.37-.95 36.16 36.16 0 0 0 4.28 1.86 2.3 2.3 0 0 0 3.14-1.37 9.35 9.35 0 0 0 .05-7.23 6 6 0 0 0-4.53-3.89 9.47 9.47 0 0 0-6.63.82 25.42 25.42 0 0 0-9.39 8.56c-1.58 2.23-2.92 4.64-4.44 7.09l-.28-1.18zm-310.09 17.65c0-8.19.09-16.38-.06-24.57a29.91 29.91 0 0 0-1.21-6.91c-.38-1.48-1.5-1.91-3-1.61a5.4 5.4 0 0 0-1.26.38q-5.19 2.44-10.37 4.95a6.21 6.21 0 0 0-1.45 1.06c-1.45 1.34-1.14 3.07.68 3.78a18.29 18.29 0 0 0 2.31.62 5.27 5.27 0 0 1 4.33 4.27 14.07 14.07 0 0 1 .4 2.72c0 11.75.05 23.5 0 35.25 0 3.38-1.23 4.82-4.45 5.83-.31.1-.61.18-.91.29a2.47 2.47 0 0 0-1.83 3 2.4 2.4 0 0 0 2.34 2.17 24.59 24.59 0 0 0 3 .23h13.79c.76 0 1.51-.12 2.26-.19 1.21-.11 2.22-.52 2.44-1.87.29-1.74-.11-2.47-1.73-3.24-.72-.34-1.46-.64-2.2-.94a4 4 0 0 1-2.52-3.38 28.45 28.45 0 0 1-.26-3.45v-18.35zm213.36-19.93a79.6 79.6 0 0 0-1-10.45c-.45-2.71-1.73-3.25-4.34-2.46a6.94 6.94 0 0 0-.9.34c-3 1.39-5.93 2.78-8.88 4.21a10.67 10.67 0 0 0-2.1 1.37c-1.82 1.49-1.5 3.32.7 4.1.64.22 1.31.35 2 .51a5.22 5.22 0 0 1 4.43 4.44 31.66 31.66 0 0 1 .44 4.75q.06 15.54 0 31.07a26.94 26.94 0 0 1-.26 3.58 4.32 4.32 0 0 1-2.63 3.6c-.92.39-1.89.65-2.8 1a2.59 2.59 0 0 0-1.67 2.65 2.48 2.48 0 0 0 2.21 2.34 15.68 15.68 0 0 0 2.73.26h13.91c1 0 1.91-.12 2.86-.22a2.25 2.25 0 0 0 2.22-1.85 2.45 2.45 0 0 0-1.25-3 22.65 22.65 0 0 0-2.52-1.11 3.89 3.89 0 0 1-2.67-3.39c-.21-2.86-.4-5.73-.43-8.59-.07-6 0-12.08 0-18.11-.01-4.94.11-10-.05-15.04zm.51-31.39a6.74 6.74 0 0 0-7.14-6.95 7 7 0 0 0-7.36 7.19c0 3.76 2.92 7.47 7 7.16 4.54-.01 7.41-2.91 7.5-7.4zm-220.46-6.95c-4.62.06-7.31 3.18-7.34 7.19a6.79 6.79 0 0 0 6.87 7.16c4.67 0 7.57-2.81 7.58-7.34.29-3.66-2.6-7.08-7.11-7.01z" transform="translate(-42.24 -356.13)" fill="#31ac62"></path>
</svg>
