<?xml version="1.0" encoding="UTF-8"?>
<svg xmlns="http://www.w3.org/2000/svg" viewBox="0 0 548.37 112.42">
  <title>CONCEPT</title>
  <path d="M-151 141.45v-3.53a44.71 44.71 0 0 1-5.9.36c-7.56 0-13.32-3.31-13.32-12.81 0-9.15 3.89-12.75 12.17-12.75a33.43 33.43 0 0 1 6.26.58v-3.6a17.32 17.32 0 0 0-6.26-1.08c-10.15 0-16.92 5.69-16.92 16.85 0 12.95 7.34 17 18.07 17a14.59 14.59 0 0 0 5.9-1z" transform="translate(175 -44)" fill="#1d1d1b"></path>
  <path d="M61.1 81.11c0-10.51-6.27-17.14-16.49-17.14-10 0-16.48 7.56-16.48 17.64 0 10.44 6.26 17.21 16.48 17.21 10 0 16.49-7.64 16.49-17.71zm-4.75.28c0 7.27-4 13.39-11.74 13.39s-11.73-6.12-11.73-13.39 4-13.39 11.73-13.39 11.74 6.12 11.74 13.39z" fill="#1d1d1b" fill-rule="evenodd"></path>
  <path d="M96.3 98.17v-22.61c0-6.84-.86-11.16-11-11.16-8 0-12.75 7.06-12.75 7.06v-6.84h-4.75v33.55h4.75v-20.17c1.88-5.33 7-9.5 12.75-9.5 4.39 0 6.26 1.51 6.26 7v22.61z" fill="#1d1d1b"></path>
  <path d="M-48.32 141.45v-3.53a44.71 44.71 0 0 1-5.9.36c-7.56 0-13.32-3.31-13.32-12.81 0-9.15 3.89-12.75 12.17-12.75a33.43 33.43 0 0 1 6.26.58v-3.6a17.32 17.32 0 0 0-6.26-1.08c-10.15 0-16.92 5.69-16.92 16.85 0 12.95 7.34 17 18.07 17a14.59 14.59 0 0 0 5.9-1z" transform="translate(175 -44)" fill="#1d1d1b"></path>
  <path d="M-15.65 123.88c0-8.78-3.16-15.55-13-15.55-10.72 0-15.91 6.63-15.91 17 0 12.6 6.34 17.42 18.36 17.42a31.6 31.6 0 0 0 10.37-1.29v-3.53a75.79 75.79 0 0 1-9 .72c-7.27 0-14.76-2-14.76-11.16h23.76a31.56 31.56 0 0 0 .14-3.6zm-4.82-.72h-19.15c0-6.84 3.67-10.94 10.58-10.94 7.27 0 8.57 4.75 8.57 10.94zM21.89 123c0-6.84-2.59-14.55-12.75-14.55-7.19 0-11 7.06-11 7.06v-6.84h-4.76v47.8h4.75v-14.9a51.65 51.65 0 0 0 6.55.65c8.35 0 17.21-5.76 17.21-19.22zm-4.83 0c0 11.37-5.76 15.19-12.38 15.19a59.31 59.31 0 0 1-6.55-.65v-15.24s2.45-9.79 11-9.79c5.12 0 7.92 4.39 7.92 10.44z" transform="translate(175 -44)" fill="#1d1d1b" fill-rule="evenodd"></path>
  <path d="M48.9 141.45v-3.45s-3.6.29-7.85.29c-5 0-6.41-2.95-6.41-7.85v-17.14h14.26v-4h-14.26v-8.5h-4.75v8.5h-4.75v4h4.75v17.85c0 8.14 4 11.16 11.16 11.16a36.14 36.14 0 0 0 7.85-.86z" transform="translate(175 -44)" fill="#1d1d1b"></path>
  <path d="M255.75 75c0-9-6.11-9.6-13.58-9.6h-8v32.72h3.6v-11h3.33c8 0 14.67-3.87 14.67-12.16zm-3.6.11c0 7.09-5 8.94-11.07 8.94h-3.33v-15.29h3.33c4.63 0 11.07-.6 11.07 6.38z" fill="#5057a3" fill-rule="evenodd"></path>
  <path fill="#5057a3" d="M280.38 98.15v-3.27h-14.4v-11.67h10.8v-3.27h-10.8v-11.24h14.4v-3.27h-18v32.72h18z"></path>
  <path d="M311.84 98.15l-3.44-7.63c-1.58-3.49-3-5.62-4.69-6.66 4.26-1.47 7.2-4.41 7.2-9.37 0-8.89-6.27-9.06-13.58-9.06h-8v32.72h3.6v-12.65h4.31c3 0 5 .55 7 5l3.38 7.63zm-4.53-23.56c0 6.6-4.47 7.8-9.7 7.8h-4.69v-13.63h3.32c4.69 0 11.07-.65 11.07 5.83z" fill="#5057a3" fill-rule="evenodd"></path>
  <path d="M163.49 132.88c0-6.32-4.75-7.69-9.27-8.89-4.09-1-8-1.58-8-5.94 0-5.34 5.13-5.62 9.76-5.62a47.45 47.45 0 0 1 7 .71v-2.89a22.34 22.34 0 0 0-7-1c-6.65 0-13.36 1.25-13.36 9.27 0 6.59 5.51 7.68 10.2 8.88 3.76.93 7.09 2.08 7.09 6.06 0 5-4.47 5.78-9.76 5.78a77.26 77.26 0 0 1-8.24-.71v2.94a37.88 37.88 0 0 0 8.24 1c7.2 0 13.36-1.9 13.36-9.54z" transform="translate(175 -44)" fill="#5057a3"></path>
  <path d="M372.65 81.79c0-9.76-3.7-16.9-14.39-16.9-10.53 0-14.4 7.85-14.4 16.9 0 9.76 3.71 16.91 14.4 16.91 10.52 0 14.39-7.85 14.39-16.91zm-3.59 0c0 7.75-3 13.91-10.8 13.91s-10.8-6.16-10.8-13.91 3-13.9 10.8-13.9 10.8 6.16 10.8 13.9z" fill="#5057a3" fill-rule="evenodd"></path>
  <path fill="#5057a3" d="M404.93 98.15v-32.72h-3.6v26.45l-16.2-26.45h-5.4v32.72h3.6v-29.34l18 29.34h3.6zM437.49 98.15v-32.72h-3.6v26.45l-16.2-26.45h-5.39v32.72h3.59v-29.34l18 29.34h3.6zM464.85 98.15v-3.27h-14.39v-11.67h10.79v-3.27h-10.79v-11.24h14.39v-3.27h-17.99v32.72h17.99zM493.31 98.15v-3.27h-18v-29.45h-3.6v32.72h21.6zM487.11 19.66l21.72 7.04-14.82-17.37 17.37 14.81-7.04-21.72 10.38 20.33 1.81-22.75 1.81 22.75 10.38-20.33-7.04 21.72 17.37-14.81-14.81 17.37 21.71-7.04-20.33 10.38 22.75 1.8-22.75 1.81 20.33 10.38-21.71-7.04 14.81 17.37-17.37-14.81 7.04 21.71-10.38-20.33-1.81 22.76-1.81-22.76-10.37 20.33 7.03-21.71-17.37 14.81 14.82-17.37-21.72 7.04 20.33-10.38-22.75-1.81 22.75-1.8-20.33-10.38z"></path>
</svg>
