<?xml version="1.0" encoding="UTF-8"?>
<svg xmlns="http://www.w3.org/2000/svg" viewBox="0 0 114.27 25.59">
  <title>diginate_neue_logo 2.0</title>
  <g>
    <path fill="none" d="M4.24 23.46h.02-.02z"></path>
    <path d="M18.88 21.67a2.23 2.23 0 0 0 .84-.51 2 2 0 0 0 .52-.8 3.18 3.18 0 0 0 .17-1.06 2.35 2.35 0 0 0-.7-1.83 2.8 2.8 0 0 0-2-.64h-2.32v5h2.31a3.25 3.25 0 0 0 1.18-.16zM24.3 10.73a8.08 8.08 0 0 1 1.23.71 7.63 7.63 0 0 0-1.23-.71z" transform="translate(-3.85 -5.21)" fill="none"></path>
    <path fill="none" d="M2.13 2.13h-.02l.02 19.11v-19.110000000000003z"></path>
    <rect x="2.13" y="21.38" height="2.09" fill="none"></rect>
    <path d="M26.41 12.14c-.28-.25-.58-.49-.88-.71a11 11 0 0 1 1.73 6.4 13 13 0 0 1-.74 4.49 8.94 8.94 0 0 1-2.17 3.41 9.65 9.65 0 0 1-3.6 2.18 14.74 14.74 0 0 1-5 .76h-7.66v2.13h9.77a15 15 0 0 0 5-.77 9.65 9.65 0 0 0 3.6-2.18 8.94 8.94 0 0 0 2.17-3.41 13.24 13.24 0 0 0 .75-4.44c-.01-3.45-.99-6-2.97-7.86z" transform="translate(-3.85 -5.21)" fill="#2a9dd8"></path>
    <path d="M18.64 25.8a9.54 9.54 0 0 0 3.6-2.17 8.92 8.92 0 0 0 2.18-3.42 12.92 12.92 0 0 0 .73-4.48 12 12 0 0 0-1-5.06 14.46 14.46 0 0 0-6.15-1.22h-9.91v17.13h5.54a14.81 14.81 0 0 0 5.01-.78zm-3.25-9h2.33a2.8 2.8 0 0 1 2 .64 2.35 2.35 0 0 1 .7 1.83 3.18 3.18 0 0 1-.17 1.06 2 2 0 0 1-.52.8 2.23 2.23 0 0 1-.84.51 3.25 3.25 0 0 1-1.18.19h-2.32z" transform="translate(-3.85 -5.21)" fill="#463e3d"></path>
    <path d="M20.45 5.52l-.13-.06.13.06z" fill="#463e3d"></path>
    <path d="M6 26.45v-19.11h9.91a13 13 0 0 1 7.47 1.94 9.6 9.6 0 0 0-1.18-1.36c-2-1.8-4.79-2.71-8.45-2.71h-9.9v21.37l2.15 2.1v-2.23z" transform="translate(-3.85 -5.21)" fill="#ffea00"></path>
    <path fill="#e00074" d="M2.13 23.46l2.11 2.13v-2.13h-2.11z"></path>
    <path d="M24.17 10.67a12 12 0 0 1 1 5.06 12.92 12.92 0 0 1-.73 4.48 8.92 8.92 0 0 1-2.18 3.42 9.54 9.54 0 0 1-3.6 2.17 14.81 14.81 0 0 1-5 .78h-5.57v2.09h7.67a14.74 14.74 0 0 0 5-.76 9.65 9.65 0 0 0 3.6-2.18 8.94 8.94 0 0 0 2.17-3.41 13 13 0 0 0 .74-4.49 11 11 0 0 0-1.73-6.4 8.08 8.08 0 0 0-1.23-.71z" transform="translate(-3.85 -5.21)" fill="#302879"></path>
    <path d="M15.84 7.34h-9.84v21.34h2.09v-19.23h9.91a14.46 14.46 0 0 1 6.18 1.2 7.63 7.63 0 0 0-.74-1.31l-.07-.05a13 13 0 0 0-7.47-1.94z" transform="translate(-3.85 -5.21)" fill="#dc0c15"></path>
    <path d="M24.16 10.65l.13.06a7.63 7.63 0 0 1 1.23.71 9.57 9.57 0 0 0-1.21-1.42 8.14 8.14 0 0 0-.87-.68 7.63 7.63 0 0 1 .72 1.33z" transform="translate(-3.85 -5.21)" fill="#e00074"></path>
    <path d="M47.47 24.06a4.19 4.19 0 0 1-3.32 1.44 5.19 5.19 0 1 1 0-10.38 4.24 4.24 0 0 1 3.32 1.46v-6.81h2v15.46h-2zm-3.32-7a3.3 3.3 0 1 0 3.28 3.3 3.23 3.23 0 0 0-3.28-3.36zm8.31-4.93a1.32 1.32 0 0 1 1.36-1.34 1.31 1.31 0 0 1 1.35 1.34 1.32 1.32 0 0 1-1.35 1.35 1.33 1.33 0 0 1-1.36-1.39zm.35 3.21h2v9.93h-2zm9.78 10.2a5.19 5.19 0 1 1 0-10.38 4.24 4.24 0 0 1 3.32 1.46v-1.32h2v9.11c0 5-3 6.1-5.26 6.1a5.2 5.2 0 0 1-4.55-2.42l1.86-.8a3 3 0 0 0 2.67 1.34c1.71 0 3.28-.94 3.28-3.86v-.71a4.19 4.19 0 0 1-3.32 1.44zm0-8.48a3.3 3.3 0 1 0 3.28 3.3 3.23 3.23 0 0 0-3.28-3.36zm8.31-4.93a1.36 1.36 0 1 1 1.36 1.35 1.34 1.34 0 0 1-1.36-1.39zm.36 3.21h2v9.93h-2zm12.32 4.66c0-2-.77-3-2.42-3s-2.53 1.1-2.53 3.15v5.06h-2v-9.91h2v1.07a3.52 3.52 0 0 1 2.88-1.25c2.36 0 4.09 1.37 4.09 4.49v5.62h-2zm12.89 4a4.2 4.2 0 0 1-3.33 1.44 5.19 5.19 0 1 1 0-10.38 4.25 4.25 0 0 1 3.33 1.46v-1.22h2v9.93h-2zm-3.33-7a3.3 3.3 0 1 0 3.28 3.3 3.26 3.26 0 0 0-3.28-3.3zm11.8 8.48c-2.44 0-2.88-1.61-2.88-3.32v-5h-1.57v-1.86h1.57v-3.36h2v3.36h2.69v1.9h-2.69v4.8c0 1.12.25 1.67 1.31 1.67a4.19 4.19 0 0 0 1.11-.15v1.8a5.1 5.1 0 0 1-1.54.18zm8.23-1.82a3.4 3.4 0 0 0 2.83-1.34l1.42 1.09a5.51 5.51 0 1 1 .75-3.11 6.39 6.39 0 0 1 0 .68h-8.17a3.2 3.2 0 0 0 3.17 2.7zm-.1-6.73a3.11 3.11 0 0 0-3 2.45h6.06a3 3 0 0 0-3.06-2.38z" transform="translate(-3.85 -5.21)" fill="#1d1d1b"></path>
  </g>
</svg>
