<?xml version="1.0" encoding="UTF-8"?>
<svg xmlns="http://www.w3.org/2000/svg" id="Domino_s" data-name="Domino's" viewBox="0 0 355.82 345">
  <defs>
    <style>.cls-1{fill:none;}.cls-2{fill:#fff;}.cls-3{fill:#e31837;}.cls-4{fill:#0078ae;}</style>
  </defs>
  <title>dominos</title>
  <path class="cls-1" d="M249.39,304a20.3,20.3,0,1,0,14.38,5.95A20.37,20.37,0,0,0,249.39,304Z" transform="translate(-146.28 -152.02)"></path>
  <path class="cls-1" d="M309.07,345.46a20.35,20.35,0,1,0-14.37-6A20.34,20.34,0,0,0,309.07,345.46Z" transform="translate(-146.28 -152.02)"></path>
  <path class="cls-1" d="M372.12,161.58a8.67,8.67,0,0,0-12.26,0L301,220.46l-17.16,17.16,82.48,82.48,7-7,69-69.05a8.66,8.66,0,0,0,0-12.26Z" transform="translate(-146.28 -152.02)"></path>
  <path class="cls-2" d="M447.3,226.83l-70.22-70.22a15.7,15.7,0,0,0-22.19,0L296,215.5l-98,98a15.72,15.72,0,0,0,0,22.2l70.22,70.22a15.68,15.68,0,0,0,22.19,0l87.84-87.86,69.05-69A15.72,15.72,0,0,0,447.3,226.83Z" transform="translate(-146.28 -152.02)"></path>
  <path class="cls-3" d="M442.33,231.82l-70.21-70.21a8.66,8.66,0,0,0-12.26,0l-75.92,75.91L366.41,320l75.92-75.92A8.66,8.66,0,0,0,442.33,231.82Zm-61.75,20.3a20.33,20.33,0,1,1,6-14.38A20.29,20.29,0,0,1,380.58,252.12Z" transform="translate(-146.28 -152.02)"></path>
  <path class="cls-4" d="M203,318.47a8.66,8.66,0,0,0,0,12.26L273.18,401a8.67,8.67,0,0,0,12.26,0l75.88-75.9-82.47-82.47Zm60.8,20.22a20.39,20.39,0,1,1,5.94-14.38A20.38,20.38,0,0,1,263.77,338.69Zm30.93-27.94a20.32,20.32,0,1,1-6,14.38A20.22,20.22,0,0,1,294.7,310.75Z" transform="translate(-146.28 -152.02)"></path>
  <path class="cls-4" d="M172,438.3H147.73a1.44,1.44,0,0,0-1.45,1.45v54.66a1.45,1.45,0,0,0,1.45,1.44h24.36c19.13,0,31.5-11.31,31.5-28.82S191.19,438.3,172,438.3m0,42.37h-8.29V453.48h8.37c8.64,0,13.81,5.06,13.81,13.55,0,6.78-4.77,13.64-13.89,13.64M311.2,453.14c8.3,0,12.87,4.44,12.87,12.51v28.76a1.46,1.46,0,0,1-1.45,1.44H310a1.45,1.45,0,0,1-1.45-1.44V471.52c0-3-1.73-4.66-4.75-4.66a8.07,8.07,0,0,0-6.38,3.27v24.28a1.45,1.45,0,0,1-1.45,1.44H283.32a1.45,1.45,0,0,1-1.45-1.44V471.52c0-3-1.69-4.66-4.75-4.66a8.09,8.09,0,0,0-6.3,3.26h0v24.28a1.45,1.45,0,0,1-1.45,1.44H256.74a1.45,1.45,0,0,1-1.45-1.44V455.63a1.44,1.44,0,0,1,1.45-1.45h12.63a1.44,1.44,0,0,1,1.45,1.45v3.29c1.81-2.33,7-5.78,13.81-5.78,6.17,0,10.21,2.47,12,7.33a18,18,0,0,1,14.58-7.33m33.27,1a1.45,1.45,0,0,1,1.46,1.45v38.78a1.45,1.45,0,0,1-1.46,1.44H331.85a1.45,1.45,0,0,1-1.46-1.44V455.63a1.45,1.45,0,0,1,1.46-1.45h12.62m-5.93-20.46a8.72,8.72,0,1,1-8.72,8.71,8.73,8.73,0,0,1,8.72-8.71m43.82,19.42c8.71,0,13.9,4.9,13.9,13.12v28.15a1.45,1.45,0,0,1-1.45,1.44H382.18a1.45,1.45,0,0,1-1.45-1.44V472.8c0-3.94-2-5.94-6.05-5.94a8.31,8.31,0,0,0-6.64,3.27v24.28a1.45,1.45,0,0,1-1.45,1.44H354a1.45,1.45,0,0,1-1.45-1.44V455.63a1.44,1.44,0,0,1,1.45-1.45h12.63a1.44,1.44,0,0,1,1.45,1.45v3.29c1.89-2.16,6.27-5.78,14.32-5.78M228.63,453a22,22,0,1,0,22,22,22,22,0,0,0-22-22m0,29.19a7.51,7.51,0,1,1,7.51-7.51,7.49,7.49,0,0,1-7.51,7.51M422.86,453a22,22,0,1,0,22,22,22,22,0,0,0-22-22m0,29.2a7.51,7.51,0,1,1,7.51-7.52,7.51,7.51,0,0,1-7.51,7.52m23.86-25.43a.93.93,0,0,1-1.2-.52l-1-1.43a.88.88,0,0,1,.3-1.2,5.38,5.38,0,0,0,2.64-3.43,8.25,8.25,0,0,1-7.73-6.38,8.45,8.45,0,0,1,6.87-9.75A8.93,8.93,0,0,1,457,440.58h0s0,.07,0,.11h0C458,444.62,456.36,452.84,446.72,456.78Zm21.48,9.79c.11,4.15,24.23-1.05,24.23,15.71,0,9.08-7.42,14.61-20.29,14.61-6.63,0-14.26-2.15-19-5.34a1.45,1.45,0,0,1-.45-1.93l4.92-8.21a1.48,1.48,0,0,1,.91-.69,1.45,1.45,0,0,1,1.11.17c3.38,2.09,8.72,4.45,13.43,4.45,3.64,0,5.74-.9,5.82-2.11.38-5.21-23.39,0-25.42-15.26-1.15-8.7,5.74-14.75,18.59-14.75A31.6,31.6,0,0,1,489.61,458a1.46,1.46,0,0,1,.51,2l-4.26,7.41a1.44,1.44,0,0,1-2.06.5,18,18,0,0,0-11.09-3.55c-2.53,0-4.55.69-4.51,2.24m33.89-10.87a4.5,4.5,0,0,1-2.23,3.88,4.53,4.53,0,0,1-4.47,0,4.47,4.47,0,0,1-1.64-6.11,4.31,4.31,0,0,1,1.64-1.64,4.47,4.47,0,0,1,6.7,3.87Zm-.86,0a3.47,3.47,0,0,0-1.06-2.55,3.6,3.6,0,0,0-5.1,0,3.61,3.61,0,1,0,6.16,2.55Zm-5.64-2.39h2.14a1.9,1.9,0,0,1,1.31.37,1.22,1.22,0,0,1,.41,1,1.19,1.19,0,0,1-.31.83,1.76,1.76,0,0,1-1,.51,1.5,1.5,0,0,1,.41.22,2.39,2.39,0,0,1,.38.49s.26.48.77,1.38h-1.4a11.85,11.85,0,0,0-.92-1.63.67.67,0,0,0-.47-.27l-.15,0v1.88h-1.19Zm1.19,2h.52a1.19,1.19,0,0,0,.72-.17.55.55,0,0,0,0-.86,1.09,1.09,0,0,0-.69-.17h-.56Z" transform="translate(-146.28 -152.02)"></path>
  <path class="cls-4" d="M305.5,406.61a4.4,4.4,0,0,1-.6,2.24,4.28,4.28,0,0,1-1.64,1.63,4.47,4.47,0,1,1,0-7.74,4.31,4.31,0,0,1,1.64,1.64A4.36,4.36,0,0,1,305.5,406.61Zm-.86,0a3.62,3.62,0,1,0-1.06,2.55A3.48,3.48,0,0,0,304.64,406.61ZM299,404.22h2.14a1.9,1.9,0,0,1,1.31.37,1.25,1.25,0,0,1,.41,1,1.19,1.19,0,0,1-.31.83,1.89,1.89,0,0,1-1,.51,1.39,1.39,0,0,1,.41.22,2.46,2.46,0,0,1,.38.49s.26.48.77,1.38h-1.41a9.94,9.94,0,0,0-.92-1.63.63.63,0,0,0-.47-.27l-.14,0V409H299Zm1.19,2h.51a1.2,1.2,0,0,0,.73-.17.52.52,0,0,0,.21-.43.54.54,0,0,0-.2-.43,1.13,1.13,0,0,0-.69-.17h-.56Z" transform="translate(-146.28 -152.02)"></path>
</svg>
