<?xml version="1.0" encoding="UTF-8"?>
<svg xmlns="http://www.w3.org/2000/svg" width="139" height="50" viewBox="0 0 139 50" fill="none">
  <path d="M57.0764 9.1306V4.47852H39.0513V35.8468H44.1855V22.5151H55.3381V17.8102H44.1855V9.1306H57.0764Z" fill="#041C2C"></path>
  <path d="M72.6468 14.5173C71.3858 14.5008 70.1397 14.792 69.0165 15.3658C67.8934 15.9395 66.9271 16.7785 66.2014 17.81V14.926H61.2233V35.8374H66.2014V25.2336C66.2014 21.5735 68.927 19.1165 72.5412 19.1165C73.1407 19.1257 73.7377 19.1957 74.3231 19.3255V14.6734C73.7708 14.5667 73.2093 14.5144 72.6468 14.5173Z" fill="#041C2C"></path>
  <path d="M86.0726 36.2653C91.5835 36.2653 94.8739 33.1287 94.8739 28.1115V14.9268H89.9486V27.4731C89.9486 30.0357 88.3252 31.6568 86.0726 31.6568C83.8201 31.6568 82.2036 30.0449 82.2036 27.4823V14.9268H77.269V28.1023C77.269 33.1287 80.5687 36.2653 86.0726 36.2653Z" fill="#041C2C"></path>
  <path d="M112.33 19.1167V14.9261H107.037V6.36133H102.059V14.9261H98.6007V19.1167H102.059V29.3646C102.059 33.2336 105.361 36.2646 109.177 36.2646C110.382 36.2646 111.691 35.9523 112.215 35.5758V31.7687H109.815C108.242 31.7687 107.037 30.6206 107.037 28.7836V19.1167H112.33Z" fill="#041C2C"></path>
  <path d="M126.945 36.2648C133.443 36.2648 138.21 31.5071 138.21 25.39C138.21 19.273 133.443 14.5176 126.945 14.5176C120.447 14.5176 115.677 19.2753 115.677 25.39C115.677 31.5048 120.447 36.2648 126.945 36.2648ZM126.945 31.6724C125.704 31.6701 124.492 31.3002 123.462 30.6092C122.431 29.9183 121.628 28.9374 121.155 27.7905C120.682 26.6436 120.559 25.3822 120.803 24.1656C121.046 22.949 121.645 21.8319 122.523 20.9554C123.401 20.079 124.519 19.4824 125.736 19.2412C126.953 19 128.214 19.1249 129.361 19.6002C130.507 20.0756 131.486 20.8799 132.175 21.9117C132.864 22.9434 133.232 24.1562 133.232 25.3969C133.241 26.2243 133.085 27.0451 132.772 27.811C132.459 28.577 131.996 29.2725 131.41 29.8567C130.824 30.4409 130.127 30.9019 129.36 31.2126C128.593 31.5232 127.772 31.6772 126.945 31.6655V31.6724Z" fill="#041C2C"></path>
  <path d="M24.6014 10.9766L12.3122 10.9995C5.52465 11.0225 0.0114989 16.6183 1.79662e-05 23.5207C-0.011463 30.423 5.48103 36.0142 12.2686 36.0004C19.0561 35.9867 24.5693 30.3817 24.5807 23.4793V23.3691L24.6014 10.9766Z" fill="#FF2B43"></path>
  <path d="M19.9401 4.69571C19.9303 3.464 20.4087 2.27852 21.2706 1.39856C22.1324 0.518589 23.3077 0.0157448 24.5394 0L29.1318 0V4.66356C29.141 5.8937 28.6633 7.07756 27.803 7.95683C26.9426 8.83611 25.7694 9.33943 24.5394 9.35698L19.947 9.37535L19.9401 4.69571Z" fill="#13E156"></path>
  <path d="M40.3303 48.8745C39.9301 48.6599 39.6025 48.3315 39.3889 47.9308C39.1532 47.4702 39.0371 46.9577 39.0513 46.4405V42.4199H39.8389V46.5048C39.8389 47.1524 40.0127 47.6453 40.3602 47.9836C40.5396 48.1539 40.7513 48.2865 40.9828 48.3736C41.2143 48.4608 41.4609 48.5007 41.708 48.491C41.9531 48.5005 42.1976 48.4605 42.4268 48.3733C42.656 48.2861 42.8653 48.1536 43.0421 47.9836C43.3865 47.6461 43.5565 47.1524 43.5565 46.5048V42.4199H44.3463V46.4405C44.3598 46.9579 44.243 47.4704 44.0065 47.9308C43.7935 48.3312 43.4667 48.6596 43.0674 48.8745C42.6485 49.0946 42.1811 49.2059 41.708 49.1983C41.2289 49.2078 40.755 49.0965 40.3303 48.8745Z" fill="#8B92A0"></path>
  <path d="M50.5162 49.0881L48.7183 46.3487L46.9089 49.0881H45.9904L48.2866 45.6713L46.1534 42.4199H47.0719L48.7297 45.0146L50.3761 42.4199H51.2946L49.1752 45.6943L51.4347 49.0881H50.5162Z" fill="#8B92A0"></path>
  <path d="M56.5001 42.4193H58.4794C59.147 42.4023 59.8088 42.5472 60.4082 42.8418C60.9328 43.1044 61.3699 43.5136 61.6665 44.0198C61.9565 44.5474 62.1086 45.1398 62.1086 45.7419C62.1086 46.344 61.9565 46.9364 61.6665 47.464C61.3699 47.9736 60.9331 48.3873 60.4082 48.6558C59.8111 48.9582 59.1485 49.1081 58.4794 49.092H56.5001V42.4193ZM58.4702 48.3894C58.9939 48.4022 59.5125 48.2838 59.9788 48.045C60.3887 47.8338 60.7279 47.5073 60.9547 47.1058C61.1734 46.6869 61.2876 46.2214 61.2876 45.7488C61.2876 45.2762 61.1734 44.8107 60.9547 44.3917C60.7278 43.9979 60.3911 43.6787 59.9857 43.4733C59.5153 43.2402 58.995 43.1259 58.4702 43.1403H57.2877V48.3802L58.4702 48.3894Z" fill="#8B92A0"></path>
  <path d="M64.0155 42.4199H68.2887V43.1271H64.8031V45.1662H67.4713V45.8734H64.8031V48.3808H68.4104V49.0881H64.0155V42.4199Z" fill="#8B92A0"></path>
  <path d="M70.7709 48.8166C70.3425 48.562 69.9861 48.2025 69.7353 47.7719L70.3208 47.3379C70.8184 48.1033 71.4376 48.486 72.1785 48.486C72.5281 48.5018 72.8721 48.3936 73.1498 48.1806C73.2711 48.0831 73.3681 47.9586 73.433 47.8172C73.498 47.6757 73.5292 47.521 73.524 47.3654C73.5286 47.1893 73.4824 47.0155 73.3909 46.8649C73.2983 46.7244 73.176 46.6061 73.0326 46.5181C72.8811 46.424 72.6744 46.3115 72.4127 46.1829L71.6641 45.8293C71.2612 45.6511 70.8909 45.4066 70.5688 45.106C70.4303 44.9665 70.3222 44.7998 70.2514 44.6164C70.1807 44.433 70.1488 44.2369 70.1578 44.0405C70.1501 43.7133 70.2457 43.3919 70.4311 43.1221C70.6166 42.857 70.8695 42.6462 71.1636 42.5113C71.4784 42.3647 71.822 42.2902 72.1693 42.2931C72.5954 42.288 73.0153 42.3957 73.3863 42.6054C73.7406 42.7999 74.0411 43.0792 74.2611 43.4183L73.6848 43.8569C73.5152 43.5954 73.2842 43.3794 73.012 43.2277C72.7526 43.0789 72.4591 42.9998 72.1601 42.9981C71.8597 42.9891 71.5645 43.0786 71.3197 43.253C71.2076 43.3361 71.1178 43.4457 71.0581 43.5718C70.9985 43.698 70.9708 43.8369 70.9776 43.9763C70.9722 44.1472 71.0178 44.3158 71.1084 44.4608C71.196 44.5926 71.3111 44.7039 71.446 44.7868C71.5838 44.8718 71.7858 44.9774 72.0476 45.106L72.7847 45.4642C73.2204 45.6573 73.6178 45.9272 73.958 46.261C74.2182 46.5517 74.3556 46.9319 74.3415 47.3218C74.3479 47.666 74.2511 48.0043 74.0636 48.2931C73.8738 48.5788 73.6083 48.8062 73.2967 48.9498C72.9494 49.1074 72.5713 49.1858 72.1899 49.1794C71.6926 49.1907 71.2018 49.0652 70.7709 48.8166Z" fill="#8B92A0"></path>
  <path d="M76.3828 42.4199H77.1704V49.0789H76.3828V42.4199Z" fill="#8B92A0"></path>
  <path d="M80.7823 48.7438C80.2615 48.4483 79.8288 48.0196 79.5285 47.5016C79.2967 47.1088 79.1452 46.6739 79.0827 46.2222C79.0203 45.7704 79.0482 45.3108 79.1649 44.8699C79.2815 44.429 79.4845 44.0156 79.7622 43.6538C80.0398 43.292 80.3866 42.989 80.7823 42.7622C81.3151 42.4563 81.9198 42.2978 82.5343 42.303C83.0729 42.2965 83.6052 42.4193 84.0865 42.6612C84.5507 42.8944 84.9511 43.2372 85.2529 43.66L84.6559 44.1193C84.4161 43.7797 84.102 43.4994 83.7375 43.2995C83.3677 43.1017 82.9536 43.0013 82.5343 43.0079C82.0558 43.0012 81.5845 43.1242 81.1703 43.3638C80.7708 43.5956 80.4439 43.9344 80.2266 44.342C80.0033 44.7727 79.8868 45.2507 79.8868 45.7358C79.8868 46.2209 80.0033 46.6989 80.2266 47.1296C80.4479 47.5438 80.7802 47.8881 81.1864 48.1238C81.6048 48.3658 82.0808 48.4904 82.5641 48.4843C83.0189 48.4918 83.4677 48.3802 83.866 48.1606C84.2408 47.9537 84.5568 47.6551 84.7845 47.2926V46.3925H82.5113V45.6945H85.5721V47.474C85.2747 47.9993 84.8396 48.4335 84.3138 48.73C83.768 49.0411 83.1486 49.1997 82.5205 49.1893C81.912 49.1962 81.3124 49.0425 80.7823 48.7438Z" fill="#8B92A0"></path>
  <path d="M92.8603 42.4201V49.1985H92.5778L88.3345 44.0872V49.0883H87.5469V42.3076H87.8293L92.0773 47.4304V42.4201H92.8603Z" fill="#8B92A0"></path>
  <path d="M99.0692 48.8166C98.6408 48.562 98.2844 48.2025 98.0336 47.7719L98.6191 47.3379C99.1166 48.1033 99.7366 48.486 100.479 48.486C100.828 48.5018 101.171 48.3936 101.448 48.1806C101.569 48.0831 101.666 47.9587 101.731 47.8172C101.796 47.6757 101.827 47.521 101.822 47.3655C101.828 47.1895 101.782 47.0158 101.691 46.8649C101.597 46.725 101.474 46.6068 101.331 46.5182C101.179 46.424 100.973 46.3115 100.711 46.1829L99.9624 45.8293C99.56 45.65 99.19 45.4056 98.8671 45.106C98.7288 44.9665 98.6211 44.7997 98.5507 44.6163C98.4803 44.4328 98.4489 44.2368 98.4584 44.0406C98.4499 43.7135 98.5447 43.3922 98.7293 43.1221C98.9154 42.8576 99.1681 42.6469 99.4618 42.5113C99.7767 42.3647 100.12 42.2902 100.468 42.2932C100.894 42.2877 101.314 42.3954 101.685 42.6055C102.039 42.7999 102.339 43.0792 102.559 43.4183L101.983 43.8569C101.814 43.596 101.584 43.3801 101.313 43.2277C101.052 43.0789 100.758 42.9998 100.458 42.9981C100.159 42.9884 99.8639 43.078 99.6202 43.253C99.5076 43.3358 99.4172 43.4451 99.3571 43.5713C99.297 43.6975 99.2691 43.8367 99.2758 43.9763C99.2705 44.1472 99.3161 44.3158 99.4067 44.4608C99.4945 44.5933 99.6105 44.7046 99.7465 44.7868C99.8843 44.8718 100.084 44.9774 100.346 45.106L101.085 45.4642C101.52 45.6578 101.917 45.9277 102.256 46.261C102.516 46.5517 102.654 46.9319 102.64 47.3218C102.646 47.6661 102.549 48.0044 102.362 48.2931C102.172 48.5789 101.907 48.8062 101.595 48.9498C101.248 49.1074 100.87 49.1859 100.488 49.1794C99.9909 49.1907 99.5 49.0652 99.0692 48.8166Z" fill="#8B92A0"></path>
  <path d="M106.298 43.1271H103.953V42.4199H109.439V43.1271H107.085V49.0972H106.298V43.1271Z" fill="#8B92A0"></path>
  <path d="M112.242 48.8745C111.843 48.6596 111.516 48.3312 111.303 47.9308C111.068 47.4702 110.952 46.9577 110.966 46.4406V42.4199H111.753V46.5048C111.753 47.1524 111.926 47.6529 112.275 47.9836C112.454 48.1541 112.665 48.2868 112.897 48.374C113.129 48.4612 113.375 48.501 113.622 48.491C113.867 48.5005 114.112 48.4605 114.341 48.3733C114.57 48.2861 114.78 48.1536 114.956 47.9836C115.299 47.6453 115.471 47.1524 115.471 46.5048V42.4199H116.258V46.4406C116.273 46.9577 116.157 47.4702 115.921 47.9308C115.708 48.3312 115.381 48.6596 114.982 48.8745C114.563 49.0946 114.095 49.2059 113.622 49.1983C113.143 49.2075 112.668 49.0962 112.242 48.8745Z" fill="#8B92A0"></path>
  <path d="M118.522 42.4193H120.502C121.17 42.4026 121.833 42.5475 122.433 42.8418C122.956 43.1052 123.392 43.5142 123.689 44.0197C123.979 44.5474 124.131 45.1397 124.131 45.7419C124.131 46.344 123.979 46.9363 123.689 47.464C123.393 47.973 122.957 48.3865 122.433 48.6557C121.835 48.9579 121.172 49.1078 120.502 49.092H118.522V42.4193ZM120.493 48.3894C121.017 48.4019 121.536 48.2836 122.003 48.0449C122.412 47.833 122.751 47.5067 122.977 47.1058C123.196 46.6869 123.31 46.2213 123.31 45.7487C123.31 45.2762 123.196 44.8106 122.977 44.3917C122.751 43.9973 122.414 43.678 122.008 43.4732C121.538 43.2402 121.017 43.1258 120.493 43.1403H119.31V48.3802L120.493 48.3894Z" fill="#8B92A0"></path>
  <path d="M126.038 42.4199H126.826V49.0789H126.038V42.4199Z" fill="#8B92A0"></path>
  <path d="M130.44 48.7438C129.917 48.4486 129.484 48.0179 129.186 47.497C128.885 46.9642 128.727 46.3627 128.727 45.7508C128.727 45.1388 128.885 44.5373 129.186 44.0045C129.486 43.4859 129.918 43.057 130.44 42.7623C130.971 42.4642 131.57 42.3076 132.179 42.3076C132.788 42.3076 133.387 42.4642 133.918 42.7623C134.446 43.0635 134.884 43.4988 135.189 44.024C135.494 44.5492 135.654 45.1458 135.654 45.7531C135.654 46.3604 135.494 46.9569 135.189 47.4821C134.884 48.0073 134.446 48.4426 133.918 48.7438C133.387 49.0419 132.788 49.1985 132.179 49.1985C131.57 49.1985 130.971 49.0419 130.44 48.7438ZM133.535 48.1308C133.935 47.8932 134.263 47.5521 134.486 47.1434C134.71 46.7128 134.828 46.2342 134.828 45.7485C134.828 45.2627 134.71 44.7842 134.486 44.3535C134.265 43.9452 133.936 43.6053 133.535 43.3708C133.124 43.1375 132.659 43.0149 132.186 43.0149C131.713 43.0149 131.248 43.1375 130.837 43.3708C130.437 43.6038 130.109 43.9422 129.889 44.3489C129.656 44.7761 129.537 45.2562 129.544 45.7427C129.537 46.2314 129.656 46.7136 129.889 47.1434C130.109 47.5524 130.437 47.8937 130.837 48.1308C131.247 48.3669 131.712 48.4912 132.186 48.4912C132.659 48.4912 133.125 48.3669 133.535 48.1308Z" fill="#8B92A0"></path>
</svg>
