<?xml version="1.0" encoding="UTF-8"?>
<svg xmlns="http://www.w3.org/2000/svg" viewBox="0 0 265.53 31.11">
  <title>Hays</title>
  <path d="M116.49 28.44c.16-.14-11.29 18-11.34 17.92v10.22c0 .14-9.56.14-9.51 0v-10.22s-11.5-18.06-11.34-17.92c-.16-.14 10.12-.14 10.18 0-.06-.14 5.91 9.28 5.91 9.33s6-9.47 5.91-9.33c.06-.14 10.35-.14 10.19 0m-37.4 0c0-.14-9.85-.14-9.8 0-.05-.14-11.42 28.28-11.29 28.14-.16.14 9.53.14 9.63 0s1.34-3.87 1.39-4c0 .1 10 .1 10 0 0 .1 1.28 3.85 1.31 4s10 .14 9.86 0c.15.14-11.05-28.28-11.1-28.14zm-7.66 17.37s2.75-7.92 2.75-7.88 2.62 7.92 2.59 7.88-5.37.04-5.34 0zm-20.23-17.46c-2.45 0-4.9 0-4.82.1v9.24h-8.73v-9.24c.07-.07-2.37-.1-4.82-.1s-4.89 0-4.82.1v28.14c0 .07 2.41.1 4.82.1s4.83 0 4.82-.1v-9.66h8.73v9.66c0 .07 2.4.1 4.82.1s4.83 0 4.82-.1v-28.14c.07-.07-2.38-.1-4.82-.1m79.74 9.91c-3.07-.51-6.09-.34-6.32-1.62s1.35-1.44 2.54-1.38c2.5-.1 6.09 1 8.18 1.79l4.06-6.35a26.88 26.88 0 0 0-13.8-2.6c-6.56.49-10.48 4.54-10.25 9.26 0 6.06 6 7.84 8.89 8.33 4.25.82 7.54.46 7.41 2.07 0 1.1-2.06 1.46-4.24 1.32a17.88 17.88 0 0 1-9-2.62l-4.24 6.59a23.74 23.74 0 0 0 15.35 3.87c6.15-.56 10.85-3.46 11.28-8.48.92-6.75-4.52-9.4-9.9-10.18m21.9-9.26h4a4.13 4.13 0 0 1 3 1.05 3.37 3.37 0 0 1 .92 2.45v.07a3.26 3.26 0 0 1-2.31 3.27l2.63 4.32h-2.13l-2.38-4a.22.22 0 0 1-.11 0h-1.79v3.94h-1.83zm3.85 5.56c1.43 0 2.23-.77 2.23-1.93 0-1.26-.81-1.91-2.2-1.91h-2v3.87zm5.13 1.44v-.1c0-2.54 1.53-4.35 3.61-4.35 2.29 0 3.5 1.91 3.5 4.45v.62h-5.3a2.17 2.17 0 0 0 2.14 2.18 2.7 2.7 0 0 0 1.95-.89l.94 1.11a3.88 3.88 0 0 1-3 1.31c-2.15 0-3.84-1.66-3.84-4.33zm5.36-.66c-.1-1.34-.7-2.31-1.75-2.31s-1.69.88-1.82 2.31zm2.76.67v-.16c0-2.52 1.64-4.33 3.86-4.33a3.57 3.57 0 0 1 2.71 1.14l-1 1.33a2.27 2.27 0 0 0-1.7-.85c-1.18 0-2 1.13-2 2.73v.13c0 1.64.86 2.74 2.09 2.74a2.38 2.38 0 0 0 1.72-.86l1 1.2a3.56 3.56 0 0 1-2.81 1.27c-2.28-.02-3.87-1.79-3.87-4.35zm7.81-4.33h1.81v1.65a2.5 2.5 0 0 1 2.53-1.78v2h-.05c-1.47 0-2.45 1-2.45 2.89v3.73h-1.81zm5.43 5.66v-5.63h1.8v5.15c0 1.18.56 1.83 1.5 1.83s1.56-.69 1.56-1.87v-5.11h1.82v8.45h-1.82v-1.23a2.61 2.61 0 0 1-2.29 1.39c-1.62 0-2.57-1.14-2.57-2.95zm8.54-8.66h1.92v1.77h-1.92zm.07 3h1.8v8.45h-1.8zm4.05 6.41v-4.84h-.93v-1.54h.93v-2.28h1.8v2.28h1.9v1.54h-1.9v4.5a.81.81 0 0 0 .91.92 2 2 0 0 0 1-.24v1.49a3.08 3.08 0 0 1-1.5.36 1.92 1.92 0 0 1-2.21-2.16zm5.12-9.41h1.91v1.77h-1.91zm.06 3h1.8v8.45h-1.78zm3.7 0h1.8v1.32a2.66 2.66 0 0 1 2.32-1.4c1.62 0 2.59 1.14 2.59 2.95v5.66h-1.8v-5.21c0-1.18-.56-1.84-1.51-1.84s-1.6.7-1.6 1.87v5.12h-1.8zm8.32 10.12l.59-1.42a4.9 4.9 0 0 0 2.53.72 2 2 0 0 0 2.3-2.23v-.82a3 3 0 0 1-2.55 1.48c-1.69 0-3.22-1.35-3.22-4v-.06c0-2.62 1.55-4 3.22-4a3 3 0 0 1 2.49 1.53v-1.29h1.8v7.07a3.81 3.81 0 0 1-.95 2.81 4.1 4.1 0 0 1-3.05 1 6.69 6.69 0 0 1-3.16-.79zm5.43-6.24a2.16 2.16 0 0 0-2-2.4c-1.1 0-1.94.9-1.94 2.4s.86 2.42 1.94 2.42a2.18 2.18 0 0 0 1.96-2.42zm7.39.47v-.13c0-2.54 1.53-4.35 3.6-4.35 2.3 0 3.51 1.91 3.51 4.45v.62h-5.3a2.17 2.17 0 0 0 2.14 2.18 2.66 2.66 0 0 0 1.94-.89l1 1.11a3.88 3.88 0 0 1-3 1.31c-2.24 0-3.93-1.66-3.93-4.33zm5.36-.66c-.1-1.34-.7-2.31-1.76-2.31s-1.69.88-1.81 2.31zm5.79-.83l1.64-2.83h1.9l-2.54 4.13 2.65 4.32h-2l-1.72-3-1.74 3h-1.89l2.61-4.32-2.52-4.13h1.95zm4.67-2.83h1.8v1.35a2.86 2.86 0 0 1 2.47-1.51c1.69 0 3.29 1.42 3.29 4.27v.18c0 2.84-1.58 4.28-3.29 4.28a2.89 2.89 0 0 1-2.47-1.44v3.68h-1.8zm5.74 4.3v-.14c0-1.69-.88-2.73-2-2.73s-2 1-2 2.71v.15c0 1.66.93 2.71 2 2.71s1.96-1.01 1.96-2.71zm2.73 0v-.11c0-2.54 1.53-4.35 3.6-4.35 2.3 0 3.51 1.91 3.51 4.45v.62h-5.29a2.17 2.17 0 0 0 2.07 2.18 2.7 2.7 0 0 0 1.94-.89l.94 1.11a3.84 3.84 0 0 1-3 1.31c-2.12 0-3.81-1.66-3.81-4.33zm5.36-.66c-.1-1.34-.7-2.31-1.76-2.31s-1.69.88-1.81 2.31zm3.14-3.66h1.8v1.65a2.52 2.52 0 0 1 2.54-1.78v2h-.08c-1.47 0-2.46 1-2.46 2.89v3.73h-1.8zm6 6.41v-4.85h-.92v-1.54h.92v-2.28h1.8v2.28h1.9v1.54h-1.9v4.5a.81.81 0 0 0 .91.92 2 2 0 0 0 1-.24v1.49a3.07 3.07 0 0 1-1.49.36 1.92 1.92 0 0 1-2.25-2.16zm4.39 1l.84-1.3a3.82 3.82 0 0 0 2.33 1c.75 0 1.18-.4 1.18-.92 0-.6-.65-.87-1.66-1.31-1.26-.54-2.31-1.11-2.31-2.5a2.53 2.53 0 0 1 2.79-2.47 4.76 4.76 0 0 1 2.74.91l-.76 1.32a3.78 3.78 0 0 0-2-.75c-.67 0-1.07.37-1.07.83 0 .56.67.85 1.66 1.29 1.31.59 2.29 1.2 2.29 2.52a2.57 2.57 0 0 1-2.88 2.57 5 5 0 0 1-3.15-1.15zm-116.3 6.1h1.91v1.8h-1.91zm.07 3h1.8v8.44h-1.8zm3.69 0h1.8v1.24a2.64 2.64 0 0 1 2.31-1.4c1.63 0 2.6 1.15 2.6 3v5.65h-1.8v-5.15c0-1.18-.56-1.84-1.52-1.84s-1.59.71-1.59 1.87v5.11h-1.8zm12.49-2.71h3.41c3.18 0 5.28 2.23 5.28 5.5v.12c0 3.27-2.1 5.53-5.28 5.53h-3.41zm1.84 1.67v7.84h1.55c2 0 3.39-1.45 3.39-3.84v-.1c0-2.4-1.35-3.87-3.39-3.87zm8.46-2h1.91v1.84h-1.91zm.06 3h1.8v8.44h-1.8zm3.69 10.16l.59-1.42a4.87 4.87 0 0 0 2.53.72 2 2 0 0 0 2.29-2.23v-.81a3 3 0 0 1-2.55 1.48c-1.68 0-3.21-1.35-3.21-4v-.06c0-2.62 1.54-4 3.21-4a3 3 0 0 1 2.54 1.42v-1.18h1.8v7.07a3.83 3.83 0 0 1-1 2.81 4.12 4.12 0 0 1-3 1 6.58 6.58 0 0 1-3.2-.8zm5.43-6.23a2.16 2.16 0 0 0-2-2.4c-1.1 0-1.95.9-1.95 2.4s.86 2.42 1.95 2.42a2.18 2.18 0 0 0 1.98-2.42zm3.6-6.85h1.91v1.76h-1.94zm.06 3h1.8v8.44h-1.8zm4.05 6.4v-4.86h-.93v-1.54h.93v-2.24h1.8v2.28h1.89v1.54h-1.89v4.5a.8.8 0 0 0 .9.92 2 2 0 0 0 1-.24v1.48a3 3 0 0 1-1.49.37 1.92 1.92 0 0 1-2.23-2.21zm4.6-.38v-.08c0-1.82 1.21-2.71 3-2.71a5.82 5.82 0 0 1 1.95.34v-.35a1.6 1.6 0 0 0-1.82-1.72 4.75 4.75 0 0 0-2 .51l-.51-1.44a6 6 0 0 1 2.79-.67 3 3 0 0 1 3.33 3.3v5.24h-1.77v-1a2.69 2.69 0 0 1-2.34 1.19 2.47 2.47 0 0 1-2.65-2.61zm4.95-.41v-.85a4.16 4.16 0 0 0-1.56-.3c-1 0-1.64.52-1.64 1.42a1.29 1.29 0 0 0 1.37 1.34 1.7 1.7 0 0 0 1.81-1.61zm3.54-8.67h1.77v11.5h-1.79zm10 2.07h-2.93v-1.72h7.7v1.72h-3v9.43h-1.85zm4.3 5.31v-.13c0-2.53 1.53-4.35 3.6-4.35 2.29 0 3.5 1.91 3.5 4.44v.63h-5.29a2.18 2.18 0 0 0 2.13 2.18 2.7 2.7 0 0 0 2-.89l.94 1.11a3.91 3.91 0 0 1-3 1.31c-2.23 0-3.92-1.66-3.92-4.3zm5.35-.66c-.09-1.34-.7-2.31-1.75-2.31s-1.69.88-1.82 2.31zm2.75.67v-.16c0-2.51 1.65-4.33 3.86-4.33a3.57 3.57 0 0 1 2.71 1.15l-1 1.32a2.31 2.31 0 0 0-1.71-.85c-1.18 0-2 1.13-2 2.73v.08c0 1.64.86 2.74 2.09 2.74a2.38 2.38 0 0 0 1.72-.86l1 1.19a3.53 3.53 0 0 1-2.8 1.28c-2.31 0-3.91-1.77-3.91-4.29zm7.81-7.39h1.8v4.3a2.64 2.64 0 0 1 2.31-1.4c1.62 0 2.6 1.15 2.6 3v5.65h-1.85v-5.19c0-1.18-.55-1.84-1.51-1.84s-1.59.71-1.59 1.87v5.11h-1.8zm8.42 3.06h1.8v1.24a2.65 2.65 0 0 1 2.31-1.4c1.63 0 2.6 1.15 2.6 3v5.65h-1.8v-5.19c0-1.18-.56-1.84-1.51-1.84s-1.6.71-1.6 1.87v5.11h-1.8zm8 4.32v-.15a4 4 0 0 1 3.91-4.33c2.23 0 3.87 1.82 3.87 4.32v.14a4 4 0 0 1-3.91 4.32c-2.23 0-3.87-1.8-3.87-4.3zm6 0v-.09c0-1.58-.88-2.76-2.11-2.76s-2.07 1.16-2.07 2.74v.1c0 1.57.88 2.77 2.11 2.77s2.05-1.22 2.05-2.8zm3.31-7.34h1.83v11.5h-1.8zm3.31 7.38v-.15a4 4 0 0 1 3.9-4.33c2.23 0 3.87 1.82 3.87 4.32v.14a4 4 0 0 1-3.9 4.32c-2.25-.04-3.89-1.84-3.89-4.34zm6 0v-.09c0-1.58-.87-2.76-2.1-2.76s-2.07 1.16-2.07 2.74v.1c0 1.57.88 2.77 2.1 2.77s2.02-1.26 2.02-2.84zm3.22 5.8l.59-1.42a4.87 4.87 0 0 0 2.53.72 2 2 0 0 0 2.3-2.23v-.81a3 3 0 0 1-2.55 1.48c-1.69 0-3.22-1.35-3.22-4v-.06c0-2.62 1.54-4 3.22-4a3 3 0 0 1 2.53 1.42v-1.26h1.8v7.07a3.79 3.79 0 0 1-1 2.81 4.12 4.12 0 0 1-3 1 6.58 6.58 0 0 1-3.25-.8zm5.43-6.23a2.16 2.16 0 0 0-2-2.4c-1.1 0-1.94.9-1.94 2.4s.86 2.42 1.94 2.42a2.18 2.18 0 0 0 1.95-2.5zm8.6-3.85h1.86l-2.86 8.57c-.58 1.7-1.26 2.32-2.5 2.32a3.46 3.46 0 0 1-1.71-.44l.48-1.47a2 2 0 0 0 1 .29c.48 0 .76-.21 1-.89l-3-8.46h1.91l2 6.13z" transform="translate(-28.01 -28.03)" fill="#002776"></path>
</svg>
