<?xml version="1.0" encoding="UTF-8"?>
<svg xmlns="http://www.w3.org/2000/svg" id="makilo_logo" viewBox="0 0 1749.92 407.94">
  <defs>
    <style>.cls-1{fill:#1d201f}</style>
  </defs>
  <path id="Path_1839" d="M430.72 233.54v166.73H344v-160.5c0-31.62-16.77-46.47-40.72-46.47-25.87 0-44.56 15.33-44.56 47.91v159.06H172v-160.5c0-31.62-16.77-46.47-40.72-46.47-25.87 0-44.56 15.33-44.56 47.91v159.06H0V123.35h69.47l15.81 34.97c18.21-27.79 47.43-42.64 81.45-42.64 39.77 0 65.64 18.21 79.53 49.35 18.21-32.58 51.26-49.35 92.47-49.35 63.24 0 91.99 46.95 91.99 117.86Z" class="cls-1"></path>
  <path id="Path_1840" d="M770.36 123.35v276.92h-69.47l-14.37-31.62c-18.21 24.43-46.47 39.29-86.72 39.29-66.6 0-125.05-56.54-125.05-146.61s58.45-145.65 127.44-145.65c39.77 0 67.55 12.94 86.24 36.41l12.46-28.75h69.47Zm-86.72 137.98c0-40.72-24.91-66.6-60.85-66.6s-60.37 23.95-60.37 66.6 24.43 67.55 60.37 67.55 60.85-29.7 60.85-67.55Z" class="cls-1"></path>
  <path id="Path_1841" d="M1111.01 396.45c-14.85 5.26-32.58 8.61-54.62 8.61-59.41 0-86.24-25.34-104.44-88.94l-6.23-21.52H916.5v105.68h-86.72V17.73h86.72V220h32.1c3.35-6.22 6.23-11 7.67-13.39l52.22-82.73h99.66l-87.2 133.89 13.42 42.56c7.19 22.95 19.64 29.65 35.45 29.65 9.1 0 16.77-1.91 25.87-5.26l15.33 71.73Z" class="cls-1"></path>
  <path id="Path_1842" d="M1257.27 123.86v276.41h-86.72V197.5h-41.2v-73.64h127.92Zm-99.18-73.17c0-31.08 22.52-50.69 55.58-50.69s55.58 19.61 55.58 50.69-22.52 50.69-55.58 50.69-55.58-19.61-55.58-50.69Z" class="cls-1"></path>
  <path id="Path_1843" d="M1319.01 17.73h86.72v382.54h-86.72V17.73Z" class="cls-1"></path>
  <path id="Path_1844" d="M1450.96 261.81c0-90.07 64.2-146.13 149.48-146.13s149.48 56.06 149.48 146.13-64.2 146.13-149.48 146.13-149.48-56.06-149.48-146.13Zm211.29 0c0-38.81-23-66.12-61.8-66.12s-61.8 27.31-61.8 66.12 23 66.12 61.8 66.12 61.8-27.31 61.8-66.12Z" class="cls-1"></path>
</svg>
