<?xml version="1.0" encoding="UTF-8"?>
<svg xmlns="http://www.w3.org/2000/svg" width="514" height="79" viewBox="0 0 514 79" fill="none">
  <path d="M60.889 79V37.5045L47.3951 66.6865H35.6024L22.1118 37.5045V79H0V0.225342H24.1525L41.5004 37.2819L58.9604 0.225342H83.0008V79H60.889Z" fill="black"></path>
  <path d="M118.944 0.225342H96.832V79H118.944V0.225342Z" fill="black"></path>
  <path d="M153.734 40.0535V78.7747H131.622V0H148.858L181.173 40.0535V0H203.285V78.7747H185.71L153.734 40.0535Z" fill="black"></path>
  <path d="M218.276 79V0.225342H249.23C255.883 0.225342 261.742 1.26088 266.806 3.33194C271.87 5.40301 276.103 8.21281 279.505 11.7646C282.907 15.3164 285.479 19.4746 287.216 24.2458C288.954 29.017 289.824 34.1043 289.824 39.5014C289.824 45.4952 288.861 50.9116 286.933 55.757C285.004 60.6024 282.264 64.7445 278.71 68.1834C275.16 71.6222 270.887 74.2869 265.899 76.1708C260.911 78.058 255.352 79 249.23 79H218.276V79ZM267.373 39.5014C267.373 36.469 266.957 33.6947 266.126 31.1816C265.296 28.6654 264.102 26.5201 262.553 24.7459C261.003 22.9716 259.094 21.5844 256.829 20.5844C254.561 19.5875 252.029 19.0875 249.23 19.0875H240.388V60.1378H249.23C252.102 60.1378 254.673 59.6217 256.942 58.5861C259.21 57.5506 261.119 56.1086 262.668 54.2601C264.218 52.4084 265.388 50.2277 266.183 47.7114C266.977 45.1984 267.373 42.4628 267.373 39.5014V39.5014Z" fill="black"></path>
  <path d="M356.834 60.1378V79H299.459V0.225342H355.815V19.0875H321.571V30.1816H350.823V47.7114H321.571V60.1378H356.834V60.1378Z" fill="black"></path>
  <path d="M367.149 79V0.225342H404.113C408.047 0.225342 411.673 1.02216 415 2.61256C418.326 4.20295 421.178 6.27401 423.561 8.82575C425.942 11.3775 427.811 14.297 429.173 17.5907C430.534 20.8811 431.213 24.191 431.213 27.5202C431.213 32.1043 430.195 36.3787 428.154 40.3337C426.113 44.2919 423.278 47.5275 419.648 50.0438L436.656 79H411.713L397.536 54.815H389.261V79H367.149V79ZM389.261 35.9528H403.207C404.568 35.9528 405.834 35.2108 407.005 33.7334C408.178 32.2526 408.762 30.1816 408.762 27.5202C408.762 24.7846 408.083 22.6941 406.721 21.2521C405.363 19.8101 404.001 19.0875 402.64 19.0875H389.261V35.9528Z" fill="black"></path>
  <path d="M465.923 0.225342H486.106L514 79H491.549L486.673 63.5799H465.24L460.479 79H437.916L465.923 0.225342ZM483.158 49.1567L476.014 24.7459L468.53 49.1567H483.158Z" fill="black"></path>
</svg>
