<?xml version="1.0" encoding="UTF-8"?>
<svg xmlns="http://www.w3.org/2000/svg" version="1.1" id="Vector_Flat" x="0" y="0" viewBox="0 0 377.6 106.4" style="enable-background:new 0 0 377.6 106.4" xml:space="preserve">
  <style>.st1{fill:#fff}</style>
  <path d="M0 33h19.6v8.1c4.6-5.9 11.7-9.5 19.9-9.5 17 0 27.2 10.9 27.2 29.5V105h-20V63.7c0-9.6-4.5-15.3-13.2-15.3-7.5 0-13.7 5.2-13.7 17.3V105H0V33zM74.6 69c0-20.7 16.6-37.4 37.3-37.4 20.7 0 37.3 16.7 37.3 37.4s-16.6 37.4-37.3 37.4c-20.7 0-37.3-16.7-37.3-37.4zm55.5 0c0-10.2-8.1-18.7-18.1-18.7-10.2 0-18 8.5-18 18.7s7.8 18.7 18 18.7c10 0 18.1-8.5 18.1-18.7zM155.7 69c0-25.5 18.7-37.4 35-37.4 9.4 0 16.7 3.5 21.5 8.5V-.1h19.7V105h-19.7v-8.1c-4.8 5.6-12.4 9.5-21.7 9.5-15.4 0-34.8-12.1-34.8-37.4zm57-.1c0-10.7-7.8-19.3-18.4-19.3-10.9 0-19.3 8.2-19.3 19.3 0 11.1 8.4 19.4 19.3 19.4 10.6 0 18.4-8.8 18.4-19.4zM239.8 69c0-25.5 18.7-37.4 35-37.4 9.4 0 16.7 3.5 21.5 8.5V33H316v72h-19.7v-8.1c-4.8 5.6-12.4 9.5-21.7 9.5-15.4 0-34.8-12.1-34.8-37.4zm57-.1c0-10.7-7.8-19.3-18.4-19.3-10.9 0-19.3 8.2-19.3 19.3 0 11.1 8.4 19.4 19.3 19.4 10.6 0 18.4-8.8 18.4-19.4zM345.8-.1V105h-19.7V-.1h19.7z"></path>
  <path d="M365.7 82.7c7.1 0 12 4.9 12 12s-4.9 11.8-12 11.8-11.8-4.8-11.8-11.8 4.7-12 11.8-12z" style="fill:#b32b2e"></path>
</svg>
