<svg xmlns="http://www.w3.org/2000/svg" viewBox="0 0 274.08 153.52"><title>pixel-centred</title><path fill="#99d1df" d="M81.83 18.4v29.9l5.18 3.46 22.43-14.96-27.61-18.4z"/><path fill="#d3f6ff" d="M192.25 18.4l-27.61-18.4-27.6 18.4-27.6-18.4-27.61 18.4 27.61 18.4-22.43 14.96-5.18 3.45 27.61 18.4 27.6-18.4 27.6 18.4 27.61-18.4-5.18-3.45-22.43-14.96 27.61-18.4z"/><path fill="#008caf" d="M192.25 18.4l-27.61 18.4 22.43 14.96 5.18-3.46v-29.9z"/><path fill="#99d1df" d="M81.83 55.21v29.9l27.61 18.4v-29.9l-27.61-18.4z"/><path fill="#008caf" d="M109.44 73.61v29.9l27.6-18.4v-29.9l-27.6 18.4z"/><path fill="#99d1df" d="M137.04 55.21v29.9l27.6 18.4v-29.9l-27.6-18.4z"/><path fill="#008caf" d="M164.64 103.51l27.61-18.4v-29.9l-27.61 18.4v29.9z"/><path d="M0 153.01v-3.4l2.71-.3c.6-.09.69-.22.69-.86v-22c0-.64-.09-.82-.69-.86l-2.71-.3v-3.44h14.58c8 0 10.36 4.21 10.36 9.16 0 7.48-4.52 10.49-11.78 10.49h-3.14v6.88c0 .69 0 .77.69.86l6.15.34v3.4zm12.17-16.08c2.84 0 6-.64 6-5.5 0-4.13-2.54-4.86-5.59-4.86h-2.56v10.36z"/><path d="M27.65 154.25v-3.4l2.19-.3c.6-.09.69-.22.69-.86v-12.69c0-.47-.13-.77-.56-.9l-2.32-.82.47-3.48h8.88v17.84c0 .69 0 .77.69.86l2.19.3v3.4zm5.55-25.84a3.53 3.53 0 0 1-3.87-3.87c0-2.45 1.42-3.78 3.87-3.78s3.91 1.33 3.91 3.78a3.54 3.54 0 0 1-3.91 3.87zM52.59 154.25v-3.35l2-.39-3.27-4.3-3.57 4.26 2.41.39v3.4h-10.29v-3.36l1.94-.39a1.73 1.73 0 0 0 1.12-.73l5.68-6.28-5.85-7a1.93 1.93 0 0 0-1-.73l-1.76-.44.43-3.48h11.43v3.48l-2.11.34 3.18 4 3.53-4-2.37-.34.43-3.48h9.48v3.48l-2 .43c-.52.17-.65.43-1.08.82l-5.25 5.81 6 7.35c.43.43.6.69 1.12.78l1.93.34v3.4zM84.41 152.57a20.08 20.08 0 0 1-8.81 2.19c-8.3 0-11.14-5.16-11.14-11.87 0-7.78 4.77-11.48 10.66-11.48 5.68 0 9.46 3 9.46 10.41 0 .52 0 2-.09 2.88h-13.15c.21 3.05 1.55 5.07 5.07 5.07a18.33 18.33 0 0 0 6.41-1.46zm-6.19-12c0-3.61-1.46-4.56-3.23-4.56s-3.35 1-3.61 4.56z" transform="translate(-1.72 -1.24)"/><path d="M83.98 153.01v-3.4l2.15-.3c.6-.09.69-.22.69-.86v-22.69c0-.47-.13-.77-.56-.9l-2.37-.82.47-3.48h8.92v27.91c0 .69 0 .77.69.86l2.11.3v3.4z"/><path d="M132.1 152.4c-2.54 1.55-6.84 2.37-10.75 2.37-10.71 0-15.09-6.23-15.09-16.21 0-9.16 5.29-16 16-16a19.09 19.09 0 0 1 9.74 2.44v8.43l-4.73-.39-.69-4.21a.87.87 0 0 0-.69-.77 13.73 13.73 0 0 0-3.83-.52c-5.46 0-8.94 3.7-8.94 11 0 7.61 3.31 11.31 8.64 11.31a16.55 16.55 0 0 0 4.3-.56c.52-.13.65-.26.77-.9l.65-4h4.6zM134.08 154.25v-3.48l1.93-.26c.6-.09.69-.22.69-.86v-12.65c0-.47-.13-.77-.56-.9l-2.32-.82.47-3.48h7.57l.52 3.44h.26c1.42-2.19 3.31-3.87 6.06-3.87a20 20 0 0 1 3.74.39v7.83l-5.16-.17-.43-2.28c-.09-.39-.21-.47-.56-.47a5.69 5.69 0 0 0-3.1 1.5v11.43c0 .69 0 .82.69.86l4.26.34v3.44zM173.12 152.57a20.08 20.08 0 0 1-8.81 2.19c-8.3 0-11.14-5.16-11.14-11.87 0-7.78 4.77-11.48 10.66-11.48 5.68 0 9.46 3 9.46 10.41 0 .52 0 2-.09 2.88h-13.2c.21 3.05 1.55 5.07 5.07 5.07a18.33 18.33 0 0 0 6.41-1.46zm-6.19-12c0-3.61-1.46-4.56-3.23-4.56s-3.35 1-3.61 4.56zM188.64 154.25l-.43-2.32h-.21a9.7 9.7 0 0 1-7.22 2.88c-5.42 0-6.28-3.7-6.28-6.36 0-4.3 2.67-6.28 8-6.62l4.94-.34v-2.36c0-2-.21-3.4-2.88-3.4-2.06 0-3.14.3-3.14 2.88l-6.02-.61c0-5.8 5.29-6.62 9.24-6.62 6.54 0 9.16 1.76 9.16 7.78v10.45c0 .69 0 .77.69.86l2.06.34v3.4zm-1.16-9.25l-2.92.21c-2.54.17-3.44.82-3.44 2.54a2.15 2.15 0 0 0 2.45 2.36 7.07 7.07 0 0 0 3.91-1.55zM213.28 153a17.18 17.18 0 0 1-7 1.72c-5.12 0-7.05-2.06-7.05-6.92v-11.22c0-.26 0-.43-.34-.43h-3v-3.83c3.78-.43 5.29-2.32 5.76-7h4.08v6.11c0 .3 0 .43.34.43h6.06v4.3h-6.41v10.28c0 2.54.6 3.53 2.92 3.53a10.25 10.25 0 0 0 3.48-.69zM214.06 154.25v-3.4l2.19-.3c.6-.09.69-.22.69-.86v-12.69c0-.47-.13-.77-.56-.9l-2.32-.82.47-3.48h8.9v17.84c0 .69 0 .77.69.86l2.19.3v3.4zm5.55-25.84a3.53 3.53 0 0 1-3.87-3.87c0-2.45 1.42-3.78 3.87-3.78s3.91 1.33 3.91 3.78a3.54 3.54 0 0 1-3.92 3.87z" transform="translate(-1.72 -1.24)"/><path d="M225.15 141.96c0-7.14 3.74-11.78 11.61-11.78s11.05 4.73 11.05 11.31c0 7.31-3.7 12-11.61 12s-11.05-4.78-11.05-11.53zm15.87-.26c0-5.07-1.55-6.88-4.34-6.88s-4.73 1.76-4.73 6.92 1.68 7.27 4.56 7.27 4.51-1.93 4.51-7.31z"/><path d="M266.47 154.25v-13.89c0-2.06-.13-3.78-2.28-3.78a8.68 8.68 0 0 0-4.47 1.59v11.52c0 .69 0 .77.69.86l2.06.3v3.4h-11.86v-3.44l1.93-.26c.6-.09.69-.22.69-.86v-12.69c0-.47-.13-.77-.56-.9l-2.32-.82.52-3.48h7.52l.34 2.24.17.09a12.6 12.6 0 0 1 7.57-2.75c4.69 0 6.49 2.58 6.49 7.31v11c0 .69 0 .77.69.86l2.15.3v3.4z" transform="translate(-1.72 -1.24)"/></svg>