<?xml version="1.0" encoding="UTF-8"?>
<svg xmlns="http://www.w3.org/2000/svg" id="Layer_1" viewBox="0 0 326.76 298.46">
  <defs>
    <style>.cls-1{fill:#40484f;}.cls-2{fill:#0dacc8;}</style>
  </defs>
  <path class="cls-1" d="M170.16,0c.19,.07,.37,.19,.56,.22,3.5,.38,7,.72,10.5,1.12,5.56,.64,10.97,2.03,16.33,3.59,7.77,2.26,15.2,5.39,22.32,9.21,6,3.21,11.69,6.92,17.05,11.14,4.65,3.66,9.03,7.6,13.23,11.95-.29,.12-.5,.27-.72,.29-2.93,.24-5.88,.38-8.8,.7-4,.44-7.99,1-11.99,1.53-3.26,.43-6.53,.88-9.78,1.36-2.13,.31-4.24,.72-6.37,1.05-.33,.05-.75-.02-1.04-.2-7.74-4.81-15.99-8.43-24.82-10.68-3.14-.8-6.32-1.42-9.51-2-5.57-1.03-11.22-1.33-16.87-1.09-3.59,.15-7.16,.66-10.74,1.06-5.24,.59-10.31,1.96-15.29,3.62-5.31,1.77-10.49,3.89-15.28,6.82-4.1,2.51-8.1,5.21-12.08,7.92-1.51,1.03-2.9,2.26-4.25,3.49-1.95,1.77-3.94,3.52-5.68,5.49-2.89,3.28-5.69,6.64-8.34,10.11-3.13,4.11-5.7,8.59-7.93,13.25-3.17,6.63-5.65,13.51-7.08,20.73-.31,1.57-.43,3.21-.96,4.7-.31,.89-1.21,1.59-1.88,2.34-2.92,3.24-5.96,6.37-8.76,9.71-5.22,6.22-9.96,12.81-14.3,19.68-.83,1.32-1.62,2.67-2.69,3.96-.3-2.17-.56-4.35-.91-6.52-1.09-6.8-1-13.65-.84-20.49,.08-3.55,.54-7.1,1.08-10.62,.68-4.43,1.44-8.86,2.5-13.21,.97-3.99,2.16-7.95,3.66-11.77,1.91-4.89,4.03-9.71,6.4-14.39,2.93-5.81,6.38-11.35,10.5-16.42,2.99-3.68,6.09-7.28,9.26-10.82,4.23-4.72,9.07-8.76,14.09-12.61,6.62-5.07,13.71-9.34,21.23-12.92,5.66-2.69,11.49-5.01,17.56-6.61,4.57-1.21,9.19-2.3,13.84-3.11,4.07-.71,8.23-.95,12.35-1.41,.12-.01,.23-.14,.34-.21h14.08Z"></path>
  <path class="cls-2" d="M232.71,218.6c-4.56,2.67-8.92,5.32-13.37,7.81-7.16,4.02-14.79,6.94-22.66,9.19-4.05,1.16-8.21,2.01-12.36,2.77-3.38,.63-6.81,.92-10.22,1.37-5.77,.77-11.57,.51-17.35,.37-3.9-.09-7.79-.8-11.69-1.27-1.34-.16-2.67-.4-3.98-.69-.4-.09-.86-.4-1.08-.74-5.41-8.77-9.72-18.06-12.86-27.88-1.72-5.38-3.12-10.85-3.92-16.46-.4-2.83-.81-5.66-1.09-8.5-.25-2.53-.33-5.08-.46-7.63-.1-1.85-.3-3.7-.2-5.54,.19-3.64,.52-7.26,.86-10.89,.65-6.87,2.38-13.48,4.67-19.97,2.31-6.54,5.28-12.77,9.11-18.54,2.92-4.39,5.99-8.72,9.41-12.71,3.64-4.24,7.59-8.26,11.74-12.01,8.09-7.3,16.9-13.69,26.37-19.11,5.02-2.88,10.03-5.79,15.21-8.37,7.97-3.97,16.1-7.61,24.5-10.62,6.41-2.29,12.79-4.7,19.3-6.67,8.53-2.58,17.17-4.79,25.77-7.14,.83-.23,1.7-.35,2.51-.74-1.37,.25-2.76,.43-4.11,.75-5.89,1.38-11.8,2.67-17.64,4.22-6.16,1.63-12.31,3.37-18.38,5.34-7.34,2.39-14.62,4.99-21.86,7.68-3.83,1.42-7.56,3.13-11.26,4.85-4.88,2.26-9.76,4.54-14.52,7.03-8.43,4.42-16.58,9.33-24.21,15.04-3.82,2.86-7.58,5.81-11.16,8.95-3.65,3.2-7.21,6.55-10.53,10.09-5.81,6.19-10.9,12.96-15.15,20.34-3.66,6.35-6.73,12.96-8.94,19.95-1.56,4.91-2.9,9.87-3.55,14.99-.43,3.38-.88,6.77-1.09,10.17-.23,3.7-.32,7.42-.21,11.12,.09,3.04,.55,6.07,.84,9.1,.67,7.15,2.13,14.15,4.06,21.04,1.43,5.11,3.15,10.15,4.74,15.21,.09,.28,.19,.55,.36,1.03-.74-.28-1.37-.49-1.97-.75-8.17-3.49-15.89-7.8-23.09-13-2.77-2-5.47-4.11-8-6.39-3.69-3.32-7.36-6.69-10.74-10.31-4.88-5.24-9.17-10.96-12.98-17.05-2.97-4.76-5.73-9.64-7.91-14.8-1.88-4.45-3.46-9.04-5.12-13.59-.13-.36,.06-.93,.26-1.32,3.76-7.41,7.92-14.58,12.83-21.29,3.12-4.26,6.39-8.42,9.79-12.45,2.84-3.36,5.88-6.57,9-9.69,4.43-4.44,9.27-8.43,14.21-12.3,6.16-4.82,12.68-9.09,19.32-13.17,3.11-1.91,6.34-3.63,9.56-5.35,3.29-1.76,6.58-3.55,9.98-5.06,6.9-3.07,13.82-6.11,20.84-8.88,6.12-2.42,12.36-4.58,18.62-6.61,5.99-1.93,12.06-3.59,18.13-5.26,4.56-1.25,9.16-2.4,13.77-3.46,5.11-1.17,10.25-2.22,15.4-3.25,4.33-.87,8.66-1.69,13.01-2.43,3.53-.61,7.08-1.08,10.63-1.6,3-.44,6-.92,9.01-1.31,2.73-.36,5.47-.61,8.2-.92,2.4-.28,4.81-.59,7.21-.86,1.02-.12,2.05-.21,3.08-.25,2.63-.1,5.26-.19,7.89-.22,2.69-.04,5.38-.09,8.07,.02,2.23,.09,4.46,.39,6.67,.67,.39,.05,1.02,.47,1.03,.74,.02,.41-.32,1.06-.67,1.21-1.63,.68-3.33,1.22-5,1.82-8.06,2.93-16.21,5.63-24.14,8.87-6.99,2.86-13.8,6.17-20.55,9.57-7.16,3.61-14.01,7.79-20.52,12.48-3.78,2.72-7.42,5.66-10.95,8.69-3.01,2.58-5.93,5.31-8.65,8.2-4.71,5.01-8.84,10.47-12.24,16.48-3.42,6.04-5.96,12.43-7.52,19.18-.57,2.49-.87,5.04-1.18,7.58-.24,2.01-.41,4.03-.45,6.06-.09,5.31,.48,10.56,1.5,15.78,.92,4.75,2.2,9.38,3.9,13.89,1.92,5.09,4.73,9.7,7.96,14.08,4.33,5.87,9.36,11.12,14.75,15.97,5.35,4.81,11.1,9.17,16.7,13.7,1.45,1.17,2.97,2.25,4.77,3.6Z"></path>
  <path class="cls-1" d="M217.74,194.1c18.96-14.49,31.15-33.2,35.74-56.64,4.59-23.41,.09-45.22-12.04-65.76,1.98-1.32,3.96-2.71,6-3.99,5.7-3.57,11.66-6.66,17.78-9.46,.84-.39,1.1,.08,1.36,.56,1.77,3.24,3.69,6.41,5.19,9.78,2.09,4.69,4.09,9.44,5.68,14.31,1.61,4.94,2.82,10.02,3.93,15.1,.72,3.31,.93,6.73,1.4,10.1,.77,5.52,.8,11.08,.62,16.62-.13,3.84-.66,7.68-1.08,11.51-.67,6.11-2.08,12.07-3.79,17.96-2.18,7.52-5.13,14.74-8.74,21.68-3.41,6.56-7.46,12.73-12,18.56-3.72,4.76-7.83,9.19-12.22,13.34-1.55,1.47-3.2,2.82-4.85,4.17-.21,.17-.78,.19-1,.03-3.38-2.5-6.76-5.01-10.07-7.6-2.52-1.97-4.98-4.01-7.41-6.08-1.55-1.32-2.99-2.78-4.5-4.19Z"></path>
  <path class="cls-1" d="M0,257.43q2.86-.33,3.71,2.17c3.72,11.02,7.45,22.04,11.17,33.06,.04,.13,.13,.25,.24,.45,1.95-4.95,3.85-9.81,5.76-14.67,2.53-6.44,5.05-12.87,7.57-19.31,.24-.62,.44-1.06,1.28-1.07,.87,0,.96,.53,1.14,1.08,3.78,11.23,7.56,22.47,11.35,33.7,.03,.1,.11,.19,.21,.37,1.11-3.31,2.19-6.55,3.27-9.78,2.78-8.28,5.58-16.55,8.33-24.84,.31-.95,.7-1.47,1.77-1.28,.46,.08,.94,.01,1.55,.01-1.31,3.8-2.57,7.45-3.83,11.1-3.34,9.66-6.68,19.32-10.01,28.98-.2,.58-.34,1.05-1.16,1.05-.83,0-.95-.49-1.15-1.06-3.73-10.78-7.47-21.56-11.21-32.34-.14-.41-.31-.82-.53-1.41-.32,.84-.57,1.53-.84,2.21-4.15,10.55-8.3,21.1-12.43,31.65-.24,.62-.55,1.11-1.26,.89-.37-.12-.84-.44-.96-.78-4.63-13.18-9.22-26.38-13.82-39.58-.06-.17-.08-.36-.14-.61Z"></path>
  <path class="cls-1" d="M91.07,298.06c.55-1.31,1.03-2.47,1.51-3.63,5.06-12.1,10.12-24.2,15.18-36.3,.24-.58,.35-1.14,1.24-1.15,.89-.01,1.02,.55,1.26,1.12,5.4,12.88,10.81,25.77,16.22,38.65,.16,.37,.3,.75,.49,1.23h-3.06c-1.77-4.25-3.58-8.52-5.32-12.83-.36-.89-.77-1.22-1.76-1.21-5.32,.06-10.65,.05-15.97,0-.81,0-1.15,.28-1.44,.99-1.61,3.96-3.29,7.89-4.88,11.85-.38,.96-.84,1.47-1.92,1.29-.43-.07-.89-.01-1.55-.01Zm17.83-36.11c-2.68,6.53-5.33,13-8,19.53h16.17c-2.76-6.6-5.46-13.06-8.17-19.53Z"></path>
  <path class="cls-1" d="M227.9,257.34c.95,0,1.81-.1,2.62,.05,.33,.06,.66,.61,.83,1.01,3.59,8.45,7.16,16.9,10.73,25.36,1.43,3.39,2.82,6.79,4.26,10.27,.11-.23,.21-.44,.3-.66,2.84-6.87,5.66-13.74,8.52-20.6,1.97-4.73,4.01-9.44,5.94-14.19,.4-.98,.91-1.41,1.96-1.25,.43,.06,.88,.01,1.5,.01-.21,.51-.35,.88-.51,1.24-5.53,12.95-11.06,25.9-16.59,38.85-.24,.55-.4,1.06-1.22,1.03-.7-.03-.96-.34-1.2-.9-5.59-13.08-11.2-26.16-16.8-39.25-.11-.27-.2-.55-.35-.97Z"></path>
  <path class="cls-1" d="M324.6,274.66v2.4h-14.51v18.57h16.66v2.37h-19.38v-40.57h18.73v2.27h-16.01v14.96h14.5Z"></path>
  <path class="cls-1" d="M176.41,298.03h-2.69c-.02-.41-.05-.8-.05-1.19,0-4.06,.03-8.12-.03-12.17-.01-.73-.23-1.55-.6-2.18-4.63-7.98-9.31-15.93-13.97-23.88-.2-.34-.38-.7-.68-1.26,1.08,0,1.99-.07,2.89,.04,.3,.03,.64,.45,.82,.77,4.29,7.48,8.56,14.98,12.83,22.47,.05,.1,.13,.18,.23,.31,1.25-2.21,2.49-4.39,3.73-6.56,2.99-5.23,6-10.45,8.94-15.71,.56-1,1.17-1.52,2.33-1.34,.43,.07,.89,.01,1.58,.01-.29,.52-.48,.89-.69,1.25-4.7,8.02-9.41,16.04-14.08,24.08-.35,.6-.54,1.38-.55,2.08-.05,4.39-.02,8.78-.02,13.29Z"></path>
</svg>
