<?xml version="1.0" encoding="UTF-8"?>
<svg xmlns="http://www.w3.org/2000/svg" xmlns:xlink="http://www.w3.org/1999/xlink" width="400" height="105" viewBox="0 0 400 105">
  <defs>
    <style>.cls-1{isolation:isolate}.cls-2{fill:#696e7e}.cls-3{fill:#fdd10d}.cls-4{fill:#fec909}.cls-5{fill:url(#linear-gradient)}.cls-6{fill:url(#linear-gradient-2)}.cls-7{fill:url(#linear-gradient-3)}.cls-8{mix-blend-mode:darken}.cls-9{fill:url(#linear-gradient-4)}</style>
    <linearGradient id="linear-gradient" x1="48.997" y1="97.962" x2="49.388" y2="97.962" gradientUnits="userSpaceOnUse">
      <stop offset="0" stop-color="#ee2439"></stop>
      <stop offset=".26" stop-color="#ec2439"></stop>
      <stop offset=".41" stop-color="#e32539"></stop>
      <stop offset=".533" stop-color="#d5273a"></stop>
      <stop offset=".641" stop-color="#c1293b"></stop>
      <stop offset=".739" stop-color="#a72b3c"></stop>
      <stop offset=".83" stop-color="#882e3d"></stop>
      <stop offset=".915" stop-color="#62323f"></stop>
      <stop offset=".994" stop-color="#373741"></stop>
      <stop offset="1" stop-color="#343741"></stop>
    </linearGradient>
    <linearGradient id="linear-gradient-2" x1="33.336" y1="75.684" x2="63.41" y2="75.684" xlink:href="#linear-gradient"></linearGradient>
    <linearGradient id="linear-gradient-3" x1="44.287" y1="30.289" x2="99.622" y2="90.609" gradientUnits="userSpaceOnUse">
      <stop offset="0" stop-color="#fdd10e"></stop>
      <stop offset=".123" stop-color="#fdcb0f"></stop>
      <stop offset=".282" stop-color="#fbbb14"></stop>
      <stop offset=".46" stop-color="#f9a01a"></stop>
      <stop offset=".654" stop-color="#f57b24"></stop>
      <stop offset=".856" stop-color="#f14c30"></stop>
      <stop offset="1" stop-color="#ee263a"></stop>
    </linearGradient>
    <linearGradient id="linear-gradient-4" y1="49.164" x2="96.36" y2="49.164" gradientUnits="userSpaceOnUse">
      <stop offset=".046" stop-color="#ffca0a"></stop>
      <stop offset=".242" stop-color="#ffca0c"></stop>
      <stop offset=".313" stop-color="#ffcc13"></stop>
      <stop offset=".363" stop-color="#ffce1e"></stop>
      <stop offset=".404" stop-color="#ffd22f"></stop>
      <stop offset=".439" stop-color="#ffd745"></stop>
      <stop offset=".47" stop-color="#ffdd61"></stop>
      <stop offset=".498" stop-color="#ffe481"></stop>
      <stop offset=".524" stop-color="#ffeca7"></stop>
      <stop offset=".547" stop-color="#fff5d0"></stop>
      <stop offset=".568" stop-color="#fffffe"></stop>
      <stop offset=".569" stop-color="#fff"></stop>
      <stop offset=".724" stop-color="#fff"></stop>
    </linearGradient>
  </defs>
  <title>dateArtboard 1</title>
  <g class="cls-1">
    <g id="Layer_1" data-name="Layer 1">
      <path class="cls-2" d="M120.026 52.277l-.58 2.606c-.772 3.572-2.896 5.02-9.267 5.02h-7.24l1.062-5.02c1.448-6.757 5.02-8.109 9.846-8.109 4.73 0 7.144 1.159 6.179 5.503m12.066-.29c2.028-9.17-.772-15.06-17.086-15.06-14.48 0-20.948 5.214-24.616 22.59l-1.931 9.17c-2.8 13.226 2.027 21.142 18.631 21.142a61.016 61.016 0 0 0 18.33-2.971l2.26-10.64c-4.254 1.25-12.691 2.992-17.79 2.992-8.302 0-10.233-3.765-9.075-9.074l.193-1.159h8.11c15.155 0 20.078-3.379 21.913-12.26zm14.669 23.265l12.452-58.307h-12.742l-12.936 60.913c-1.93 9.171 1.738 11.97 8.592 11.97a39.654 39.654 0 0 0 10.03-2.017l1.985-9.337a51.79 51.79 0 0 1-5.547 1.315c-1.931 0-2.51-1.255-1.834-4.537m68.488-21.43l-4.054 19.113c-.87 4.054-3.476 6.468-9.557 6.468-6.178 0-7.626-2.414-6.758-6.468l4.055-19.114c.869-4.44 3.378-6.468 9.557-6.468 6.081 0 7.626 2.028 6.757 6.468m12.936-1.351c2.413-11.584-3.669-15.542-18.342-15.542-13.708 0-20.851 3.958-23.168 15.542l-4.634 21.817c-2.606 11.584 3.476 15.541 18.149 15.541 13.708 0 20.851-3.957 23.36-15.541zm71.331-6.706l3.791-7.774H289.34l-13.71 35.428-1.255-35.428h-12.453L246.38 73.418l.483-35.428h-13.901l3.282 50.873h12.357l15.831-33.98 1.641 33.98h12.26zm-128.44 29.488l12.453-58.307h-12.743l-12.935 60.913c-1.93 9.171 1.737 11.97 8.591 11.97a37.4 37.4 0 0 0 9.126-1.742l1.984-9.331a31.503 31.503 0 0 1-4.642 1.034c-1.93 0-2.51-1.255-1.834-4.537" id="ellow"></path>
      <path class="cls-3" d="M333.935 75.734c-2.093 10.093 2.204 13.51 9.73 13.603l10.936-51.444h-12.557zM384.7 36.928c-12.55 0-25.1 5.599-25.679 8.302l-9.267 43.633h12.743l8.108-38.517c.29-1.448 6.082-2.8 10.426-2.8s5.31 1.159 4.151 6.661l-7.336 34.656h12.645l7.337-34.945c2.317-10.426 2.896-16.99-13.129-16.99zm-50.183-9.943a18.395 18.395 0 0 1 6.274 1.158l4.73-9.364a25.397 25.397 0 0 0-11.68-2.51c-9.557 0-16.797 3.186-19.983 18.439l-.675 3.185h-6.514l-4.85 9.943h9.24L299.46 102.83h12.646l11.599-54.994h13.131l2.124-9.943h-13.131l.675-3.185c.966-4.73 2.317-7.723 8.013-7.723z" id="Fin_-_Fill" data-name="Fin - Fill"></path>
      <path class="cls-4" d="M353.277 38.965l-10.473 49.273c-3.273-.166-5.51-1.049-6.827-2.687-1.574-1.958-1.907-5.187-.994-9.592l7.927-36.994h10.367m1.324-1.072h-12.557l-8.109 37.841c-2.093 10.093 2.204 13.51 9.73 13.603l10.936-51.444zM384.7 38c6.316 0 10.233 1.054 11.973 3.223 2.088 2.603 1.324 6.993.106 12.475l-7.158 34.093h-10.453l7.063-33.363c.604-2.872.775-5.07-.355-6.464-1.063-1.309-2.957-1.49-4.845-1.49a29.929 29.929 0 0 0-6.999.89c-3.706.95-4.33 2.037-4.475 2.761l-7.93 37.666h-10.55l8.992-42.336C360.505 43.628 372.13 38 384.7 38m0-1.072c-12.549 0-25.098 5.599-25.678 8.302l-9.267 43.633h12.743l8.108-38.517c.29-1.448 6.082-2.8 10.426-2.8s5.31 1.159 4.151 6.661l-7.336 34.656h12.645l7.337-34.945c2.317-10.426 2.896-16.99-13.129-16.99zm-50.859-19.587a23.31 23.31 0 0 1 10.203 1.986l-3.797 7.516a17.887 17.887 0 0 0-5.73-.93c-6.752 0-8.14 4.059-9.061 8.572l-.676 3.186-.274 1.294h13.129l-1.666 7.8h-13.133l-.18.85-11.419 54.144h-10.455l11.326-53.702.273-1.293h-8.846l3.804-7.799h6.712l.18-.85.677-3.188c3.048-14.595 9.773-17.586 18.933-17.586m0-1.071c-9.557 0-16.797 3.185-19.982 18.438l-.676 3.185h-6.514l-4.85 9.943h9.24L299.46 102.83h12.647l11.598-54.994h13.131l2.124-9.943h-13.131l.675-3.186c.966-4.73 2.317-7.722 8.013-7.722a18.395 18.395 0 0 1 6.274 1.158l4.73-9.364a25.397 25.397 0 0 0-11.68-2.51z" id="Fin_-_Stroke" data-name="Fin - Stroke"></path>
      <path class="cls-5" d="M49.388 97.7l-.39.524q.199-.257.39-.525z"></path>
      <path class="cls-6" d="M53.496 84.04c-.22-7.76-4.988-13.148-9.473-18.86q-6.037-7.688-12.068-15.382-.386-.482-.77-.972c.98 13.557 1.87 27.12 2.78 40.682.256 3.8.294 8.404 2.93 11.413 2.513 2.87 7.533 1.464 10.13-.638a12.43 12.43 0 0 0 1.955-2.037 23.256 23.256 0 0 0 4.516-14.206z"></path>
      <path class="cls-7" d="M81.791 13.783c-4.951-1.29-9.605-2.327-14.635-3.313 0 0-.111-.02-.223-.037a11.317 11.317 0 0 0-10.25 3.742l-2.94 3.92-3.495-4.568s-4.506-6.916-9.076-7.68c-4.556-.763-1.381-.242-4.13-.721L13.9 1.086C10.779.54 7.24-.542 4.134.324-1.072 1.776-.743 7.31 1.738 11.032c.575.863 1.215 1.677 1.848 2.497C9.78 21.562 16.064 29.527 22.32 37.511q4.817 6.147 9.64 12.288l12.07 15.383c4.484 5.711 9.253 11.1 9.472 18.859a23.256 23.256 0 0 1-4.516 14.207l-.06.08.078-.103.39-.525C60.842 82.363 72.099 66.548 83.55 51.224c3.863-5.17 9.232-10.792 11.7-16.85 4.188-10.277-4.158-18.168-13.458-20.591z"></path>
      <g class="cls-8">
        <path class="cls-9" d="M6.71 1.072a26.465 26.465 0 0 1 5.101.7c.647.132 1.283.261 1.904.37L25.339 4.17l11.519 2.01c1.132.198 1.232.221 1.285.233.14.033.187.043 2.852.49 3.36.562 7.17 5.394 8.356 7.208l.022.034.024.032 3.494 4.568.86 1.124.849-1.132 2.928-3.905a10.228 10.228 0 0 1 7.646-3.458 11.122 11.122 0 0 1 1.6.118l.177.03c5.272 1.032 9.901 2.08 14.57 3.297 5.754 1.5 10.444 4.9 12.545 9.094a11.729 11.729 0 0 1 .19 10.056c-1.766 4.338-5.089 8.467-8.302 12.46-1.156 1.436-2.248 2.793-3.264 4.152-5.807 7.772-11.66 15.8-17.32 23.563-3.717 5.1-7.52 10.318-11.337 15.497a23.333 23.333 0 0 0 .54-5.632c-.212-7.514-4.506-12.932-8.659-18.172l-1.041-1.318q-4.151-5.287-8.299-10.577l-3.77-4.805-3.354-4.275q-3.144-4.006-6.286-8.013l-4.23-5.392c-4.77-6.078-9.703-12.363-14.5-18.583l-.203-.264c-.57-.737-1.108-1.434-1.601-2.173C1.194 8.283.698 5.727 1.366 3.926a4.21 4.21 0 0 1 3.056-2.57 8.434 8.434 0 0 1 2.287-.284M6.71 0a9.554 9.554 0 0 0-2.575.324C-1.072 1.776-.743 7.31 1.738 11.032c.575.863 1.215 1.677 1.848 2.497C9.78 21.562 16.064 29.527 22.32 37.511q4.817 6.147 9.64 12.288l12.07 15.383c4.484 5.711 9.253 11.1 9.472 18.859a23.256 23.256 0 0 1-4.516 14.207l-.046.063.063-.086.392-.525C60.84 82.363 72.098 66.548 83.549 51.224c3.863-5.17 9.232-10.792 11.7-16.85 4.188-10.277-4.158-18.168-13.458-20.591-4.951-1.29-9.605-2.327-14.635-3.313 0 0-.111-.02-.223-.037a12.161 12.161 0 0 0-1.76-.13 11.303 11.303 0 0 0-8.49 3.872l-2.94 3.92-3.495-4.568s-4.506-6.916-9.076-7.68c-4.556-.763-1.381-.242-4.13-.721L13.9 1.086A42.93 42.93 0 0 0 6.709 0zm42.23 98.31l-.013.019.013-.018z"></path>
      </g>
    </g>
  </g>
</svg>
