<?xml version="1.0" encoding="UTF-8"?>
<svg xmlns="http://www.w3.org/2000/svg" id="youcanbook.me" viewBox="0 0 1349.49 263.52">
  <title>ycbm</title>
  <g id="youcanbook.me-2">
    <path d="M372.85,87.31h8.35L349,206.8c-4,14.31-10.93,19.48-23.06,19.48-2.58,0-5.17-.2-7.75-.4v-6.76c2.78.2,4.18.4,6.56.4,9.74,0,13.72-2.78,17.5-16.3l3.18-10.93-30.62-105h8.35l26.24,93.24h.4Z" fill="#6d6e65"></path>
    <path d="M416.84,193.68c-27.44,0-34.2-24.45-34.2-54.47,0-29.82,6.76-54.28,35.39-54.28,27.44,0,34.2,24.45,34.2,54.28C452.23,169.23,445.47,193.68,416.84,193.68Zm.6-102c-19.88,0-26.44,17.7-26.44,47.72,0,29.82,6.56,47.52,26.44,47.52s26.44-17.7,26.44-47.52C443.88,109.38,437.32,91.69,417.44,91.69Z" fill="#6d6e65"></path>
    <path d="M523.9,191.3h-7.55V175.59h-.4c-3.58,9.15-12.33,18.09-26.44,18.09-14.71,0-26.24-8.35-26.24-28V87.31h7.55v74.75c0,18.49,7.75,24.85,20.68,24.85,15.91,0,24.85-14.91,24.85-33V87.31h7.55Z" fill="#6d6e65"></path>
    <path d="M629.27,157.3c0,9.74-5.37,36.38-32.21,36.38s-33.6-23.66-33.6-54.87c0-34.39,10.54-53.88,35-53.88,25.25,0,30.22,24.65,30.22,32.21h-8.35c0-6.36-4.18-25.45-22.07-25.45-19.28,0-26.44,17.7-26.44,47.52,0,32.41,7.16,47.72,26.44,47.72,19.09,0,22.66-21.87,22.66-29.62Z" fill="#6d6e65"></path>
    <path d="M696.27,178.77c0,5,2,7,4.57,7a9.36,9.36,0,0,0,4.77-1v6c-1.59,1.19-4.57,1.79-8,1.79-3.18,0-8.95-3.18-8.95-11.33v-6.56h-.4c-3,10.74-13.32,19.09-27.24,19.09-18.09,0-26-12.92-26-29,0-15.71,6.36-24.65,21.07-28.63l22.47-6.16c8.95-2.39,10.14-6.56,10.14-15.31,0-18.89-8.75-22.86-20.08-22.86-17.49,0-22.66,10.93-22.66,25.25h-7.55c0-14.12,5.17-32,29.42-32,22.86,0,28.43,12.53,28.43,27.44Zm-7.55-48.11h-.4c-2.59,4.18-5.37,4.77-13.12,7l-15.31,4.18c-12.13,3.38-16.5,10.54-16.5,22.86,0,13.52,6,22.27,19.09,22.27,17.7,0,26.24-13.92,26.24-34.79Z" fill="#6d6e65"></path>
    <path d="M712.91,87.31h7.55V103h.4c3.58-9.15,12.33-18.09,26.44-18.09,14.71,0,26.24,8.35,26.24,28V191.3H766V116.54c0-18.49-7.75-24.85-20.68-24.85-15.91,0-24.85,14.91-24.85,33v66.6h-7.55Z" fill="#6d6e65"></path>
    <path d="M816.09,49.34h7.55v56.26h.4c3.78-11.13,10.54-20.68,26.64-20.68,26,0,32,23.66,32,54.08,0,32.21-8.15,54.67-32.41,54.67-14.51,0-23.66-8.35-26.24-22.47h-.4V191.3h-7.55ZM823.64,139c0,30.42,7,47.91,25.45,47.91,20.48,0,25.25-21.47,25.25-47.91,0-32.41-6.36-47.32-23.86-47.32C831.39,91.69,823.64,107,823.64,139Z" fill="#6d6e65"></path>
    <path d="M929,193.68c-27.44,0-34.2-24.45-34.2-54.47,0-29.82,6.76-54.28,35.39-54.28,27.44,0,34.2,24.45,34.2,54.28C964.4,169.23,957.64,193.68,929,193.68Zm.6-102c-19.88,0-26.44,17.7-26.44,47.72,0,29.82,6.56,47.52,26.44,47.52S956,169.23,956,139.4C956,109.38,949.49,91.69,929.61,91.69Z" fill="#6d6e65"></path>
    <path d="M1009.72,193.68c-27.44,0-34.2-24.45-34.2-54.47,0-29.82,6.76-54.28,35.39-54.28,27.44,0,34.2,24.45,34.2,54.28C1045.11,169.23,1038.35,193.68,1009.72,193.68Zm.6-102c-19.88,0-26.44,17.7-26.44,47.72,0,29.82,6.56,47.52,26.44,47.52s26.44-17.7,26.44-47.52C1036.76,109.38,1030.2,91.69,1010.32,91.69Z" fill="#6d6e65"></path>
    <path d="M1056.38,49.34h7.55v93.24h.4l44.93-55.27h9.54l-32.21,38.57,38,65.41H1115l-33.8-58.65-17.3,20.48V191.3h-7.55Z" fill="#6d6e65"></path>
    <path d="M1164.34,87.31h7.55v15.51h.4c3-10.74,12.13-17.89,25.05-17.89,16.1,0,21.07,9.94,22.47,19.48h.4c1.39-7.55,9.15-19.48,25.45-19.48,16.5,0,24.85,9.94,24.85,26.44V191.3h-7.55V113.16c0-13.92-7.16-21.47-17.89-21.47-15.51,0-23.86,12.72-23.86,30.62v69h-7.55V116.74c0-15.51-5.17-25.05-18.29-25.05-16.3,0-23.46,14.32-23.46,30.62v69h-7.55Z" fill="#6d6e65"></path>
    <path d="M1290.64,138.81c0,16.7.2,48.11,24.45,48.11,21.87,0,25.45-21.87,25.45-29.62h7.55c0,15.91-8.75,36.38-32.21,36.38-26.84,0-33.6-21.87-33.6-57.26,0-31.81,11.33-51.49,34.79-51.49,24.45,0,32.41,20.28,32.41,53.88Zm50.5-6.76c0-18.89-3-40.36-24.45-40.36-23.06,0-26,26.84-26,40.36Z" fill="#6d6e65"></path>
    <circle cx="1133.29" cy="135.49" r="5.41" fill="#48aa99"></circle>
  </g>
  <path d="M207.4,0H56.12A56.29,56.29,0,0,0,0,56.12V207.4a56.29,56.29,0,0,0,56.12,56.12H207.4a56.29,56.29,0,0,0,56.12-56.12V56.12A56.29,56.29,0,0,0,207.4,0ZM76.86,214.11h-22V60.39h22Zm32.94-11h-22V104.31h22Zm0-109.8h-22v-22h22Zm32.94,120.78h-22V38.43h22Zm32.94,11h-22V192.15h22Zm0-43.92h-22V82.35h22Zm32.94,11h-22V60.39h22Z" fill="#81bcaa" fill-rule="evenodd"></path>
  <path d="M274.5,16.31a10.69,10.69,0,0,1,3-7.69,10,10,0,0,1,14.56,0,10.69,10.69,0,0,1,3,7.69A10.75,10.75,0,0,1,292,24a10,10,0,0,1-14.55,0A10.76,10.76,0,0,1,274.5,16.31Zm1.75,0a9.07,9.07,0,0,0,2.48,6.48,8.24,8.24,0,0,0,12.07,0,9.06,9.06,0,0,0,2.49-6.47,9,9,0,0,0-2.48-6.43,8.29,8.29,0,0,0-12.08,0A9,9,0,0,0,276.26,16.3Zm6.43,1.09v4.9h-2.16V10h4.06a5.6,5.6,0,0,1,3.45.95,3.26,3.26,0,0,1,1.25,2.77,2.68,2.68,0,0,1-.48,1.58,3.58,3.58,0,0,1-1.39,1.13,2.6,2.6,0,0,1,1.38,1.14,3.76,3.76,0,0,1,.43,1.85v.81a10,10,0,0,0,.05,1.06,2.42,2.42,0,0,0,.2.77v.23h-2.22a2.7,2.7,0,0,1-.16-.89q0-.59,0-1.19v-.78a2.11,2.11,0,0,0-.49-1.54,2.18,2.18,0,0,0-1.6-.49Zm0-1.88h2.2a2.82,2.82,0,0,0,1.6-.47,1.46,1.46,0,0,0,.66-1.27,1.74,1.74,0,0,0-.57-1.48,3.45,3.45,0,0,0-2-.43h-1.9Z" fill="#81bcaa"></path>
</svg>
