<?xml version="1.0" encoding="UTF-8"?><!DOCTYPE svg PUBLIC "-//W3C//DTD SVG 1.1//EN" "http://www.w3.org/Graphics/SVG/1.1/DTD/svg11.dtd"><svg xmlns="http://www.w3.org/2000/svg"><symbol id="icon-email" viewBox="0 0 24 24"><g><g><path d="M12.002 12.36l10.095-8.03c-.315-.207-.691-.33-1.096-.33h-18c-.387 0-.746.115-1.053.307l10.054 8.053zM22.764 5.076l-10.468 8.315c-.178.134-.416.134-.594-.001l-10.442-8.354c-.16.287-.259.612-.26.964v11c.001 1.103.898 2 2.001 2h17.998c1.103 0 2-.897 2.001-2v-11c0-.335-.09-.647-.236-.924z"/></g></g><path fill="none" d="M0 0h24v24h-24z"/></symbol><symbol id="icon-facebook" viewBox="0 0 24 24"><path d="M18.77 7.46h-4.27v-1.9a1 1 0 0 1 1-1.11h3v-3.94h-4.33c-3.93-.01-4.67 2.93-4.67 4.81v2.14h-3v4h3v12h5v-12h3.85z"/><path fill="none" d="M0 0h24v24h-24z"/></symbol><symbol id="icon-flickr" viewBox="0 0 24 24"><g><circle cx="18.5" cy="12" r="5"/><circle cx="5.5" cy="12" r="5"/></g><path fill="none" d="M0 0h24v24h-24z"/></symbol><symbol id="icon-foursquare" viewBox="0 0 24 24"><g><path d="M10.534 11.439c0 .495-.069.98-.205 1.453l.481.617 2.958-3.263-3.015-2.934-1.147 1.149c.583.849.928 1.872.928 2.978zM10.728 20.099l-4.161-3.554c-.432.114-.868.17-1.302.17-.244 0-.478-.038-.713-.072l6.201 6.206 7.762-7.768-.913-.915-6.874 5.933zM23.5 1l-12.746 14.06-1.549-1.983c.211-.506.329-1.055.329-1.639 0-2.359-1.911-4.27-4.269-4.27s-4.269 1.914-4.269 4.273c0 2.36 1.911 4.273 4.269 4.273.54 0 1.053-.11 1.527-.293l3.932 3.358 12.776-11.023v-6.756z"/></g><path fill="none" d="M0 0h24v24h-24z"/></symbol><symbol id="icon-instagram" viewBox="0 0 24 24"><path d="M12 2.162c3.204 0 3.584.012 4.849.07 1.366.062 2.633.336 3.608 1.311.975.975 1.249 2.242 1.311 3.608.058 1.265.07 1.645.07 4.849s-.012 3.584-.07 4.849c-.062 1.366-.336 2.633-1.311 3.608-.975.975-2.242 1.249-3.608 1.311-1.265.058-1.645.07-4.849.07s-3.584-.012-4.849-.07c-1.366-.062-2.633-.336-3.608-1.311-.975-.975-1.249-2.242-1.311-3.608-.058-1.265-.07-1.645-.07-4.849s.012-3.584.07-4.849c.062-1.366.336-2.633 1.311-3.608.975-.975 2.242-1.249 3.608-1.311 1.265-.058 1.645-.07 4.849-.07m0-2.162c-3.259 0-3.668.014-4.948.072-1.95.089-3.663.567-5.038 1.942-1.375 1.375-1.853 3.088-1.942 5.038-.058 1.28-.072 1.689-.072 4.948 0 3.259.014 3.668.072 4.948.089 1.95.567 3.663 1.942 5.038 1.375 1.375 3.088 1.853 5.038 1.942 1.28.058 1.689.072 4.948.072s3.668-.014 4.948-.072c1.95-.089 3.663-.567 5.038-1.942 1.375-1.375 1.853-3.088 1.942-5.038.058-1.28.072-1.689.072-4.948s-.014-3.668-.072-4.948c-.089-1.95-.567-3.663-1.942-5.038-1.375-1.375-3.088-1.853-5.038-1.942-1.28-.058-1.689-.072-4.948-.072zM12 5.838c-3.403 0-6.162 2.759-6.162 6.162s2.759 6.162 6.162 6.162 6.162-2.759 6.162-6.162-2.759-6.162-6.162-6.162zm0 10.162c-2.209 0-4-1.791-4-4s1.791-4 4-4 4 1.791 4 4-1.791 4-4 4z"/><circle cx="18.406" cy="5.594" r="1.44"/></symbol><symbol id="icon-soundcloud" viewBox="0 0 24 24"><g><path d="M20.647 10.341c-.231 0-.459.023-.682.07-.507-2.547-2.724-4.4-5.383-4.4-.673 0-1.361.129-1.987.372-.145.055-.588.224-.595.8v8.984c.005.447.362.819.795.829.194.004 7.069.004 7.852.004 1.835 0 3.329-1.494 3.329-3.329.001-1.836-1.493-3.33-3.329-3.33zM10.5 6.989c-.276 0-.5.224-.5.5v9.006c0 .276.224.5.5.5s.5-.224.5-.5v-9.006c0-.276-.224-.5-.5-.5zM8.5 7.989c-.276 0-.5.224-.5.5v8.006c0 .276.224.5.5.5s.5-.224.5-.5v-8.006c0-.276-.224-.5-.5-.5zM6.5 8.489c-.276 0-.5.224-.5.5v7.506c0 .276.224.5.5.5s.5-.224.5-.5v-7.506c0-.276-.224-.5-.5-.5zM4.5 10.489c-.276 0-.5.224-.5.5v5.506c0 .276.224.5.5.5s.5-.224.5-.5v-5.506c0-.276-.224-.5-.5-.5zM2.5 10.489c-.276 0-.5.224-.5.5v5.506c0 .276.224.5.5.5s.5-.224.5-.5v-5.506c0-.276-.224-.5-.5-.5zM.5 11.492c-.276 0-.5.224-.5.5v3.991c0 .277.224.5.5.5s.5-.223.5-.5v-3.991c0-.276-.224-.5-.5-.5z"/></g><path fill="none" d="M0 0h24v24h-24z"/></symbol><symbol id="icon-twitter" viewBox="0 0 24 24"><path d="M23.444 4.834c-.814.363-1.5.375-2.227.016.938-.562.981-.957 1.32-2.019-.878.521-1.851.9-2.886 1.104-.828-.882-2.009-1.435-3.316-1.435-2.51 0-4.544 2.036-4.544 4.544 0 .356.04.703.117 1.036-3.776-.189-7.125-1.998-9.366-4.748-.391.671-.615 1.452-.615 2.285 0 1.577.803 2.967 2.021 3.782-.745-.024-1.445-.228-2.057-.568l-.001.057c0 2.202 1.566 4.038 3.646 4.456-.666.181-1.368.209-2.053.079.579 1.804 2.257 3.118 4.245 3.155-1.945 1.524-4.356 2.159-6.728 1.881 2.012 1.289 4.399 2.041 6.966 2.041 8.358 0 12.928-6.924 12.928-12.929l-.012-.588c.887-.64 1.953-1.237 2.562-2.149z"/><path fill="none" d="M0 0h24v24h-24z"/></symbol></svg>