<svg xmlns="http://www.w3.org/2000/svg" width="24" height="24" viewBox="0 0 24 24"><g><path d="M10.534 11.439c0 .495-.069.98-.205 1.453l.481.617 2.958-3.263-3.015-2.934-1.147 1.149c.583.849.928 1.872.928 2.978zM10.728 20.099l-4.161-3.554c-.432.114-.868.17-1.302.17-.244 0-.478-.038-.713-.072l6.201 6.206 7.762-7.768-.913-.915-6.874 5.933zM23.5 1l-12.746 14.06-1.549-1.983c.211-.506.329-1.055.329-1.639 0-2.359-1.911-4.27-4.269-4.27s-4.269 1.914-4.269 4.273c0 2.36 1.911 4.273 4.269 4.273.54 0 1.053-.11 1.527-.293l3.932 3.358 12.776-11.023v-6.756z"/></g><path fill="none" d="M0 0h24v24h-24z"/></svg>