<svg xmlns="http://www.w3.org/2000/svg" width="24" height="24" viewBox="0 0 24 24"><path d="M12 2.162c3.204 0 3.584.012 4.849.07 1.366.062 2.633.336 3.608 1.311.975.975 1.249 2.242 1.311 3.608.058 1.265.07 1.645.07 4.849s-.012 3.584-.07 4.849c-.062 1.366-.336 2.633-1.311 3.608-.975.975-2.242 1.249-3.608 1.311-1.265.058-1.645.07-4.849.07s-3.584-.012-4.849-.07c-1.366-.062-2.633-.336-3.608-1.311-.975-.975-1.249-2.242-1.311-3.608-.058-1.265-.07-1.645-.07-4.849s.012-3.584.07-4.849c.062-1.366.336-2.633 1.311-3.608.975-.975 2.242-1.249 3.608-1.311 1.265-.058 1.645-.07 4.849-.07m0-2.162c-3.259 0-3.668.014-4.948.072-1.95.089-3.663.567-5.038 1.942-1.375 1.375-1.853 3.088-1.942 5.038-.058 1.28-.072 1.689-.072 4.948 0 3.259.014 3.668.072 4.948.089 1.95.567 3.663 1.942 5.038 1.375 1.375 3.088 1.853 5.038 1.942 1.28.058 1.689.072 4.948.072s3.668-.014 4.948-.072c1.95-.089 3.663-.567 5.038-1.942 1.375-1.375 1.853-3.088 1.942-5.038.058-1.28.072-1.689.072-4.948s-.014-3.668-.072-4.948c-.089-1.95-.567-3.663-1.942-5.038-1.375-1.375-3.088-1.853-5.038-1.942-1.28-.058-1.689-.072-4.948-.072zM12 5.838c-3.403 0-6.162 2.759-6.162 6.162s2.759 6.162 6.162 6.162 6.162-2.759 6.162-6.162-2.759-6.162-6.162-6.162zm0 10.162c-2.209 0-4-1.791-4-4s1.791-4 4-4 4 1.791 4 4-1.791 4-4 4z"/><circle cx="18.406" cy="5.594" r="1.44"/></svg>