<svg xmlns="http://www.w3.org/2000/svg" width="24" height="24" viewBox="0 0 24 24"><g><path d="M20.647 10.341c-.231 0-.459.023-.682.07-.507-2.547-2.724-4.4-5.383-4.4-.673 0-1.361.129-1.987.372-.145.055-.588.224-.595.8v8.984c.005.447.362.819.795.829.194.004 7.069.004 7.852.004 1.835 0 3.329-1.494 3.329-3.329.001-1.836-1.493-3.33-3.329-3.33zM10.5 6.989c-.276 0-.5.224-.5.5v9.006c0 .276.224.5.5.5s.5-.224.5-.5v-9.006c0-.276-.224-.5-.5-.5zM8.5 7.989c-.276 0-.5.224-.5.5v8.006c0 .276.224.5.5.5s.5-.224.5-.5v-8.006c0-.276-.224-.5-.5-.5zM6.5 8.489c-.276 0-.5.224-.5.5v7.506c0 .276.224.5.5.5s.5-.224.5-.5v-7.506c0-.276-.224-.5-.5-.5zM4.5 10.489c-.276 0-.5.224-.5.5v5.506c0 .276.224.5.5.5s.5-.224.5-.5v-5.506c0-.276-.224-.5-.5-.5zM2.5 10.489c-.276 0-.5.224-.5.5v5.506c0 .276.224.5.5.5s.5-.224.5-.5v-5.506c0-.276-.224-.5-.5-.5zM.5 11.492c-.276 0-.5.224-.5.5v3.991c0 .277.224.5.5.5s.5-.223.5-.5v-3.991c0-.276-.224-.5-.5-.5z"/></g><path fill="none" d="M0 0h24v24h-24z"/></svg>