<?xml version="1.0" standalone="no"?>
<!DOCTYPE svg PUBLIC "-//W3C//DTD SVG 20010904//EN"
 "http://www.w3.org/TR/2001/REC-SVG-20010904/DTD/svg10.dtd">
<svg version="1.0" xmlns="http://www.w3.org/2000/svg"
 width="3891.000000pt" height="3891.000000pt" viewBox="0 0 3891.000000 3891.000000"
 preserveAspectRatio="xMidYMid meet">
<metadata>
Created by potrace 1.11, written by Peter Selinger 2001-2013
</metadata>
<g transform="translate(0.000000,3891.000000) scale(0.100000,-0.100000)"
fill="#000000" stroke="none">
<path d="M23287 24854 c-1 -1 -54 -5 -117 -9 -63 -4 -128 -8 -145 -10 -16 -1
-63 -6 -103 -10 -41 -3 -81 -8 -91 -10 -9 -2 -44 -6 -76 -10 -33 -4 -69 -9
-80 -11 -11 -2 -42 -7 -70 -10 -27 -4 -53 -8 -56 -10 -4 -2 -24 -6 -45 -10
-22 -3 -70 -12 -109 -21 -38 -8 -81 -17 -95 -19 -174 -31 -594 -162 -855 -267
-196 -78 -521 -237 -680 -332 -44 -26 -100 -59 -124 -72 -179 -101 -553 -379
-771 -572 -79 -70 -354 -341 -431 -426 -467 -513 -859 -1176 -1088 -1839 -42
-122 -108 -334 -115 -371 -1 -5 -5 -19 -9 -30 -3 -11 -8 -31 -11 -45 -3 -14
-18 -86 -35 -160 -17 -74 -33 -151 -36 -170 -5 -33 -19 -116 -30 -177 -3 -16
-7 -52 -11 -81 -3 -29 -7 -62 -9 -73 -2 -11 -7 -50 -10 -87 -4 -37 -8 -78 -10
-92 -8 -53 -18 -332 -18 -480 0 -223 16 -484 38 -640 2 -14 7 -49 10 -79 4
-30 9 -63 11 -75 2 -11 6 -38 9 -61 22 -157 152 -704 172 -725 2 -3 20 13 40
35 34 38 78 87 293 325 100 110 362 400 415 459 16 19 39 44 50 55 11 12 54
60 95 106 41 47 98 110 126 140 48 53 95 104 180 199 21 24 56 62 77 85 21 22
62 68 91 101 30 33 64 72 77 86 33 35 164 181 229 254 30 33 68 76 86 95 17
19 50 55 73 80 22 25 41 52 41 60 1 8 3 22 5 30 1 8 6 33 9 55 4 22 11 56 16
75 5 19 11 49 14 65 8 48 52 213 81 305 63 194 191 485 269 608 14 23 26 44
26 48 0 16 249 377 279 404 3 3 28 32 56 65 84 102 256 276 350 356 22 19 49
42 60 53 11 10 63 51 115 90 428 325 894 532 1430 635 58 11 125 23 150 26 25
3 56 8 70 10 146 25 666 25 810 0 14 -2 45 -7 70 -10 25 -3 72 -10 105 -16 33
-6 69 -12 80 -13 42 -7 243 -57 310 -78 194 -58 407 -144 584 -235 99 -52 104
-53 120 -36 102 111 149 163 221 243 47 52 108 119 136 150 28 30 66 72 85 94
19 21 45 50 59 65 14 15 41 45 60 67 102 113 296 326 475 523 66 72 85 93 115
127 14 16 74 82 134 147 l108 119 -64 42 c-142 95 -335 206 -536 308 -117 59
-216 108 -220 109 -10 2 -32 11 -157 64 -213 90 -460 171 -730 240 -115 29
-223 56 -240 59 -168 29 -328 56 -362 60 -281 37 -451 48 -751 50 -123 1 -224
0 -225 0z"/>
<path d="M18236 24683 c-1 -1 -419 -3 -929 -4 -867 -1 -928 -2 -940 -19 -6 -9
-47 -55 -89 -101 -42 -46 -85 -94 -95 -105 -10 -12 -56 -63 -103 -114 -47 -51
-93 -102 -103 -114 -17 -19 -147 -164 -172 -190 -6 -6 -89 -99 -185 -206 -96
-107 -179 -200 -185 -206 -5 -6 -46 -51 -91 -100 -44 -49 -125 -138 -180 -199
-54 -60 -103 -115 -109 -121 -5 -6 -44 -48 -85 -94 -41 -46 -86 -95 -99 -109
-12 -14 -53 -59 -90 -100 -36 -41 -75 -84 -86 -96 -111 -124 -178 -197 -265
-295 -57 -63 -112 -124 -124 -136 -12 -12 -30 -32 -41 -45 -12 -13 -68 -76
-125 -139 -57 -63 -140 -155 -184 -205 -45 -49 -108 -119 -140 -155 -33 -36
-80 -88 -105 -116 -25 -27 -81 -88 -123 -135 -42 -46 -85 -94 -95 -105 -10
-12 -49 -55 -86 -96 -37 -42 -76 -85 -85 -96 -23 -26 -164 -182 -228 -251 -28
-31 -116 -128 -195 -216 -79 -88 -153 -171 -165 -183 -12 -13 -54 -61 -95
-107 -41 -46 -77 -84 -81 -84 -3 -1 -6 949 -6 2110 0 1434 -3 2113 -10 2118
-7 4 -2010 6 -2067 2 -7 -1 -10 -1618 -10 -4832 l0 -4830 65 69 c70 74 101
108 225 247 69 78 126 141 185 205 8 9 33 36 55 61 22 24 79 87 126 139 47 52
112 124 144 160 32 36 75 83 96 105 20 22 83 92 140 155 56 63 108 120 113
126 6 6 40 44 76 85 36 40 76 85 90 99 14 15 57 62 95 105 39 43 79 88 90 100
23 25 60 66 175 195 46 52 87 97 90 100 4 3 75 82 160 175 84 94 189 210 234
259 45 49 90 100 101 112 110 123 165 184 190 210 59 62 160 177 168 190 10
17 25 18 40 1 7 -7 50 -55 97 -107 46 -52 101 -113 121 -135 20 -22 103 -114
185 -205 160 -177 220 -244 244 -270 8 -9 49 -54 90 -100 41 -47 98 -110 126
-140 28 -30 69 -75 90 -100 21 -25 46 -52 54 -60 9 -8 56 -60 105 -115 49 -55
91 -102 94 -105 4 -3 64 -70 135 -150 72 -80 149 -165 172 -190 23 -25 66 -72
95 -105 117 -132 205 -230 224 -250 11 -11 56 -61 100 -110 44 -49 93 -103
109 -120 15 -16 49 -55 75 -85 25 -30 53 -61 62 -70 9 -8 61 -64 115 -125 55
-60 103 -115 109 -121 5 -6 44 -48 85 -94 41 -46 85 -94 97 -107 12 -13 50
-56 85 -95 35 -39 68 -76 73 -82 6 -6 56 -60 110 -121 55 -60 104 -115 110
-121 5 -6 39 -44 75 -84 59 -67 85 -96 192 -212 l34 -37 574 -1 c316 -1 948
-2 1403 -3 456 -1 830 0 832 3 2 3 -15 26 -38 50 -23 25 -103 113 -176 195
-74 83 -139 155 -145 160 -6 6 -45 48 -86 95 -41 47 -96 108 -121 135 -26 28
-66 72 -90 99 -24 27 -54 60 -66 74 -33 36 -175 192 -198 218 -11 12 -36 39
-54 60 -63 70 -223 248 -275 305 -100 109 -211 232 -229 253 -17 19 -147 163
-172 190 -5 6 -48 54 -95 106 -79 88 -154 171 -190 210 -13 13 -100 110 -230
254 -51 58 -148 165 -190 211 -20 22 -83 92 -140 155 -57 63 -109 120 -114
126 -6 6 -36 40 -68 75 -31 35 -67 76 -80 90 -21 23 -144 159 -193 213 -11 12
-58 65 -105 116 -47 52 -109 121 -139 155 -30 33 -57 62 -60 65 -4 3 -60 66
-126 140 -66 74 -127 142 -135 150 -8 8 -49 53 -90 100 -41 46 -82 91 -90 100
-8 9 -51 56 -95 104 -44 49 -91 101 -105 116 -25 28 -153 169 -180 200 -24 27
-163 180 -190 210 -48 52 -174 192 -193 213 -10 12 -54 60 -96 107 -43 47 -90
99 -104 115 l-25 31 46 51 c26 28 65 70 86 94 21 24 75 84 120 133 45 49 86
94 91 100 6 6 51 56 100 111 50 55 106 118 126 140 44 49 128 142 235 261 45
49 128 141 184 204 57 63 106 117 109 120 3 3 42 45 86 95 44 49 103 114 130
144 28 30 61 67 75 82 14 15 38 42 54 60 32 37 208 231 216 239 3 3 44 48 90
100 92 104 144 161 175 194 11 12 54 60 95 106 41 47 78 87 81 90 5 5 186 205
239 264 14 15 34 38 45 50 11 12 54 60 95 106 41 46 84 93 95 104 11 12 56 62
100 111 44 50 82 92 85 95 3 3 46 50 95 105 135 150 167 185 205 226 19 21 60
66 90 100 30 34 69 76 85 94 45 49 83 91 285 315 101 113 189 210 195 216 5 6
42 47 80 90 39 42 95 105 126 138 31 34 78 86 104 116 27 30 54 60 59 66 6 6
43 46 81 89 39 43 75 83 80 89 6 6 55 61 110 121 54 61 104 115 110 121 5 6
42 46 80 89 39 43 87 97 107 119 20 23 35 43 33 45 -4 4 -955 8 -959 4z"/>
<path d="M36839 24680 l-24 -5 0 -3632 c0 -2666 -3 -3629 -11 -3620 -13 14
-47 63 -249 362 -82 121 -153 225 -158 230 -4 6 -75 109 -157 230 -377 557
-474 700 -479 705 -3 3 -10 13 -16 22 -5 10 -40 61 -77 115 -272 399 -352 517
-444 653 -141 208 -252 371 -270 395 -7 11 -54 79 -102 150 -48 72 -137 202
-197 290 -59 88 -131 194 -159 235 -28 41 -54 80 -59 85 -4 6 -38 55 -75 110
-198 291 -350 515 -435 640 -53 77 -171 250 -262 385 -91 135 -225 331 -296
435 -71 105 -177 260 -235 345 -58 85 -178 261 -266 390 -88 129 -199 293
-246 364 -48 71 -93 134 -99 142 -7 7 -13 15 -13 19 0 3 -28 46 -62 95 -35 49
-101 145 -148 215 -47 69 -164 241 -260 382 l-175 256 -1035 0 c-569 -1 -1038
-2 -1042 -2 -5 -1 -8 -1758 -8 -3906 l0 -3905 38 42 c20 23 51 56 67 73 26 28
116 127 210 234 17 19 35 39 40 45 6 6 75 83 155 171 80 88 147 162 150 165 3
3 46 50 95 105 49 55 106 118 126 140 44 49 75 82 114 126 51 59 225 251 306
339 42 47 86 94 96 106 18 22 132 149 213 239 25 27 50 54 55 61 59 65 173
191 185 204 8 8 55 60 105 115 49 55 98 110 110 122 20 22 20 28 20 1213 0
654 1 1190 2 1190 1 0 62 -89 136 -197 205 -303 284 -419 356 -523 36 -52 71
-103 76 -112 10 -17 153 -227 250 -368 28 -41 99 -145 157 -230 204 -300 311
-457 421 -618 62 -90 128 -187 147 -217 19 -29 59 -89 89 -132 30 -43 97 -141
150 -218 52 -77 135 -198 184 -270 49 -71 131 -193 183 -270 53 -77 145 -212
205 -300 118 -172 158 -231 174 -256 21 -34 190 -282 200 -293 6 -7 15 -19 20
-29 6 -9 49 -74 97 -144 112 -165 328 -481 513 -753 80 -118 194 -285 252
-370 58 -85 161 -236 228 -335 68 -99 166 -243 218 -320 53 -77 130 -189 171
-250 116 -172 289 -426 401 -590 56 -82 146 -215 200 -295 54 -80 104 -152
112 -160 12 -13 143 -15 1053 -15 l1040 0 1 25 c4 136 1 10362 -4 10366 -7 7
-2023 11 -2058 4z"/>
<path d="M13 24666 c-4 -6 -7 -7533 -4 -7770 l1 -39 42 49 c43 49 179 200 332
368 45 49 89 98 99 110 17 19 135 151 182 202 11 12 48 53 82 91 34 38 74 83
90 100 15 16 62 68 103 113 41 46 82 91 90 100 8 9 33 36 54 60 22 25 78 87
125 139 97 107 100 110 196 217 39 44 95 106 125 139 30 34 94 103 141 155 47
52 103 115 125 140 21 24 48 54 59 66 25 27 151 166 202 222 l38 43 0 1185 c0
651 2 1184 5 1184 4 0 42 -39 86 -87 43 -47 86 -94 94 -103 8 -8 47 -51 85
-95 39 -44 79 -88 90 -100 11 -11 50 -54 85 -94 36 -41 75 -84 86 -95 12 -12
64 -68 115 -126 52 -58 98 -110 104 -116 5 -6 42 -46 80 -89 39 -43 75 -83 80
-89 6 -6 48 -54 95 -106 47 -52 92 -101 100 -110 8 -9 51 -56 95 -105 44 -49
87 -96 95 -105 8 -8 71 -78 140 -155 150 -168 200 -223 221 -244 9 -9 76 -83
149 -166 74 -82 159 -177 189 -210 31 -33 90 -98 131 -144 41 -46 80 -89 85
-95 6 -6 55 -60 110 -121 55 -60 112 -123 128 -140 l28 -30 40 45 c23 25 78
85 123 134 44 49 89 98 99 110 10 12 51 57 90 100 40 44 80 89 90 100 10 12
33 37 50 56 18 19 97 107 177 195 79 88 149 165 155 171 5 6 42 46 80 90 39
43 77 85 85 94 23 25 191 210 230 254 19 22 44 50 55 61 11 12 56 62 100 111
72 81 145 161 185 204 8 8 47 52 85 95 39 44 73 82 76 85 3 3 97 106 209 230
111 124 221 246 244 271 22 25 77 85 121 134 44 49 103 113 130 143 l50 53 0
-3626 c0 -1995 2 -3630 5 -3634 3 -4 472 -7 1042 -6 l1038 0 1 25 c4 182 -1
10353 -5 10357 -3 4 -472 7 -1042 7 l-1035 1 -83 -90 c-45 -49 -187 -207 -316
-350 -128 -143 -236 -262 -239 -265 -3 -3 -44 -48 -91 -100 -47 -52 -103 -115
-125 -139 -22 -24 -44 -49 -50 -55 -52 -59 -112 -126 -180 -201 -45 -49 -129
-142 -186 -205 -57 -63 -115 -128 -130 -145 -15 -16 -36 -40 -46 -51 -17 -21
-172 -190 -203 -224 -8 -9 -33 -36 -54 -60 -22 -25 -74 -83 -116 -130 -153
-169 -294 -325 -305 -336 -5 -6 -36 -40 -67 -75 -31 -36 -71 -81 -90 -100 -18
-20 -50 -56 -72 -80 -21 -24 -59 -66 -83 -92 l-45 -48 -18 23 c-10 13 -33 39
-51 59 -42 44 -100 107 -209 229 -47 52 -89 100 -95 106 -5 6 -48 53 -95 104
-47 51 -93 102 -103 114 -10 12 -32 37 -50 56 -18 20 -68 75 -112 124 -44 49
-91 101 -105 116 -14 15 -38 43 -55 61 -16 19 -54 61 -85 94 -30 33 -77 85
-104 115 -27 30 -83 93 -126 140 -42 47 -123 137 -180 200 -57 63 -139 155
-184 204 -98 107 -84 92 -176 196 -103 116 -100 112 -146 161 -22 24 -83 91
-135 149 -97 108 -145 162 -189 210 -14 15 -54 60 -90 100 -36 41 -88 98 -116
128 l-51 55 -1037 1 c-571 1 -1040 -3 -1043 -8z"/>
<path d="M24309 20522 l-197 -2 0 -1040 c0 -612 4 -1041 9 -1041 5 -1 208 -2
452 -3 l442 -1 44 50 c25 27 61 68 81 90 20 22 63 69 96 105 32 36 96 107 142
157 46 51 91 100 100 111 25 29 153 171 182 202 14 15 57 62 95 106 39 43 93
103 121 134 60 65 139 152 249 275 44 49 89 99 100 111 11 12 36 39 55 60 19
22 80 89 134 149 55 61 134 148 175 194 42 46 81 89 86 95 95 106 202 223 210
228 5 4 6 10 3 14 -7 6 -2187 12 -2579 6z"/>
<path d="M28626 20522 c-10 -2 -34 -22 -54 -45 -21 -23 -48 -54 -62 -68 -14
-14 -52 -57 -85 -94 -33 -38 -71 -81 -85 -95 -31 -33 -79 -86 -190 -210 -47
-52 -87 -97 -90 -100 -3 -3 -68 -75 -145 -160 -143 -160 -202 -225 -220 -244
-6 -6 -54 -58 -105 -116 -52 -58 -109 -121 -127 -140 -17 -19 -40 -45 -51 -58
-11 -12 -55 -61 -98 -109 -87 -95 -91 -100 -181 -199 -34 -38 -75 -83 -90
-100 -15 -17 -82 -91 -148 -164 -167 -186 -161 -180 -173 -180 -6 0 -13 -14
-17 -31 -19 -84 -155 -393 -250 -564 -92 -168 -273 -424 -390 -555 -82 -91
-151 -164 -190 -201 -22 -21 -65 -61 -95 -90 -45 -42 -142 -122 -270 -222 -98
-77 -324 -214 -490 -297 -168 -84 -459 -198 -574 -225 -12 -3 -63 -16 -115
-30 -51 -13 -112 -27 -134 -31 -23 -3 -44 -7 -47 -9 -4 -2 -29 -7 -56 -11 -27
-3 -51 -7 -54 -9 -3 -2 -34 -6 -70 -10 -36 -4 -74 -9 -85 -11 -91 -18 -496
-24 -655 -10 -161 14 -335 41 -469 72 -58 14 -114 27 -124 29 -88 20 -330 103
-462 158 -84 35 -367 181 -430 222 -177 113 -241 159 -355 249 -186 148 -443
411 -590 605 l-26 34 -83 -94 c-46 -52 -107 -119 -135 -149 -28 -30 -89 -98
-136 -150 -46 -52 -101 -113 -121 -135 -20 -22 -61 -67 -90 -99 -30 -33 -61
-67 -69 -76 -8 -9 -49 -54 -90 -100 -41 -47 -84 -94 -95 -106 -11 -11 -42 -45
-69 -75 -106 -118 -192 -213 -206 -229 -8 -9 -51 -56 -95 -105 -44 -50 -83
-92 -86 -95 -3 -3 -33 -36 -67 -74 l-62 -68 52 -62 c54 -62 332 -343 403 -406
22 -19 73 -64 115 -99 41 -35 77 -67 80 -70 3 -3 32 -26 65 -51 33 -25 62 -48
65 -51 23 -27 394 -281 535 -366 147 -88 474 -259 590 -308 273 -115 488 -192
702 -254 146 -41 324 -86 383 -96 19 -3 53 -10 75 -15 38 -9 67 -14 138 -25
17 -3 57 -10 87 -15 30 -5 79 -12 109 -15 30 -4 61 -8 70 -10 9 -1 54 -6 101
-10 47 -4 92 -9 100 -10 9 -2 79 -7 155 -11 229 -12 566 -8 770 11 28 3 79 7
115 10 59 6 200 24 305 40 305 47 722 157 1035 273 104 39 336 135 368 152 9
5 85 42 167 83 83 41 200 102 260 137 95 54 361 220 390 242 6 4 82 61 170
127 88 65 194 147 236 182 256 215 550 513 746 759 333 415 609 883 793 1340
12 30 28 69 35 85 6 17 18 46 25 65 6 19 16 44 20 55 24 57 106 316 111 350 1
6 6 21 11 35 5 14 11 32 13 40 2 8 21 83 42 165 l38 150 0 1074 0 1073 -101 2
c-55 0 -109 -1 -118 -2z"/>
</g>
</svg>
